 0
SECTION
 2
ENTITIES
  0
LINE
 8
Layer0
10
600.935283739423
20
112.5
30
1.28813365748625e-14
11
524.935283739423
21
112.5
31
1.28813365748625e-14
  0
LINE
 8
Layer0
10
532.435283739423
20
-7.50000000000008
30
1.28813365748625e-14
11
593.435283739423
21
-7.50000000000008
31
1.28813365748625e-14
  0
LINE
 8
Layer0
10
524.935283739423
20
112.5
30
1.28813365748625e-14
11
524.935283739423
21
105.0
31
1.28813365748625e-14
  0
LINE
 8
Layer0
10
524.935283739423
20
105.0
30
1.28813365748625e-14
11
514.935283739423
21
105.0
31
-2.9418160663356e-14
  0
LINE
 8
Layer0
10
600.935283739423
20
112.5
30
1.28813365748625e-14
11
600.935283739423
21
105.0
31
1.28813365748625e-14
  0
LINE
 8
Layer0
10
600.935283739423
20
105.0
30
1.28813365748625e-14
11
610.935283739423
21
105.0
31
1.28813365748625e-14
  0
LINE
 8
Layer0
10
610.935283739423
20
-6.76791955811495e-14
30
9.86988268891767e-15
11
610.935283739423
21
105.0
31
1.28813365748625e-14
  0
LINE
 8
Layer0
10
524.935283739423
20
-6.76791955811495e-14
30
1.40998324127395e-14
11
586.0
21
-6.76791955811495e-14
31
1.40998324127395e-14
  0
LINE
 8
Layer0
10
436.435283739423
20
-1.12798659301916e-13
30
-2.9418160663356e-14
11
490.0
21
-1.12798659301916e-13
31
-2.8199664825479e-14
  0
LINE
 8
Layer0
10
436.435283739423
20
-7.50000000000012
30
-2.9418160663356e-14
11
497.435283739423
21
-7.50000000000012
31
-2.9418160663356e-14
  0
LINE
 8
Layer0
10
436.435283739423
20
-1.12798659301916e-13
30
-2.9418160663356e-14
11
436.435283739423
21
-7.50000000000012
31
-2.9418160663356e-14
  0
LINE
 8
Layer0
10
428.935283739423
20
-1.08568709578094e-13
30
-2.8199664825479e-14
11
436.435283739423
21
-1.12798659301916e-13
31
-2.9418160663356e-14
  0
LINE
 8
Layer0
10
418.935283739423
20
105.0
30
-2.9418160663356e-14
11
418.935283739423
21
-1.08568709578094e-13
31
-2.8199664825479e-14
  0
LINE
 8
Layer0
10
436.435283739423
20
105.0
30
-2.9418160663356e-14
11
418.935283739423
21
105.0
31
-2.9418160663356e-14
  0
LINE
 8
Layer0
10
436.435283739423
20
105.0
30
-2.9418160663356e-14
11
436.435283739423
21
112.5
31
-2.9418160663356e-14
  0
LINE
 8
Layer0
10
497.435283739423
20
112.5
30
-2.9418160663356e-14
11
436.435283739423
21
112.5
31
-2.9418160663356e-14
  0
LINE
 8
Layer0
10
497.435283739423
20
112.5
30
-2.9418160663356e-14
11
497.435283739423
21
105.0
31
-2.9418160663356e-14
  0
LINE
 8
Layer0
10
514.935283739423
20
105.0
30
-2.9418160663356e-14
11
497.435283739423
21
105.0
31
-2.9418160663356e-14
  0
LINE
 8
Layer0
10
514.935283739423
20
-1.08568709578094e-13
30
-3.24296145493008e-14
11
514.935283739423
21
105.0
31
-2.9418160663356e-14
  0
LINE
 8
Layer0
10
497.435283739423
20
-1.12798659301916e-13
30
-2.9418160663356e-14
11
497.435283739423
21
-7.50000000000012
31
-2.9418160663356e-14
  0
LINE
 8
Layer0
10
497.435283739423
20
-1.12798659301916e-13
30
-2.9418160663356e-14
11
504.935283739423
21
-1.08568709578094e-13
31
-3.24296145493008e-14
  0
LINE
 8
Layer0
10
597.009109888468
20
-115.070083902217
30
3.43835810042902e-14
11
597.346053254882
21
-114.870577136594
31
-7.91591623392824e-15
  0
LINE
 8
Layer0
10
597.346053254882
20
-114.870577136594
30
-7.91591623392824e-15
11
597.723151705067
21
-114.765075759508
31
-1.3555849199024e-14
  0
LINE
 8
Layer0
10
597.723151705067
20
-114.765075759508
30
-1.3555849199024e-14
11
598.114706602829
21
-114.760769515459
31
3.72035474868381e-14
  0
LINE
 8
Layer0
10
598.114706602829
20
-114.760769515459
30
3.72035474868381e-14
11
598.49403412896
21
-114.857951867861
31
2.59236815566465e-14
  0
LINE
 8
Layer0
10
598.49403412896
20
-114.857951867861
30
2.59236815566465e-14
11
598.835283739423
21
-115.05
31
-5.09594975138035e-15
  0
LINE
 8
Layer0
10
598.835283739423
20
-115.05
30
-5.09594975138035e-15
11
599.115199837206
21
-115.323826149045
31
2.02837485915507e-14
  0
LINE
 8
Layer0
10
599.115199837206
20
-115.323826149045
30
2.02837485915507e-14
11
599.13210790378
21
-115.352381876733
31
4.0023513969386e-14
  0
LINE
 8
Layer0
10
599.13210790378
20
-115.352381876733
30
4.0023513969386e-14
11
599.314706602829
21
-115.660769515459
31
3.15636145217423e-14
  0
LINE
 8
Layer0
10
599.420207979915
20
-116.037867965644
30
2.59236815566465e-14
11
599.424514223964
21
-116.429422863406
31
2.31037150740986e-14
  0
LINE
 8
Layer0
10
599.424514223964
20
-116.429422863406
30
2.31037150740986e-14
11
599.327331871562
21
-116.808750389537
31
1.74637821090028e-14
  0
LINE
 8
Layer0
10
599.327331871562
20
-116.808750389537
30
1.74637821090028e-14
11
599.135283739423
21
-117.15
31
2.02837485915507e-14
  0
LINE
 8
Layer0
10
599.135283739423
20
-117.15
30
2.02837485915507e-14
11
598.861457590377
21
-117.429916097783
31
-2.20157486466677e-14
  0
LINE
 8
Layer0
10
598.861457590377
20
-117.429916097783
30
-2.20157486466677e-14
11
598.524514223964
21
-117.629422863406
31
6.18391617881124e-15
  0
LINE
 8
Layer0
10
598.524514223964
20
-117.629422863406
30
6.18391617881124e-15
11
598.147415773779
21
-117.734924240492
31
2.87436480391944e-14
  0
LINE
 8
Layer0
10
598.147415773779
20
-117.734924240492
30
2.87436480391944e-14
11
597.755860876017
21
-117.739230484541
31
1.74637821090028e-14
  0
LINE
 8
Layer0
10
597.755860876017
20
-117.739230484541
30
1.74637821090028e-14
11
597.376533349886
21
-117.642048132139
31
-2.27598326883245e-15
  0
LINE
 8
Layer0
10
597.376533349886
20
-117.642048132139
30
-2.27598326883245e-15
11
597.035283739423
21
-117.45
31
3.43835810042902e-14
  0
LINE
 8
Layer0
10
597.035283739423
20
-117.45
30
3.43835810042902e-14
11
596.75536764164
21
-117.176173850955
31
2.31037150740986e-14
  0
LINE
 8
Layer0
10
596.75536764164
20
-117.176173850955
30
2.31037150740986e-14
11
596.738459575066
21
-117.147618123267
31
2.87436480391944e-14
  0
LINE
 8
Layer0
10
596.738459575066
20
-117.147618123267
30
2.87436480391944e-14
11
596.555860876017
21
-116.839230484541
31
3.15636145217423e-14
  0
LINE
 8
Layer0
10
596.555860876017
20
-116.839230484541
30
3.15636145217423e-14
11
596.450359498931
21
-116.462132034356
31
3.72035474868381e-14
  0
LINE
 8
Layer0
10
596.450359498931
20
-116.462132034356
30
3.72035474868381e-14
11
596.446053254882
21
-116.070577136594
31
-5.09594975138035e-15
  0
LINE
 8
Layer0
10
596.446053254882
20
-116.070577136594
30
-5.09594975138035e-15
11
596.543235607284
21
-115.691249610463
31
2.02837485915507e-14
  0
LINE
 8
Layer0
10
596.543235607284
20
-115.691249610463
30
2.02837485915507e-14
11
596.735283739423
21
-115.35
31
3.72035474868381e-14
  0
LINE
 8
Layer0
10
596.735283739423
20
-115.35
30
3.72035474868381e-14
11
597.009109888468
21
-115.070083902217
31
3.43835810042902e-14
  0
LINE
 8
Layer0
10
529.327331871562
20
-115.691249610463
30
2.02837485915507e-14
11
529.424514223964
21
-116.070577136594
31
9.00388266135914e-15
  0
LINE
 8
Layer0
10
529.424514223964
20
-116.070577136594
30
9.00388266135914e-15
11
529.420207979915
21
-116.462132034356
31
2.59236815566465e-14
  0
LINE
 8
Layer0
10
529.420207979915
20
-116.462132034356
30
2.59236815566465e-14
11
529.314706602829
21
-116.839230484541
31
3.15636145217423e-14
  0
LINE
 8
Layer0
10
529.314706602829
20
-116.839230484541
30
3.15636145217423e-14
11
529.13210790378
21
-117.147618123267
31
4.28434804519339e-14
  0
LINE
 8
Layer0
10
529.13210790378
20
-117.147618123267
30
4.28434804519339e-14
11
529.115199837206
21
-117.176173850955
31
2.59236815566465e-14
  0
LINE
 8
Layer0
10
529.115199837206
20
-117.176173850955
30
2.59236815566465e-14
11
528.835283739423
21
-117.45
31
1.46438156264549e-14
  0
LINE
 8
Layer0
10
528.835283739423
20
-117.45
30
1.46438156264549e-14
11
528.49403412896
21
-117.642048132139
31
1.74637821090028e-14
  0
LINE
 8
Layer0
10
528.49403412896
20
-117.642048132139
30
1.74637821090028e-14
11
528.114706602829
21
-117.739230484541
31
6.18391617881124e-15
  0
LINE
 8
Layer0
10
528.114706602829
20
-117.739230484541
30
6.18391617881124e-15
11
527.723151705067
21
-117.734924240492
31
4.56634469344818e-14
  0
LINE
 8
Layer0
10
527.723151705067
20
-117.734924240492
30
4.56634469344818e-14
11
527.346053254882
21
-117.629422863406
31
1.74637821090028e-14
  0
LINE
 8
Layer0
10
527.346053254882
20
-117.629422863406
30
1.74637821090028e-14
11
527.009109888468
21
-117.429916097783
31
-1.63758156815719e-14
  0
LINE
 8
Layer0
10
527.009109888468
20
-117.429916097783
30
-1.63758156815719e-14
11
526.735283739423
21
-117.15
31
9.00388266135914e-15
  0
LINE
 8
Layer0
10
526.735283739423
20
-117.15
30
9.00388266135914e-15
11
526.543235607284
21
-116.808750389537
31
4.0023513969386e-14
  0
LINE
 8
Layer0
10
526.543235607284
20
-116.808750389537
30
4.0023513969386e-14
11
526.446053254882
21
-116.429422863406
31
2.31037150740986e-14
  0
LINE
 8
Layer0
10
526.450359498931
20
-116.037867965644
30
3.72035474868381e-14
11
526.555860876017
21
-115.660769515459
31
5.13033798995776e-14
  0
LINE
 8
Layer0
10
526.555860876017
20
-115.660769515459
30
5.13033798995776e-14
11
526.738459575066
21
-115.352381876733
31
4.0023513969386e-14
  0
LINE
 8
Layer0
10
526.738459575066
20
-115.352381876733
30
4.0023513969386e-14
11
526.75536764164
21
-115.323826149045
31
2.02837485915507e-14
  0
LINE
 8
Layer0
10
526.75536764164
20
-115.323826149045
30
2.02837485915507e-14
11
527.035283739423
21
-115.05
31
1.74637821090028e-14
  0
LINE
 8
Layer0
10
527.035283739423
20
-115.05
30
1.74637821090028e-14
11
527.376533349886
21
-114.857951867861
31
2.59236815566465e-14
  0
LINE
 8
Layer0
10
527.376533349886
20
-114.857951867861
30
2.59236815566465e-14
11
527.755860876017
21
-114.760769515459
31
3.72035474868381e-14
  0
LINE
 8
Layer0
10
527.755860876017
20
-114.760769515459
30
3.72035474868381e-14
11
528.147415773779
21
-114.765075759508
31
9.00388266135914e-15
  0
LINE
 8
Layer0
10
528.147415773779
20
-114.765075759508
30
9.00388266135914e-15
11
528.524514223964
21
-114.870577136594
31
9.00388266135914e-15
  0
LINE
 8
Layer0
10
528.524514223964
20
-114.870577136594
30
9.00388266135914e-15
11
528.861457590378
21
-115.070083902217
31
3.43835810042902e-14
  0
LINE
 8
Layer0
10
528.861457590378
20
-115.070083902217
30
3.43835810042902e-14
11
529.135283739423
21
-115.35
31
2.87436480391944e-14
  0
LINE
 8
Layer0
10
529.135283739423
20
-115.35
30
2.87436480391944e-14
11
529.327331871562
21
-115.691249610463
31
2.02837485915507e-14
  0
LINE
 8
Layer0
10
604.543235607284
20
-4.30875038953722
30
1.00613700923146e-14
11
604.446053254882
21
-3.92942286340607
31
9.97324613973498e-15
  0
LINE
 8
Layer0
10
604.446053254882
20
-3.92942286340607
30
9.97324613973498e-15
11
604.450359498931
21
-3.53786796564411
31
9.79699823457574e-15
  0
LINE
 8
Layer0
10
604.450359498931
20
-3.53786796564411
30
9.79699823457574e-15
11
604.555860876017
21
-3.16076951545876
31
1.11188575232701e-14
  0
LINE
 8
Layer0
10
604.555860876017
20
-3.16076951545876
30
1.11188575232701e-14
11
604.738459575066
21
-2.85238187673249
31
9.79699823457574e-15
  0
LINE
 8
Layer0
10
604.738459575066
20
-2.85238187673249
30
9.79699823457574e-15
11
604.75536764164
21
-2.82382614904547
31
9.18013056651838e-15
  0
LINE
 8
Layer0
10
604.75536764164
20
-2.82382614904547
30
9.18013056651838e-15
11
605.035283739423
21
-2.55000000000007
31
9.70887428199612e-15
  0
LINE
 8
Layer0
10
605.035283739423
20
-2.55000000000007
30
9.70887428199612e-15
11
605.376533349886
21
-2.35795186786093
31
9.35637847167763e-15
  0
LINE
 8
Layer0
10
605.376533349886
20
-2.35795186786093
30
9.35637847167763e-15
11
605.755860876017
21
-2.26076951545876
31
9.88512218715536e-15
  0
LINE
 8
Layer0
10
605.755860876017
20
-2.26076951545876
30
9.88512218715536e-15
11
606.147415773779
21
-2.26507575950833
31
9.70887428199612e-15
  0
LINE
 8
Layer0
10
606.147415773779
20
-2.26507575950833
30
9.70887428199612e-15
11
606.524514223964
21
-2.37057713659407
31
9.44450242425725e-15
  0
LINE
 8
Layer0
10
606.524514223964
20
-2.37057713659407
30
9.44450242425725e-15
11
606.861457590377
21
-2.57008390221689
31
9.26825451909801e-15
  0
LINE
 8
Layer0
10
606.861457590377
20
-2.57008390221689
30
9.26825451909801e-15
11
607.135283739423
21
-2.85000000000007
31
9.26825451909801e-15
  0
LINE
 8
Layer0
10
607.327331871562
20
-3.19124961046293
30
9.88512218715536e-15
11
607.424514223964
21
-3.57057713659407
31
8.8276347561999e-15
  0
LINE
 8
Layer0
10
607.420207979915
20
-3.96213203435603
30
9.53262637683687e-15
11
607.314706602829
21
-4.33923048454141
31
9.70887428199612e-15
  0
LINE
 8
Layer0
10
607.314706602829
20
-4.33923048454141
30
9.70887428199612e-15
11
607.13210790378
21
-4.64761812326765
31
9.88512218715536e-15
  0
LINE
 8
Layer0
10
607.13210790378
20
-4.64761812326765
30
9.88512218715536e-15
11
607.115199837206
21
-4.6761738509547
31
9.35637847167763e-15
  0
LINE
 8
Layer0
10
607.115199837206
20
-4.6761738509547
30
9.35637847167763e-15
11
606.835283739423
21
-4.95000000000007
31
1.16476012387478e-14
  0
LINE
 8
Layer0
10
606.49403412896
20
-5.14204813213923
30
9.00388266135914e-15
11
606.114706602829
21
-5.23923048454141
31
9.70887428199612e-15
  0
LINE
 8
Layer0
10
606.114706602829
20
-5.23923048454141
30
9.70887428199612e-15
11
605.723151705067
21
-5.23492424049182
31
8.8276347561999e-15
  0
LINE
 8
Layer0
10
605.723151705067
20
-5.23492424049182
30
8.8276347561999e-15
11
605.346053254882
21
-5.12942286340607
31
1.02376179974738e-14
  0
LINE
 8
Layer0
10
605.346053254882
20
-5.12942286340607
30
1.02376179974738e-14
11
605.009109888468
21
-4.92991609778327
31
8.8276347561999e-15
  0
LINE
 8
Layer0
10
604.735283739423
20
-4.65000000000007
30
1.09426096181108e-14
11
604.543235607284
21
-4.30875038953722
31
1.00613700923146e-14
  0
LINE
 8
Layer0
10
519.009109888468
20
-2.57008390221689
30
9.26825451909801e-15
11
519.346053254882
21
-2.37057713659407
31
9.44450242425725e-15
  0
LINE
 8
Layer0
10
519.346053254882
20
-2.37057713659407
30
9.44450242425725e-15
11
519.723151705067
21
-2.26507575950833
31
9.70887428199612e-15
  0
LINE
 8
Layer0
10
519.723151705067
20
-2.26507575950833
30
9.70887428199612e-15
11
520.114706602829
21
-2.26076951545874
31
9.09200661393876e-15
  0
LINE
 8
Layer0
10
520.114706602829
20
-2.26076951545874
30
9.09200661393876e-15
11
520.49403412896
21
-2.35795186786091
31
9.00388266135914e-15
  0
LINE
 8
Layer0
10
520.49403412896
20
-2.35795186786091
30
9.00388266135914e-15
11
520.835283739423
21
-2.55000000000007
31
9.70887428199612e-15
  0
LINE
 8
Layer0
10
520.835283739423
20
-2.55000000000007
30
9.70887428199612e-15
11
521.115199837206
21
-2.82382614904545
31
9.53262637683687e-15
  0
LINE
 8
Layer0
10
521.115199837206
20
-2.82382614904545
30
9.53262637683687e-15
11
521.13210790378
21
-2.85238187673249
31
9.79699823457574e-15
  0
LINE
 8
Layer0
10
521.13210790378
20
-2.85238187673249
30
9.79699823457574e-15
11
521.314706602829
21
-3.16076951545874
31
9.35637847167763e-15
  0
LINE
 8
Layer0
10
521.314706602829
20
-3.16076951545874
30
9.35637847167763e-15
11
521.420207979915
21
-3.53786796564411
31
9.79699823457574e-15
  0
LINE
 8
Layer0
10
521.420207979915
20
-3.53786796564411
30
9.79699823457574e-15
11
521.424514223964
21
-3.92942286340605
31
9.09200661393876e-15
  0
LINE
 8
Layer0
10
521.424514223964
20
-3.92942286340605
30
9.09200661393876e-15
11
521.327331871562
21
-4.30875038953719
31
1.11188575232701e-14
  0
LINE
 8
Layer0
10
521.327331871562
20
-4.30875038953719
30
1.11188575232701e-14
11
521.135283739423
21
-4.65000000000007
31
1.09426096181108e-14
  0
LINE
 8
Layer0
10
521.135283739423
20
-4.65000000000007
30
1.09426096181108e-14
11
520.861457590378
21
-4.92991609778325
31
1.04138659026331e-14
  0
LINE
 8
Layer0
10
520.861457590378
20
-4.92991609778325
30
1.04138659026331e-14
11
520.524514223964
21
-5.12942286340607
31
1.02376179974738e-14
  0
LINE
 8
Layer0
10
520.524514223964
20
-5.12942286340607
30
1.02376179974738e-14
11
520.147415773779
21
-5.23492424049182
31
8.8276347561999e-15
  0
LINE
 8
Layer0
10
520.147415773779
20
-5.23492424049182
30
8.8276347561999e-15
11
519.755860876017
21
-5.23923048454138
31
9.70887428199612e-15
  0
LINE
 8
Layer0
10
519.755860876017
20
-5.23923048454138
30
9.70887428199612e-15
11
519.376533349886
21
-5.14204813213921
31
1.04138659026331e-14
  0
LINE
 8
Layer0
10
519.376533349886
20
-5.14204813213921
30
1.04138659026331e-14
11
519.035283739423
21
-4.95000000000007
31
1.16476012387478e-14
  0
LINE
 8
Layer0
10
519.035283739423
20
-4.95000000000007
30
1.16476012387478e-14
11
518.75536764164
21
-4.67617385095467
31
9.53262637683687e-15
  0
LINE
 8
Layer0
10
518.75536764164
20
-4.67617385095467
30
9.53262637683687e-15
11
518.738459575066
21
-4.64761812326765
31
9.88512218715536e-15
  0
LINE
 8
Layer0
10
518.738459575066
20
-4.64761812326765
30
9.88512218715536e-15
11
518.555860876017
21
-4.33923048454139
31
1.02376179974738e-14
  0
LINE
 8
Layer0
10
518.555860876017
20
-4.33923048454139
30
1.02376179974738e-14
11
518.450359498931
21
-3.96213203435603
31
9.53262637683687e-15
  0
LINE
 8
Layer0
10
518.450359498931
20
-3.96213203435603
30
9.53262637683687e-15
11
518.446053254881
21
-3.57057713659407
31
8.8276347561999e-15
  0
LINE
 8
Layer0
10
518.446053254881
20
-3.57057713659407
30
8.8276347561999e-15
11
518.543235607284
21
-3.19124961046293
31
9.88512218715536e-15
  0
LINE
 8
Layer0
10
518.543235607284
20
-3.19124961046293
30
9.88512218715536e-15
11
518.735283739423
21
-2.85000000000007
31
9.26825451909801e-15
  0
LINE
 8
Layer0
10
518.735283739423
20
-2.85000000000007
30
9.26825451909801e-15
11
519.009109888468
21
-2.57008390221689
31
9.26825451909801e-15
  0
LINE
 8
Layer0
10
593.435283739423
20
-51.0000000000001
30
3.57935642455642e-14
11
593.435283739423
21
-43.5000000000001
31
5.43983213715449e-16
  0
LINE
 8
Layer0
10
532.435283739423
20
-51.0000000000001
30
3.57935642455642e-14
11
593.435283739423
21
-51.0000000000001
31
3.57935642455642e-14
  0
LINE
 8
Layer0
10
532.435283739423
20
-51.0000000000001
30
3.57935642455642e-14
11
532.435283739423
21
-43.5000000000001
31
1.46438156264549e-14
  0
LINE
 8
Layer0
10
532.435283739423
20
-43.5000000000001
30
1.46438156264549e-14
11
593.435283739423
21
-43.5000000000001
31
5.43983213715449e-16
  0
LINE
 8
Layer0
10
610.935283739423
20
-6.76791955811495e-14
30
9.86988268891767e-15
11
610.935283739423
21
-120.0
31
2.02837485915507e-14
  0
LINE
 8
Layer0
10
600.935283739423
20
-6.76791955811495e-14
30
9.86988268891767e-15
11
610.935283739423
21
-6.76791955811495e-14
31
9.86988268891767e-15
  0
LINE
 8
Layer0
10
600.935283739423
20
-7.50000000000008
30
1.28813365748625e-14
11
600.935283739423
21
-6.76791955811495e-14
31
9.86988268891767e-15
  0
LINE
 8
Layer0
10
593.435283739423
20
-7.50000000000008
30
1.28813365748625e-14
11
600.935283739423
21
-7.50000000000008
31
1.28813365748625e-14
  0
LINE
 8
Layer0
10
593.435283739423
20
-7.50000000000008
30
1.28813365748625e-14
11
593.435283739423
21
-27.5
31
6.88890779944822e-15
  0
LINE
 8
Layer0
10
593.435283739423
20
-27.5
30
6.88890779944822e-15
11
532.435283739423
21
-27.5
31
9.00388266135914e-15
  0
LINE
 8
Layer0
10
532.435283739423
20
-7.50000000000008
30
1.28813365748625e-14
11
532.435283739423
21
-27.5
31
9.00388266135914e-15
  0
LINE
 8
Layer0
10
524.935283739423
20
-7.50000000000008
30
1.28813365748625e-14
11
532.435283739423
21
-7.50000000000008
31
1.28813365748625e-14
  0
LINE
 8
Layer0
10
524.935283739423
20
-7.50000000000008
30
1.28813365748625e-14
11
524.935283739423
21
-6.76791955811495e-14
31
1.40998324127395e-14
  0
LINE
 8
Layer0
10
514.935283739423
20
-1.08568709578094e-13
30
-3.24296145493008e-14
11
524.935283739423
21
-6.76791955811495e-14
31
1.40998324127395e-14
  0
LINE
 8
Layer0
10
425.424514223964
20
-3.92942286340609
30
-3.32074906242797e-14
11
425.327331871562
21
-4.30875038953723
31
-3.11806397149484e-14
  0
LINE
 8
Layer0
10
425.420207979915
20
-3.53786796564415
30
-3.25024990036427e-14
11
425.424514223964
21
-3.92942286340609
31
-3.32074906242797e-14
  0
LINE
 8
Layer0
10
423.723151705067
20
-2.26507575950837
30
-3.25906229562223e-14
11
424.114706602829
21
-2.26076951545878
31
-3.32074906242797e-14
  0
LINE
 8
Layer0
10
423.346053254882
20
-2.37057713659411
30
-3.28549948139612e-14
11
423.723151705067
21
-2.26507575950837
31
-3.25906229562223e-14
  0
LINE
 8
Layer0
10
423.009109888468
20
-2.57008390221693
30
-3.30312427191205e-14
11
423.346053254882
21
-2.37057713659411
31
-3.28549948139612e-14
  0
LINE
 8
Layer0
10
508.735283739423
20
-4.65000000000011
30
-3.13568876201076e-14
11
508.543235607284
21
-4.30875038953725
31
-3.22381271459039e-14
  0
LINE
 8
Layer0
10
425.13210790378
20
-2.85238187673253
30
-3.25024990036427e-14
11
425.314706602829
21
-3.16076951545877
31
-3.29431187665408e-14
  0
LINE
 8
Layer0
10
425.115199837206
20
-2.82382614904549
30
-3.27668708613816e-14
11
425.13210790378
21
-2.85238187673253
31
-3.25024990036427e-14
  0
LINE
 8
Layer0
10
424.835283739423
20
-2.55000000000011
30
-3.25906229562223e-14
11
425.115199837206
21
-2.82382614904549
31
-3.27668708613816e-14
  0
LINE
 8
Layer0
10
424.49403412896
20
-2.35795186786095
30
-3.32956145768593e-14
11
424.835283739423
21
-2.55000000000011
31
-3.25906229562223e-14
  0
LINE
 8
Layer0
10
424.114706602829
20
-2.26076951545878
30
-3.32074906242797e-14
11
424.49403412896
21
-2.35795186786095
31
-3.32956145768593e-14
  0
LINE
 8
Layer0
10
425.135283739423
20
-4.65000000000011
30
-3.13568876201076e-14
11
424.861457590377
21
-4.92991609778329
31
-3.18856313355854e-14
  0
LINE
 8
Layer0
10
425.327331871562
20
-4.30875038953723
30
-3.11806397149484e-14
11
425.135283739423
21
-4.65000000000011
31
-3.13568876201076e-14
  0
LINE
 8
Layer0
10
497.435283739423
20
-7.50000000000012
30
-2.9418160663356e-14
11
504.935283739423
21
-7.50000000000012
31
-2.9418160663356e-14
  0
LINE
 8
Layer0
10
497.435283739423
20
-112.5
30
9.00388266135914e-15
11
497.435283739423
21
-120.0
31
-2.20157486466677e-14
  0
LINE
 8
Layer0
10
497.435283739423
20
-120.0
30
-2.20157486466677e-14
11
514.935283739423
21
-120.0
31
-2.20157486466677e-14
  0
LINE
 8
Layer0
10
436.435283739423
20
-7.50000000000012
30
-2.9418160663356e-14
11
428.935283739423
21
-7.50000000000012
31
-2.9418160663356e-14
  0
LINE
 8
Layer0
10
436.435283739423
20
-43.5000000000001
30
-2.76556816117635e-14
11
497.435283739423
21
-43.5000000000001
31
-4.1755514024503e-14
  0
LINE
 8
Layer0
10
436.435283739423
20
-120.0
30
-1.91957821641198e-14
11
436.435283739423
21
-112.5
31
6.18391617881124e-15
  0
LINE
 8
Layer0
10
428.935283739423
20
-7.50000000000012
30
-2.9418160663356e-14
11
428.935283739423
21
-1.08568709578094e-13
31
-2.8199664825479e-14
  0
LINE
 8
Layer0
10
418.935283739423
20
-1.08568709578094e-13
30
-2.8199664825479e-14
11
418.935283739423
21
-120.0
31
-1.91957821641198e-14
  0
LINE
 8
Layer0
10
422.543235607284
20
-3.19124961046297
30
-3.24143750510631e-14
11
422.735283739423
21
-2.85000000000011
31
-3.30312427191205e-14
  0
LINE
 8
Layer0
10
422.446053254882
20
-3.57057713659411
30
-3.34718624820186e-14
11
422.543235607284
21
-3.19124961046297
31
-3.24143750510631e-14
  0
LINE
 8
Layer0
10
422.450359498931
20
-3.96213203435607
30
-3.27668708613816e-14
11
422.446053254882
21
-3.57057713659411
31
-3.34718624820186e-14
  0
LINE
 8
Layer0
10
422.555860876017
20
-4.33923048454143
30
-3.20618792407446e-14
11
422.450359498931
21
-3.96213203435607
31
-3.27668708613816e-14
  0
LINE
 8
Layer0
10
422.738459575066
20
-4.64761812326769
30
-3.24143750510631e-14
11
422.555860876017
21
-4.33923048454143
31
-3.20618792407446e-14
  0
LINE
 8
Layer0
10
422.75536764164
20
-4.67617385095471
30
-3.27668708613816e-14
11
422.738459575066
21
-4.64761812326769
31
-3.24143750510631e-14
  0
LINE
 8
Layer0
10
423.035283739423
20
-4.95000000000011
30
-3.06518959994707e-14
11
422.75536764164
21
-4.67617385095471
31
-3.27668708613816e-14
  0
LINE
 8
Layer0
10
423.376533349886
20
-5.14204813213925
30
-3.18856313355854e-14
11
423.035283739423
21
-4.95000000000011
31
-3.06518959994707e-14
  0
LINE
 8
Layer0
10
425.314706602829
20
-3.16076951545877
30
-3.29431187665408e-14
11
425.420207979915
21
-3.53786796564415
31
-3.25024990036427e-14
  0
LINE
 8
Layer0
10
423.755860876017
20
-5.23923048454142
30
-3.25906229562223e-14
11
423.376533349886
21
-5.14204813213925
31
-3.18856313355854e-14
  0
LINE
 8
Layer0
10
509.009109888468
20
-4.92991609778331
30
-3.34718624820186e-14
11
508.735283739423
21
-4.65000000000011
31
-3.13568876201076e-14
  0
LINE
 8
Layer0
10
509.346053254881
20
-5.12942286340611
30
-3.20618792407446e-14
11
509.009109888468
21
-4.92991609778331
31
-3.34718624820186e-14
  0
LINE
 8
Layer0
10
509.723151705067
20
-5.23492424049186
30
-3.34718624820186e-14
11
509.346053254881
21
-5.12942286340611
31
-3.20618792407446e-14
  0
LINE
 8
Layer0
10
510.114706602829
20
-5.23923048454144
30
-3.25906229562223e-14
11
509.723151705067
21
-5.23492424049186
31
-3.34718624820186e-14
  0
LINE
 8
Layer0
10
510.49403412896
20
-5.14204813213927
30
-3.32956145768593e-14
11
510.114706602829
21
-5.23923048454144
31
-3.25906229562223e-14
  0
LINE
 8
Layer0
10
510.835283739423
20
-4.95000000000011
30
-3.06518959994707e-14
11
510.49403412896
21
-5.14204813213927
31
-3.32956145768593e-14
  0
LINE
 8
Layer0
10
511.115199837206
20
-4.67617385095474
30
-3.29431187665408e-14
11
510.835283739423
21
-4.95000000000011
31
-3.06518959994707e-14
  0
LINE
 8
Layer0
10
511.13210790378
20
-4.64761812326769
30
-3.24143750510631e-14
11
511.115199837206
21
-4.67617385095474
31
-3.29431187665408e-14
  0
LINE
 8
Layer0
10
510.147415773779
20
-2.26507575950837
30
-3.25906229562223e-14
11
510.524514223964
21
-2.37057713659411
31
-3.28549948139612e-14
  0
LINE
 8
Layer0
10
509.755860876017
20
-2.2607695154588
30
-3.24143750510631e-14
11
510.147415773779
21
-2.26507575950837
31
-3.25906229562223e-14
  0
LINE
 8
Layer0
10
511.314706602829
20
-4.33923048454145
30
-3.25906229562223e-14
11
511.13210790378
21
-4.64761812326769
31
-3.24143750510631e-14
  0
LINE
 8
Layer0
10
511.420207979915
20
-3.96213203435607
30
-3.27668708613816e-14
11
511.314706602829
21
-4.33923048454145
31
-3.25906229562223e-14
  0
LINE
 8
Layer0
10
511.424514223964
20
-3.57057713659411
30
-3.34718624820186e-14
11
511.420207979915
21
-3.96213203435607
31
-3.27668708613816e-14
  0
LINE
 8
Layer0
10
511.327331871562
20
-3.19124961046297
30
-3.24143750510631e-14
11
511.424514223964
21
-3.57057713659411
31
-3.34718624820186e-14
  0
LINE
 8
Layer0
10
511.135283739423
20
-2.85000000000011
30
-3.30312427191205e-14
11
511.327331871562
21
-3.19124961046297
31
-3.24143750510631e-14
  0
LINE
 8
Layer0
10
510.861457590377
20
-2.57008390221693
30
-3.30312427191205e-14
11
511.135283739423
21
-2.85000000000011
31
-3.30312427191205e-14
  0
LINE
 8
Layer0
10
510.524514223964
20
-2.37057713659411
30
-3.28549948139612e-14
11
510.861457590377
21
-2.57008390221693
31
-3.30312427191205e-14
  0
LINE
 8
Layer0
10
509.376533349886
20
-2.35795186786097
30
-3.29431187665408e-14
11
509.755860876017
21
-2.2607695154588
31
-3.24143750510631e-14
  0
LINE
 8
Layer0
10
508.446053254882
20
-3.92942286340611
30
-3.23262510984835e-14
11
508.450359498931
21
-3.53786796564415
31
-3.25024990036427e-14
  0
LINE
 8
Layer0
10
508.543235607284
20
-4.30875038953725
30
-3.22381271459039e-14
11
508.446053254882
21
-3.92942286340611
31
-3.23262510984835e-14
  0
LINE
 8
Layer0
10
433.135283739423
20
-115.35
30
-1.3555849199024e-14
11
433.327331871562
21
-115.691249610463
31
-2.20157486466677e-14
  0
LINE
 8
Layer0
10
432.861457590377
20
-115.070083902217
30
-7.91591623392824e-15
11
433.135283739423
21
-115.35
31
-1.3555849199024e-14
  0
LINE
 8
Layer0
10
432.524514223964
20
-114.870577136594
30
-3.32956145768593e-14
11
432.861457590377
21
-115.070083902217
31
-7.91591623392824e-15
  0
LINE
 8
Layer0
10
432.147415773779
20
-114.765075759508
30
-3.32956145768593e-14
11
432.524514223964
21
-114.870577136594
31
-3.32956145768593e-14
  0
LINE
 8
Layer0
10
431.755860876017
20
-114.760769515459
30
-5.09594975138035e-15
11
432.147415773779
21
-114.765075759508
31
-3.32956145768593e-14
  0
LINE
 8
Layer0
10
431.376533349886
20
-114.857951867861
30
-1.63758156815719e-14
11
431.755860876017
21
-114.760769515459
31
-5.09594975138035e-15
  0
LINE
 8
Layer0
10
431.035283739423
20
-115.05
30
-2.48357151292156e-14
11
431.376533349886
21
-114.857951867861
31
-1.63758156815719e-14
  0
LINE
 8
Layer0
10
430.75536764164
20
-115.323826149045
30
-2.20157486466677e-14
11
431.035283739423
21
-115.05
31
-2.48357151292156e-14
  0
LINE
 8
Layer0
10
430.738459575066
20
-115.352381876733
30
-2.27598326883245e-15
11
430.75536764164
21
-115.323826149045
31
-2.20157486466677e-14
  0
LINE
 8
Layer0
10
431.723151705067
20
-117.734924240492
30
3.36394969626335e-15
11
431.346053254882
21
-117.629422863406
31
-2.48357151292156e-14
  0
LINE
 8
Layer0
10
432.114706602829
20
-117.739230484541
30
-3.61155810594072e-14
11
431.723151705067
21
-117.734924240492
31
3.36394969626335e-15
  0
LINE
 8
Layer0
10
430.555860876017
20
-115.660769515459
30
9.00388266135914e-15
11
430.738459575066
21
-115.352381876733
31
-2.27598326883245e-15
  0
LINE
 8
Layer0
10
430.450359498931
20
-116.037867965644
30
-5.09594975138035e-15
11
430.555860876017
21
-115.660769515459
31
9.00388266135914e-15
  0
LINE
 8
Layer0
10
430.446053254882
20
-116.429422863406
30
-1.91957821641198e-14
11
430.450359498931
21
-116.037867965644
31
-5.09594975138035e-15
  0
LINE
 8
Layer0
10
430.543235607284
20
-116.808750389537
30
-2.27598326883245e-15
11
430.446053254882
21
-116.429422863406
31
-1.91957821641198e-14
  0
LINE
 8
Layer0
10
430.735283739423
20
-117.15
30
-3.32956145768593e-14
11
430.543235607284
21
-116.808750389537
31
-2.27598326883245e-15
  0
LINE
 8
Layer0
10
431.009109888468
20
-117.429916097783
30
-5.86753129197904e-14
11
430.735283739423
21
-117.15
31
-3.32956145768593e-14
  0
LINE
 8
Layer0
10
431.346053254882
20
-117.629422863406
30
-2.48357151292156e-14
11
431.009109888468
21
-117.429916097783
31
-5.86753129197904e-14
  0
LINE
 8
Layer0
10
432.49403412896
20
-117.642048132139
30
-2.48357151292156e-14
11
432.114706602829
21
-117.739230484541
31
-3.61155810594072e-14
  0
LINE
 8
Layer0
10
432.835283739423
20
-117.45
30
-2.76556816117635e-14
11
432.49403412896
21
-117.642048132139
31
-2.48357151292156e-14
  0
LINE
 8
Layer0
10
433.115199837206
20
-117.176173850955
30
-1.63758156815719e-14
11
432.835283739423
21
-117.45
31
-2.76556816117635e-14
  0
LINE
 8
Layer0
10
433.13210790378
20
-117.147618123268
30
5.43983213715449e-16
11
433.115199837206
21
-117.176173850955
31
-1.63758156815719e-14
  0
LINE
 8
Layer0
10
433.314706602829
20
-116.839230484541
30
-1.07358827164761e-14
11
433.13210790378
21
-117.147618123268
31
5.43983213715449e-16
  0
LINE
 8
Layer0
10
433.420207979915
20
-116.462132034356
30
-1.63758156815719e-14
11
433.314706602829
21
-116.839230484541
31
-1.07358827164761e-14
  0
LINE
 8
Layer0
10
433.424514223964
20
-116.070577136594
30
-3.32956145768593e-14
11
433.420207979915
21
-116.462132034356
31
-1.63758156815719e-14
  0
LINE
 8
Layer0
10
433.327331871562
20
-115.691249610463
30
-2.20157486466677e-14
11
433.424514223964
21
-116.070577136594
31
-3.32956145768593e-14
  0
LINE
 8
Layer0
10
500.735283739423
20
-115.35
30
-5.09594975138035e-15
11
501.009109888468
21
-115.070083902217
31
-7.91591623392824e-15
  0
LINE
 8
Layer0
10
500.543235607284
20
-115.691249610463
30
-2.20157486466677e-14
11
500.735283739423
21
-115.35
31
-5.09594975138035e-15
  0
LINE
 8
Layer0
10
500.446053254882
20
-116.070577136594
30
-4.73954469895988e-14
11
500.543235607284
21
-115.691249610463
31
-2.20157486466677e-14
  0
LINE
 8
Layer0
10
500.450359498931
20
-116.462132034356
30
-5.09594975138035e-15
11
500.446053254882
21
-116.070577136594
31
-4.73954469895988e-14
  0
LINE
 8
Layer0
10
500.555860876017
20
-116.839230484541
30
-1.07358827164761e-14
11
500.450359498931
21
-116.462132034356
31
-5.09594975138035e-15
  0
LINE
 8
Layer0
10
500.738459575066
20
-117.147618123268
30
-1.3555849199024e-14
11
500.555860876017
21
-116.839230484541
31
-1.07358827164761e-14
  0
LINE
 8
Layer0
10
500.75536764164
20
-117.176173850955
30
-1.91957821641198e-14
11
500.738459575066
21
-117.147618123268
31
-1.3555849199024e-14
  0
LINE
 8
Layer0
10
501.035283739423
20
-117.45
30
-7.91591623392824e-15
11
500.75536764164
21
-117.176173850955
31
-1.91957821641198e-14
  0
LINE
 8
Layer0
10
501.376533349886
20
-117.642048132139
30
-4.45754805070509e-14
11
501.035283739423
21
-117.45
31
-7.91591623392824e-15
  0
LINE
 8
Layer0
10
503.314706602829
20
-115.660769515459
30
-1.07358827164761e-14
11
503.420207979915
21
-116.037867965644
31
-1.63758156815719e-14
  0
LINE
 8
Layer0
10
501.755860876017
20
-117.739230484541
30
-2.48357151292156e-14
11
501.376533349886
21
-117.642048132139
31
-4.45754805070509e-14
  0
LINE
 8
Layer0
10
502.147415773779
20
-117.734924240492
30
-1.3555849199024e-14
11
501.755860876017
21
-117.739230484541
31
-2.48357151292156e-14
  0
LINE
 8
Layer0
10
502.524514223964
20
-117.629422863406
30
-3.61155810594072e-14
11
502.147415773779
21
-117.734924240492
31
-1.3555849199024e-14
  0
LINE
 8
Layer0
10
502.861457590377
20
-117.429916097783
30
-6.43152458848862e-14
11
502.524514223964
21
-117.629422863406
31
-3.61155810594072e-14
  0
LINE
 8
Layer0
10
503.135283739423
20
-117.15
30
-2.20157486466677e-14
11
502.861457590377
21
-117.429916097783
31
-6.43152458848862e-14
  0
LINE
 8
Layer0
10
503.327331871562
20
-116.808750389537
30
-2.48357151292156e-14
11
503.135283739423
21
-117.15
31
-2.20157486466677e-14
  0
LINE
 8
Layer0
10
503.424514223964
20
-116.429422863406
30
-1.91957821641198e-14
11
503.327331871562
21
-116.808750389537
31
-2.48357151292156e-14
  0
LINE
 8
Layer0
10
503.420207979915
20
-116.037867965644
30
-1.63758156815719e-14
11
503.424514223964
21
-116.429422863406
31
-1.91957821641198e-14
  0
LINE
 8
Layer0
10
503.13210790378
20
-115.352381876733
30
-2.27598326883245e-15
11
503.314706602829
21
-115.660769515459
31
-1.07358827164761e-14
  0
LINE
 8
Layer0
10
503.115199837206
20
-115.323826149045
30
-2.20157486466677e-14
11
503.13210790378
21
-115.352381876733
31
-2.27598326883245e-15
  0
LINE
 8
Layer0
10
502.835283739423
20
-115.05
30
-4.73954469895988e-14
11
503.115199837206
21
-115.323826149045
31
-2.20157486466677e-14
  0
LINE
 8
Layer0
10
502.49403412896
20
-114.857951867861
30
-1.63758156815719e-14
11
502.835283739423
21
-115.05
31
-4.73954469895988e-14
  0
LINE
 8
Layer0
10
502.114706602829
20
-114.760769515459
30
-5.09594975138035e-15
11
502.49403412896
21
-114.857951867861
31
-1.63758156815719e-14
  0
LINE
 8
Layer0
10
501.723151705067
20
-114.765075759508
30
-5.58553464372425e-14
11
502.114706602829
21
-114.760769515459
31
-5.09594975138035e-15
  0
LINE
 8
Layer0
10
501.346053254882
20
-114.870577136594
30
-5.02154134721467e-14
11
501.723151705067
21
-114.765075759508
31
-5.58553464372425e-14
  0
LINE
 8
Layer0
10
501.009109888468
20
-115.070083902217
30
-7.91591623392824e-15
11
501.346053254882
21
-114.870577136594
31
-5.02154134721467e-14
  0
LINE
 8
Layer0
10
436.435283739423
20
-112.5
30
6.18391617881124e-15
11
497.435283739423
21
-112.5
31
9.00388266135914e-15
  0
LINE
 8
Layer0
10
418.935283739423
20
-120.0
30
-1.91957821641198e-14
11
436.435283739423
21
-120.0
31
-1.91957821641198e-14
  0
LINE
 8
Layer0
10
418.935283739423
20
-1.08568709578094e-13
30
-2.8199664825479e-14
11
428.935283739423
21
-1.08568709578094e-13
31
-2.8199664825479e-14
  0
LINE
 8
Layer0
10
436.435283739423
20
-7.50000000000012
30
-2.9418160663356e-14
11
436.435283739423
21
-27.5000000000001
31
-3.32956145768593e-14
  0
LINE
 8
Layer0
10
497.435283739423
20
-27.5000000000001
30
-3.54105894387702e-14
11
436.435283739423
21
-27.5000000000001
31
-3.32956145768593e-14
  0
LINE
 8
Layer0
10
497.435283739423
20
-7.50000000000012
30
-2.9418160663356e-14
11
497.435283739423
21
-27.5000000000001
31
-3.54105894387702e-14
  0
LINE
 8
Layer0
10
504.935283739423
20
-7.50000000000012
30
-2.9418160663356e-14
11
504.935283739423
21
-1.08568709578094e-13
31
-3.24296145493008e-14
  0
LINE
 8
Layer0
10
504.935283739423
20
-1.08568709578094e-13
30
-3.24296145493008e-14
11
514.935283739423
21
-1.08568709578094e-13
31
-3.24296145493008e-14
  0
LINE
 8
Layer0
10
514.935283739423
20
-1.08568709578094e-13
30
-3.24296145493008e-14
11
514.935283739423
21
-120.0
31
-2.20157486466677e-14
  0
LINE
 8
Layer0
10
436.435283739423
20
-51.0000000000001
30
-6.5059329926543e-15
11
436.435283739423
21
-43.5000000000001
31
-2.76556816117635e-14
  0
LINE
 8
Layer0
10
436.435283739423
20
-51.0000000000001
30
-6.5059329926543e-15
11
497.435283739423
21
-51.0000000000001
31
-6.5059329926543e-15
  0
LINE
 8
Layer0
10
497.435283739423
20
-51.0000000000001
30
-6.5059329926543e-15
11
497.435283739423
21
-43.5000000000001
31
-4.1755514024503e-14
  0
LINE
 8
Layer0
10
422.735283739423
20
-2.85000000000011
30
-3.30312427191205e-14
11
423.009109888468
21
-2.57008390221693
31
-3.30312427191205e-14
  0
LINE
 8
Layer0
10
424.147415773779
20
-5.23492424049186
30
-3.34718624820186e-14
11
423.755860876017
21
-5.23923048454142
31
-3.25906229562223e-14
  0
LINE
 8
Layer0
10
424.524514223964
20
-5.12942286340611
30
-3.20618792407446e-14
11
424.147415773779
21
-5.23492424049186
31
-3.34718624820186e-14
  0
LINE
 8
Layer0
10
424.861457590377
20
-4.92991609778329
30
-3.18856313355854e-14
11
424.524514223964
21
-5.12942286340611
31
-3.20618792407446e-14
  0
LINE
 8
Layer0
10
509.035283739423
20
-2.55000000000011
30
-3.25906229562223e-14
11
509.376533349886
21
-2.35795186786097
31
-3.29431187665408e-14
  0
LINE
 8
Layer0
10
508.75536764164
20
-2.82382614904551
30
-3.31193666717001e-14
11
509.035283739423
21
-2.55000000000011
31
-3.25906229562223e-14
  0
LINE
 8
Layer0
10
508.738459575066
20
-2.85238187673253
30
-3.25024990036427e-14
11
508.75536764164
21
-2.82382614904551
31
-3.31193666717001e-14
  0
LINE
 8
Layer0
10
508.555860876017
20
-3.1607695154588
30
-3.11806397149484e-14
11
508.738459575066
21
-2.85238187673253
31
-3.25024990036427e-14
  0
LINE
 8
Layer0
10
508.450359498931
20
-3.53786796564415
30
-3.25024990036427e-14
11
508.555860876017
21
-3.1607695154588
31
-3.11806397149484e-14
  0
LINE
 8
Layer0
10
607.424514223964
20
-3.57057713659407
30
8.8276347561999e-15
11
607.420207979915
21
-3.96213203435603
31
9.53262637683687e-15
  0
LINE
 8
Layer0
10
599.314706602829
20
-115.660769515459
30
3.15636145217423e-14
11
599.420207979915
21
-116.037867965644
31
2.59236815566465e-14
  0
LINE
 8
Layer0
10
605.009109888468
20
-4.92991609778327
30
8.8276347561999e-15
11
604.735283739423
21
-4.65000000000007
31
1.09426096181108e-14
  0
LINE
 8
Layer0
10
606.835283739423
20
-4.95000000000007
30
1.16476012387478e-14
11
606.49403412896
21
-5.14204813213923
31
9.00388266135914e-15
  0
LINE
 8
Layer0
10
607.135283739423
20
-2.85000000000007
30
9.26825451909801e-15
11
607.327331871562
21
-3.19124961046293
31
9.88512218715536e-15
  0
LINE
 8
Layer0
10
526.446053254882
20
-116.429422863406
30
2.31037150740986e-14
11
526.450359498931
21
-116.037867965644
31
3.72035474868381e-14
  0
LINE
 8
Layer0
10
593.435283739423
20
-120.0
30
2.02837485915507e-14
11
610.935283739423
21
-120.0
31
2.02837485915507e-14
  0
LINE
 8
Layer0
10
593.435283739423
20
-112.5
30
5.13033798995776e-14
11
593.435283739423
21
-120.0
31
2.02837485915507e-14
  0
LINE
 8
Layer0
10
532.435283739423
20
-112.5
30
4.84834134170297e-14
11
593.435283739423
21
-112.5
31
5.13033798995776e-14
  0
LINE
 8
Layer0
10
532.435283739423
20
-120.0
30
2.31037150740986e-14
11
532.435283739423
21
-112.5
31
4.84834134170297e-14
  0
LINE
 8
Layer0
10
514.935283739423
20
-120.0
30
-2.20157486466677e-14
11
532.435283739423
21
-120.0
31
2.31037150740986e-14
 0
ENDSEC
 0
EOF
