 0
SECTION
 2
ENTITIES
  0
LINE
 8
Layer0
10
864.929554371352
20
114.760419505287
30
0.0
11
864.330151852628
21
116.20750523343
31
0.0
  0
LINE
 8
Layer0
10
833.58108505034
20
14.4119503485262
30
0.0
11
835.133999310712
21
14.2075052850488
31
0.0
  0
LINE
 8
Layer0
10
889.133999400119
20
40.2075052850488
30
0.0
11
888.350842246798
21
40.2588361168059
31
0.0
  0
LINE
 8
Layer0
10
892.133999400119
20
94.0113528623421
30
0.0
11
891.430099994309
21
93.6642280899811
31
0.0
  0
LINE
 8
Layer0
10
883.590722205051
20
43.9114046908582
30
0.0
11
883.338444442385
21
44.6545910144336
31
0.0
  0
LINE
 8
Layer0
10
799.355289911803
20
36.6332811415633
30
0.0
11
799.673706036286
21
37.3872335014532
31
0.0
  0
LINE
 8
Layer0
10
800.101440467171
20
95.3294565344966
30
0.0
11
800.633999400118
21
94.7075052850488
31
0.0
  0
LINE
 8
Layer0
10
809.491786116689
20
91.5652920016194
30
0.0
11
810.015595346034
21
90.961473328505
31
0.0
  0
LINE
 8
Layer0
10
884.101440467171
20
91.0855540356009
30
0.0
11
883.670968964508
21
90.3890365131031
31
0.0
  0
LINE
 8
Layer0
10
802.708223543604
20
39.9862147733645
30
0.0
11
803.502158671819
21
40.1849608462831
31
0.0
  0
LINE
 8
Layer0
10
829.937846992313
20
23.2075053108583
30
0.0
11
829.338444452026
21
21.7604195916474
31
0.0
  0
LINE
 8
Layer0
10
888.350842246798
20
40.2588361168059
30
0.0
11
887.581085129504
21
40.4119503273143
31
0.0
  0
LINE
 8
Layer0
10
830.891358728805
20
24.4501459879731
30
0.0
11
829.937846992313
21
23.2075053108583
31
0.0
  0
LINE
 8
Layer0
10
816.633999400119
20
14.2075052850488
30
0.0
11
816.633999400119
21
6.70750528504876
31
0.0
  0
LINE
 8
Layer0
10
877.633999400119
20
14.2075052850488
30
0.0
11
877.633999400119
21
6.70750528504876
31
0.0
  0
LINE
 8
Layer0
10
829.338444428886
20
114.760419505287
30
0.0
11
829.93784694761
21
116.20750523343
31
0.0
  0
LINE
 8
Layer0
10
894.929554357853
20
35.7604195556639
30
0.0
11
894.677276595187
21
36.5036058792393
31
0.0
  0
LINE
 8
Layer0
10
835.133999400119
20
26.2075052850487
30
0.0
11
833.5810851367
21
26.0030602447115
31
0.0
  0
LINE
 8
Layer0
10
895.133999400119
20
14.2075052850488
30
0.0
11
877.633999400119
21
14.2075052850488
31
0.0
  0
LINE
 8
Layer0
10
864.330151807924
20
110.207505259239
30
0.0
11
864.929554348211
21
111.65459097845
31
0.0
  0
LINE
 8
Layer0
10
859.133999400119
20
26.2075052850487
30
0.0
11
860.686913663537
21
26.0030602447115
31
0.0
  0
LINE
 8
Layer0
10
887.581085129504
20
40.4119503273143
30
0.0
11
886.837898805928
21
40.664228089981
31
0.0
  0
LINE
 8
Layer0
10
883.154656314797
20
88.840098563972
30
0.0
11
883.081123003429
21
88.0246016443756
31
0.0
  0
LINE
 8
Layer0
10
883.081123003429
20
88.0246016443756
30
0.0
11
883.133999400119
21
87.2075052850488
31
0.0
  0
LINE
 8
Layer0
10
810.59702983573
20
43.0259740569945
30
0.0
11
810.915152349493
21
43.7804543019239
31
0.0
  0
LINE
 8
Layer0
10
895.082668568362
20
34.9906624383691
30
0.0
11
894.929554357853
21
35.7604195556639
31
0.0
  0
LINE
 8
Layer0
10
877.633999400119
20
119.207505285049
30
0.0
11
877.633999400119
21
126.707505285049
31
0.0
  0
LINE
 8
Layer0
10
799.154656314797
20
97.5749120061255
30
0.0
11
799.352846450744
21
96.7804543019239
31
0.0
  0
LINE
 8
Layer0
10
829.93784694761
20
17.2075053366679
30
0.0
11
830.891358665584
21
15.9648646453447
31
0.0
  0
LINE
 8
Layer0
10
860.686913663537
20
107.411950325386
30
0.0
11
862.133999387214
21
108.011352854891
31
0.0
  0
LINE
 8
Layer0
10
799.154656314797
20
97.5749120061255
30
0.0
11
799.133999400118
21
97.8040007004239
31
0.0
  0
LINE
 8
Layer0
10
835.133999310712
20
14.2075052850488
30
0.0
11
859.133999489526
21
14.2075052850488
31
0.0
  0
LINE
 8
Layer0
10
895.133999400119
20
14.2075052850488
30
0.0
11
895.133999400119
21
34.2075052850487
31
0.0
  0
LINE
 8
Layer0
10
860.686913663537
20
26.0030602447115
30
0.0
11
862.133999387214
21
25.403657715206
31
0.0
  0
LINE
 8
Layer0
10
886.706948416994
20
92.9886582344233
30
0.0
11
885.952468172064
21
92.6705357206599
31
0.0
  0
LINE
 8
Layer0
10
895.133999400119
20
99.2075052850487
30
0.0
11
895.082668568362
21
98.4243481317285
31
0.0
  0
LINE
 8
Layer0
10
891.430099994309
20
39.7507824801164
30
0.0
11
890.686913670734
21
40.0030602427831
31
0.0
  0
LINE
 8
Layer0
10
805.951095759445
20
40.1546288883594
30
0.0
11
806.766592679042
21
40.2281621997273
31
0.0
  0
LINE
 8
Layer0
10
805.933341903067
20
93.2025392273062
30
0.0
11
806.723975053437
21
93.0847584127177
31
0.0
  0
LINE
 8
Layer0
10
892.786567974171
20
94.4473852433014
30
0.0
11
892.133999400119
21
94.0113528623421
31
0.0
  0
LINE
 8
Layer0
10
734.891358728804
20
108.964864582124
30
0.0
11
733.937846992313
21
110.207505259239
31
0.0
  0
LINE
 8
Layer0
10
733.937846992313
20
110.207505259239
30
0.0
11
733.338444452026
21
111.65459097845
31
0.0
  0
LINE
 8
Layer0
10
733.338444452026
20
111.65459097845
30
0.0
11
733.133999400118
21
113.207505240345
31
0.0
  0
LINE
 8
Layer0
10
733.133999400118
20
113.207505240345
30
0.0
11
733.338444428886
21
114.760419505287
31
0.0
  0
LINE
 8
Layer0
10
733.338444428886
20
114.760419505287
30
0.0
11
733.937846947609
21
116.20750523343
31
0.0
  0
LINE
 8
Layer0
10
733.937846947609
20
116.20750523343
30
0.0
11
734.891358665584
21
117.450145924753
31
0.0
  0
LINE
 8
Layer0
10
734.891358665584
20
117.450145924753
30
0.0
11
736.133999335594
21
118.403657670502
31
0.0
  0
LINE
 8
Layer0
10
736.133999335594
20
118.403657670502
30
0.0
11
737.581085050339
21
119.003060221571
31
0.0
  0
LINE
 8
Layer0
10
737.581085050339
20
119.003060221571
30
0.0
11
739.133999310711
21
119.207505285049
31
0.0
  0
LINE
 8
Layer0
10
798.929554357853
20
97.6545910144336
30
0.0
11
798.677276595186
21
96.9114046908582
31
0.0
  0
LINE
 8
Layer0
10
799.082668568361
20
98.4243481317285
30
0.0
11
798.929554357853
21
97.6545910144336
31
0.0
  0
LINE
 8
Layer0
10
799.133999400118
20
99.2075052850487
30
0.0
11
799.082668568361
21
98.4243481317285
31
0.0
  0
LINE
 8
Layer0
10
764.686913749897
20
14.4119503485262
30
0.0
11
763.133999489525
21
14.2075052850488
31
0.0
  0
LINE
 8
Layer0
10
739.133999310711
20
14.2075052850488
30
0.0
11
763.133999489525
21
14.2075052850488
31
0.0
  0
LINE
 8
Layer0
10
737.581085050339
20
14.4119503485262
30
0.0
11
739.133999310711
21
14.2075052850488
31
0.0
  0
LINE
 8
Layer0
10
736.133999335594
20
15.011352899595
30
0.0
11
737.581085050339
21
14.4119503485262
31
0.0
  0
LINE
 8
Layer0
10
734.891358665584
20
15.9648646453447
30
0.0
11
736.133999335594
21
15.011352899595
31
0.0
  0
LINE
 8
Layer0
10
797.376640087238
20
94.9648645979295
30
0.0
11
796.786567974171
21
94.4473852433014
31
0.0
  0
LINE
 8
Layer0
10
797.894119441866
20
95.5549367109964
30
0.0
11
797.376640087238
21
94.9648645979295
31
0.0
  0
LINE
 8
Layer0
10
798.330151822825
20
96.2075052850488
30
0.0
11
797.894119441866
21
95.5549367109964
31
0.0
  0
LINE
 8
Layer0
10
798.677276595186
20
96.9114046908582
30
0.0
11
798.330151822825
21
96.2075052850488
31
0.0
  0
LINE
 8
Layer0
10
733.937846947609
20
17.2075053366679
30
0.0
11
734.891358665584
21
15.9648646453447
31
0.0
  0
LINE
 8
Layer0
10
733.338444428886
20
18.6545910648106
30
0.0
11
733.937846947609
21
17.2075053366679
31
0.0
  0
LINE
 8
Layer0
10
733.133999400118
20
20.2075053297523
30
0.0
11
733.338444428886
21
18.6545910648106
31
0.0
  0
LINE
 8
Layer0
10
733.338444452026
20
21.7604195916474
30
0.0
11
733.133999400118
21
20.2075053297523
31
0.0
  0
LINE
 8
Layer0
10
733.937846992313
20
23.2075053108583
30
0.0
11
733.338444452026
21
21.7604195916474
31
0.0
  0
LINE
 8
Layer0
10
734.891358728804
20
24.4501459879731
30
0.0
11
733.937846992313
21
23.2075053108583
31
0.0
  0
LINE
 8
Layer0
10
736.133999413023
20
25.403657715206
30
0.0
11
734.891358728804
21
24.4501459879731
31
0.0
  0
LINE
 8
Layer0
10
737.5810851367
20
26.0030602447115
30
0.0
11
736.133999413023
21
25.403657715206
31
0.0
  0
LINE
 8
Layer0
10
739.133999400118
20
26.2075052850487
30
0.0
11
737.5810851367
21
26.0030602447115
31
0.0
  0
LINE
 8
Layer0
10
739.133999400118
20
26.2075052850487
30
0.0
11
763.133999400118
21
26.2075052850487
31
0.0
  0
LINE
 8
Layer0
10
763.133999400118
20
26.2075052850487
30
0.0
11
764.686913663537
21
26.0030602447115
31
0.0
  0
LINE
 8
Layer0
10
764.686913663537
20
26.0030602447115
30
0.0
11
766.133999387214
21
25.403657715206
31
0.0
  0
LINE
 8
Layer0
10
766.133999387214
20
25.403657715206
30
0.0
11
767.376640071433
21
24.4501459879731
31
0.0
  0
LINE
 8
Layer0
10
767.376640071433
20
24.4501459879731
30
0.0
11
768.330151807924
21
23.2075053108583
31
0.0
  0
LINE
 8
Layer0
10
768.330151807924
20
23.2075053108583
30
0.0
11
768.929554348211
21
21.7604195916474
31
0.0
  0
LINE
 8
Layer0
10
768.929554348211
20
21.7604195916474
30
0.0
11
769.133999400118
21
20.2075053297522
31
0.0
  0
LINE
 8
Layer0
10
769.133999400118
20
20.2075053297522
30
0.0
11
768.929554371351
21
18.6545910648106
31
0.0
  0
LINE
 8
Layer0
10
768.929554371351
20
18.6545910648106
30
0.0
11
768.330151852627
21
17.2075053366679
31
0.0
  0
LINE
 8
Layer0
10
768.330151852627
20
17.2075053366679
30
0.0
11
767.376640134653
21
15.9648646453447
31
0.0
  0
LINE
 8
Layer0
10
767.376640134653
20
15.9648646453447
30
0.0
11
766.133999464642
21
15.011352899595
31
0.0
  0
LINE
 8
Layer0
10
766.133999464642
20
15.011352899595
30
0.0
11
764.686913749897
21
14.4119503485262
31
0.0
  0
LINE
 8
Layer0
10
763.133999489525
20
119.207505285049
30
0.0
11
739.133999310711
21
119.207505285049
31
0.0
  0
LINE
 8
Layer0
10
764.686913749897
20
119.003060221571
30
0.0
11
763.133999489525
21
119.207505285049
31
0.0
  0
LINE
 8
Layer0
10
766.133999464642
20
118.403657670502
30
0.0
11
764.686913749897
21
119.003060221571
31
0.0
  0
LINE
 8
Layer0
10
767.376640134653
20
117.450145924753
30
0.0
11
766.133999464642
21
118.403657670502
31
0.0
  0
LINE
 8
Layer0
10
768.330151852627
20
116.20750523343
30
0.0
11
767.376640134653
21
117.450145924753
31
0.0
  0
LINE
 8
Layer0
10
768.929554371351
20
114.760419505287
30
0.0
11
768.330151852627
21
116.20750523343
31
0.0
  0
LINE
 8
Layer0
10
769.133999400118
20
113.207505240345
30
0.0
11
768.929554371351
21
114.760419505287
31
0.0
  0
LINE
 8
Layer0
10
768.929554348211
20
111.65459097845
30
0.0
11
769.133999400118
21
113.207505240345
31
0.0
  0
LINE
 8
Layer0
10
768.330151807924
20
110.207505259239
30
0.0
11
768.929554348211
21
111.65459097845
31
0.0
  0
LINE
 8
Layer0
10
767.376640071433
20
108.964864582124
30
0.0
11
768.330151807924
21
110.207505259239
31
0.0
  0
LINE
 8
Layer0
10
766.133999387214
20
108.011352854891
30
0.0
11
767.376640071433
21
108.964864582124
31
0.0
  0
LINE
 8
Layer0
10
764.686913663537
20
107.411950325386
30
0.0
11
766.133999387214
21
108.011352854891
31
0.0
  0
LINE
 8
Layer0
10
763.133999400118
20
107.207505285049
30
0.0
11
764.686913663537
21
107.411950325386
31
0.0
  0
LINE
 8
Layer0
10
739.133999400118
20
107.207505285049
30
0.0
11
763.133999400118
21
107.207505285049
31
0.0
  0
LINE
 8
Layer0
10
739.133999400118
20
107.207505285049
30
0.0
11
737.5810851367
21
107.411950325386
31
0.0
  0
LINE
 8
Layer0
10
737.5810851367
20
107.411950325386
30
0.0
11
736.133999413023
21
108.011352854892
31
0.0
  0
LINE
 8
Layer0
10
736.133999413023
20
108.011352854892
30
0.0
11
734.891358728804
21
108.964864582124
31
0.0
  0
LINE
 8
Layer0
10
795.430099994309
20
93.6642280899811
30
0.0
11
794.686913670733
21
93.4119503273144
31
0.0
  0
LINE
 8
Layer0
10
796.133999400118
20
94.0113528623421
30
0.0
11
795.430099994309
21
93.6642280899811
31
0.0
  0
LINE
 8
Layer0
10
796.786567974171
20
94.4473852433014
30
0.0
11
796.133999400118
21
94.0113528623421
31
0.0
  0
LINE
 8
Layer0
10
781.633999400118
20
119.207505285049
30
0.0
11
799.133999400118
21
119.207505285049
31
0.0
  0
LINE
 8
Layer0
10
781.633999400118
20
119.207505285049
30
0.0
11
781.633999400118
21
126.707505285049
31
0.0
  0
LINE
 8
Layer0
10
781.633999400118
20
126.707505285049
30
0.0
11
720.633999400118
21
126.707505285049
31
0.0
  0
LINE
 8
Layer0
10
709.933341903067
20
93.2025392273062
30
0.0
11
710.723975053437
21
93.0847584127177
31
0.0
  0
LINE
 8
Layer0
10
720.633999400118
20
119.207505285049
30
0.0
11
720.633999400118
21
126.707505285049
31
0.0
  0
LINE
 8
Layer0
10
703.133999400118
20
119.207505285049
30
0.0
11
720.633999400118
21
119.207505285049
31
0.0
  0
LINE
 8
Layer0
10
703.133999400118
20
99.2075052850487
30
0.0
11
703.133999400118
21
119.207505285049
31
0.0
  0
LINE
 8
Layer0
10
703.133999400118
20
97.8040007004239
30
0.0
11
703.133999400118
21
99.2075052850487
31
0.0
  0
LINE
 8
Layer0
10
703.154656314797
20
97.5749120061255
30
0.0
11
703.133999400118
21
97.8040007004239
31
0.0
  0
LINE
 8
Layer0
10
703.154656314797
20
97.5749120061255
30
0.0
11
703.352846450744
21
96.7804543019239
31
0.0
  0
LINE
 8
Layer0
10
703.352846450744
20
96.7804543019239
30
0.0
11
703.670968964507
21
96.0259740569944
31
0.0
  0
LINE
 8
Layer0
10
703.670968964507
20
96.0259740569944
30
0.0
11
704.101440467171
21
95.3294565344966
31
0.0
  0
LINE
 8
Layer0
10
704.101440467171
20
95.3294565344966
30
0.0
11
704.633999400118
21
94.7075052850488
31
0.0
  0
LINE
 8
Layer0
10
704.633999400118
20
94.7075052850488
30
0.0
11
705.255950649566
21
94.1749463521012
31
0.0
  0
LINE
 8
Layer0
10
705.255950649566
20
94.1749463521012
30
0.0
11
705.952468172064
21
93.7444748494376
31
0.0
  0
LINE
 8
Layer0
10
705.952468172064
20
93.7444748494376
30
0.0
11
706.706948416993
21
93.4263523356742
31
0.0
  0
LINE
 8
Layer0
10
706.706948416993
20
93.4263523356742
30
0.0
11
707.501406121195
21
93.2281621997273
31
0.0
  0
LINE
 8
Layer0
10
707.501406121195
20
93.2281621997273
30
0.0
11
708.316903040792
21
93.1546288883594
31
0.0
  0
LINE
 8
Layer0
10
708.316903040792
20
93.1546288883594
30
0.0
11
709.133999400118
21
93.2075052850488
31
0.0
  0
LINE
 8
Layer0
10
709.133999400118
20
93.2075052850488
30
0.0
11
709.933341903067
21
93.2025392273062
31
0.0
  0
LINE
 8
Layer0
10
710.723975053437
20
93.0847584127177
30
0.0
11
711.490057036003
21
92.8565228003882
31
0.0
  0
LINE
 8
Layer0
10
711.490057036003
20
92.8565228003882
30
0.0
11
712.216237964149
21
92.5224055180654
31
0.0
  0
LINE
 8
Layer0
10
712.216237964149
20
92.5224055180654
30
0.0
11
712.887967443575
21
92.0891012309648
31
0.0
  0
LINE
 8
Layer0
10
712.887967443575
20
92.0891012309648
30
0.0
11
713.491786116689
21
91.5652920016194
31
0.0
  0
LINE
 8
Layer0
10
713.491786116689
20
91.5652920016194
30
0.0
11
714.015595346034
21
90.961473328505
31
0.0
  0
LINE
 8
Layer0
10
714.015595346034
20
90.961473328505
30
0.0
11
714.448899633135
21
90.2897438490794
31
0.0
  0
LINE
 8
Layer0
10
714.448899633135
20
90.2897438490794
30
0.0
11
714.783016915458
21
89.5635629209339
31
0.0
  0
LINE
 8
Layer0
10
714.783016915458
20
89.5635629209339
30
0.0
11
715.011252527787
21
88.797480938367
31
0.0
  0
LINE
 8
Layer0
10
715.011252527787
20
88.797480938367
30
0.0
11
715.129033342376
21
88.006847787997
31
0.0
  0
LINE
 8
Layer0
10
715.129033342376
20
88.006847787997
30
0.0
11
715.133999400118
21
87.2075052850488
31
0.0
  0
LINE
 8
Layer0
10
715.133999400118
20
87.2075052850488
30
0.0
11
715.133999400118
21
46.2075052850488
31
0.0
  0
LINE
 8
Layer0
10
715.186875796808
20
45.3904089257219
30
0.0
11
715.133999400118
21
46.2075052850488
31
0.0
  0
LINE
 8
Layer0
10
715.11334248544
20
44.5749120061255
30
0.0
11
715.186875796808
21
45.3904089257219
31
0.0
  0
LINE
 8
Layer0
10
714.915152349493
20
43.7804543019239
30
0.0
11
715.11334248544
21
44.5749120061255
31
0.0
  0
LINE
 8
Layer0
10
714.597029835729
20
43.0259740569945
30
0.0
11
714.915152349493
21
43.7804543019239
31
0.0
  0
LINE
 8
Layer0
10
714.166558333066
20
42.3294565344966
30
0.0
11
714.597029835729
21
43.0259740569945
31
0.0
  0
LINE
 8
Layer0
10
713.633999400118
20
41.7075052850487
30
0.0
11
714.166558333066
21
42.3294565344966
31
0.0
  0
LINE
 8
Layer0
10
713.012048150671
20
41.1749463521012
30
0.0
11
713.633999400118
21
41.7075052850487
31
0.0
  0
LINE
 8
Layer0
10
712.315530628173
20
40.7444748494376
30
0.0
11
713.012048150671
21
41.1749463521012
31
0.0
  0
LINE
 8
Layer0
10
711.561050383243
20
40.4263523356742
30
0.0
11
712.315530628173
21
40.7444748494376
31
0.0
  0
LINE
 8
Layer0
10
710.766592679042
20
40.2281621997273
30
0.0
11
711.561050383243
21
40.4263523356742
31
0.0
  0
LINE
 8
Layer0
10
709.951095759445
20
40.1546288883594
30
0.0
11
710.766592679042
21
40.2281621997273
31
0.0
  0
LINE
 8
Layer0
10
709.133999400118
20
40.2075052850488
30
0.0
11
709.951095759445
21
40.1546288883594
31
0.0
  0
LINE
 8
Layer0
10
708.317207559789
20
40.2593133817749
30
0.0
11
709.133999400118
21
40.2075052850488
31
0.0
  0
LINE
 8
Layer0
10
707.502158671819
20
40.1849608462831
30
0.0
11
708.317207559789
21
40.2593133817749
31
0.0
  0
LINE
 8
Layer0
10
706.708223543604
20
39.9862147733645
30
0.0
11
707.502158671819
21
40.1849608462831
31
0.0
  0
LINE
 8
Layer0
10
705.954271183714
20
39.6677986488808
30
0.0
11
706.708223543604
21
39.9862147733645
31
0.0
  0
LINE
 8
Layer0
10
705.258220352808
20
39.2372800893394
30
0.0
11
705.954271183714
21
39.6677986488808
31
0.0
  0
LINE
 8
Layer0
10
704.636613698549
20
38.7048909866179
30
0.0
11
705.258220352808
21
39.2372800893394
31
0.0
  0
LINE
 8
Layer0
10
704.104224595828
20
38.0832843323595
30
0.0
11
704.636613698549
21
38.7048909866179
31
0.0
  0
LINE
 8
Layer0
10
703.673706036286
20
37.3872335014532
30
0.0
11
704.104224595828
21
38.0832843323595
31
0.0
  0
LINE
 8
Layer0
10
703.355289911803
20
36.6332811415633
30
0.0
11
703.673706036286
21
37.3872335014532
31
0.0
  0
LINE
 8
Layer0
10
703.138872937326
20
35.6456384475044
30
0.0
11
703.355289911803
21
36.6332811415633
31
0.0
  0
LINE
 8
Layer0
10
703.133999400118
20
34.2075052850488
30
0.0
11
703.138872937326
21
35.6456384475044
31
0.0
  0
LINE
 8
Layer0
10
703.133999400118
20
14.2075052850488
30
0.0
11
703.133999400118
21
34.2075052850488
31
0.0
  0
LINE
 8
Layer0
10
703.133999400118
20
14.2075052850488
30
0.0
11
720.633999400118
21
14.2075052850488
31
0.0
  0
LINE
 8
Layer0
10
720.633999400118
20
14.2075052850488
30
0.0
11
720.633999400118
21
6.70750528504876
31
0.0
  0
LINE
 8
Layer0
10
720.633999400118
20
6.70750528504876
30
0.0
11
781.633999400118
21
6.70750528504876
31
0.0
  0
LINE
 8
Layer0
10
781.633999400118
20
14.2075052850488
30
0.0
11
781.633999400118
21
6.70750528504876
31
0.0
  0
LINE
 8
Layer0
10
799.133999400118
20
14.2075052850488
30
0.0
11
781.633999400118
21
14.2075052850488
31
0.0
  0
LINE
 8
Layer0
10
799.133999400118
20
34.2075052850487
30
0.0
11
799.082668568361
21
34.9906624383691
31
0.0
  0
LINE
 8
Layer0
10
799.082668568361
20
34.9906624383691
30
0.0
11
798.929554357853
21
35.7604195556639
31
0.0
  0
LINE
 8
Layer0
10
798.929554357853
20
35.7604195556639
30
0.0
11
798.677276595186
21
36.5036058792393
31
0.0
  0
LINE
 8
Layer0
10
798.677276595186
20
36.5036058792393
30
0.0
11
798.330151822825
21
37.2075052850488
31
0.0
  0
LINE
 8
Layer0
10
798.330151822825
20
37.2075052850488
30
0.0
11
797.894119441866
21
37.8600738591011
31
0.0
  0
LINE
 8
Layer0
10
797.894119441866
20
37.8600738591011
30
0.0
11
797.376640087238
21
38.450145972168
31
0.0
  0
LINE
 8
Layer0
10
797.376640087238
20
38.450145972168
30
0.0
11
796.786567974171
21
38.9676253267962
31
0.0
  0
LINE
 8
Layer0
10
796.786567974171
20
38.9676253267962
30
0.0
11
796.133999400118
21
39.4036577077554
31
0.0
  0
LINE
 8
Layer0
10
796.133999400118
20
39.4036577077554
30
0.0
11
795.430099994309
21
39.7507824801164
31
0.0
  0
LINE
 8
Layer0
10
795.430099994309
20
39.7507824801164
30
0.0
11
794.686913670733
21
40.0030602427831
31
0.0
  0
LINE
 8
Layer0
10
794.686913670733
20
40.0030602427831
30
0.0
11
793.917156553439
21
40.1561744532916
31
0.0
  0
LINE
 8
Layer0
10
793.917156553439
20
40.1561744532916
30
0.0
11
793.133999400118
21
40.2075052850488
31
0.0
  0
LINE
 8
Layer0
10
793.133999400118
20
40.2075052850488
30
0.0
11
792.350842246798
21
40.2588361168059
31
0.0
  0
LINE
 8
Layer0
10
792.350842246798
20
40.2588361168059
30
0.0
11
791.581085129503
21
40.4119503273143
31
0.0
  0
LINE
 8
Layer0
10
791.581085129503
20
40.4119503273143
30
0.0
11
790.837898805928
21
40.664228089981
31
0.0
  0
LINE
 8
Layer0
10
790.837898805928
20
40.664228089981
30
0.0
11
790.133999400118
21
41.0113528623421
31
0.0
  0
LINE
 8
Layer0
10
790.133999400118
20
41.0113528623421
30
0.0
11
789.481430826066
21
41.4473852433013
31
0.0
  0
LINE
 8
Layer0
10
789.481430826066
20
41.4473852433013
30
0.0
11
788.891358712999
21
41.9648645979295
31
0.0
  0
LINE
 8
Layer0
10
788.891358712999
20
41.9648645979295
30
0.0
11
788.373879358371
21
42.5549367109964
31
0.0
  0
LINE
 8
Layer0
10
788.373879358371
20
42.5549367109964
30
0.0
11
787.937846977412
21
43.2075052850488
31
0.0
  0
LINE
 8
Layer0
10
787.937846977412
20
43.2075052850488
30
0.0
11
787.590722205051
21
43.9114046908582
31
0.0
  0
LINE
 8
Layer0
10
787.590722205051
20
43.9114046908582
30
0.0
11
787.338444442384
21
44.6545910144336
31
0.0
  0
LINE
 8
Layer0
10
787.338444442384
20
44.6545910144336
30
0.0
11
787.185330231876
21
45.4243481317285
31
0.0
  0
LINE
 8
Layer0
10
787.185330231876
20
45.4243481317285
30
0.0
11
787.133999400118
21
46.2075052850488
31
0.0
  0
LINE
 8
Layer0
10
787.133999400118
20
46.2075052850488
30
0.0
11
787.133999400118
21
87.2075052850488
31
0.0
  0
LINE
 8
Layer0
10
787.081123003429
20
88.0246016443756
30
0.0
11
787.133999400118
21
87.2075052850488
31
0.0
  0
LINE
 8
Layer0
10
787.154656314797
20
88.840098563972
30
0.0
11
787.081123003429
21
88.0246016443756
31
0.0
  0
LINE
 8
Layer0
10
787.352846450744
20
89.6345562681736
30
0.0
11
787.154656314797
21
88.840098563972
31
0.0
  0
LINE
 8
Layer0
10
787.670968964507
20
90.3890365131031
30
0.0
11
787.352846450744
21
89.6345562681736
31
0.0
  0
LINE
 8
Layer0
10
788.101440467171
20
91.0855540356009
30
0.0
11
787.670968964507
21
90.3890365131031
31
0.0
  0
LINE
 8
Layer0
10
788.633999400118
20
91.7075052850487
30
0.0
11
788.101440467171
21
91.0855540356009
31
0.0
  0
LINE
 8
Layer0
10
789.255950649566
20
92.2400642179963
30
0.0
11
788.633999400118
21
91.7075052850487
31
0.0
  0
LINE
 8
Layer0
10
789.952468172064
20
92.6705357206599
30
0.0
11
789.255950649566
21
92.2400642179963
31
0.0
  0
LINE
 8
Layer0
10
790.706948416994
20
92.9886582344233
30
0.0
11
789.952468172064
21
92.6705357206599
31
0.0
  0
LINE
 8
Layer0
10
791.501406121195
20
93.1868483703702
30
0.0
11
790.706948416994
21
92.9886582344233
31
0.0
  0
LINE
 8
Layer0
10
792.316903040792
20
93.2603816817381
30
0.0
11
791.501406121195
21
93.1868483703702
31
0.0
  0
LINE
 8
Layer0
10
793.133999400118
20
93.2075052850488
30
0.0
11
792.316903040792
21
93.2603816817381
31
0.0
  0
LINE
 8
Layer0
10
793.917156553439
20
93.2588361168059
30
0.0
11
793.133999400118
21
93.2075052850488
31
0.0
  0
LINE
 8
Layer0
10
794.686913670733
20
93.4119503273144
30
0.0
11
793.917156553439
21
93.2588361168059
31
0.0
  0
LINE
 8
Layer0
10
799.133999400118
20
14.2075052850488
30
0.0
11
799.133999400118
21
34.2075052850487
31
0.0
  0
LINE
 8
Layer0
10
806.766592679042
20
40.2281621997273
30
0.0
11
807.561050383243
21
40.4263523356742
31
0.0
  0
LINE
 8
Layer0
10
835.133999400119
20
107.207505285049
30
0.0
11
833.5810851367
21
107.411950325386
31
0.0
  0
LINE
 8
Layer0
10
887.501406121196
20
93.1868483703702
30
0.0
11
886.706948416994
21
92.9886582344233
31
0.0
  0
LINE
 8
Layer0
10
894.677276595187
20
36.5036058792393
30
0.0
11
894.330151822825
21
37.2075052850488
31
0.0
  0
LINE
 8
Layer0
10
829.338444452026
20
21.7604195916474
30
0.0
11
829.133999400119
21
20.2075053297523
31
0.0
  0
LINE
 8
Layer0
10
894.330151822825
20
96.2075052850488
30
0.0
11
893.894119441866
21
95.5549367109964
31
0.0
  0
LINE
 8
Layer0
10
799.133999400118
20
97.8040007004239
30
0.0
11
799.133999400118
21
99.2075052850487
31
0.0
  0
LINE
 8
Layer0
10
810.783016915458
20
89.5635629209339
30
0.0
11
811.011252527788
21
88.797480938367
31
0.0
  0
LINE
 8
Layer0
10
832.133999335595
20
118.403657670502
30
0.0
11
833.58108505034
21
119.003060221571
31
0.0
  0
LINE
 8
Layer0
10
833.5810851367
20
26.0030602447115
30
0.0
11
832.133999413023
21
25.403657715206
31
0.0
  0
LINE
 8
Layer0
10
883.670968964508
20
90.3890365131031
30
0.0
11
883.352846450744
21
89.6345562681736
31
0.0
  0
LINE
 8
Layer0
10
830.891358665584
20
117.450145924753
30
0.0
11
832.133999335595
21
118.403657670502
31
0.0
  0
LINE
 8
Layer0
10
863.376640071433
20
108.964864582124
30
0.0
11
864.330151807924
21
110.207505259239
31
0.0
  0
LINE
 8
Layer0
10
864.929554348211
20
111.65459097845
30
0.0
11
865.133999400119
21
113.207505240345
31
0.0
  0
LINE
 8
Layer0
10
864.929554371352
20
18.6545910648106
30
0.0
11
864.330151852628
21
17.2075053366679
31
0.0
  0
LINE
 8
Layer0
10
864.330151852628
20
116.20750523343
30
0.0
11
863.376640134653
21
117.450145924753
31
0.0
  0
LINE
 8
Layer0
10
886.837898805928
20
40.664228089981
30
0.0
11
886.133999400119
21
41.0113528623421
31
0.0
  0
LINE
 8
Layer0
10
829.133999400119
20
113.207505240345
30
0.0
11
829.338444428886
21
114.760419505287
31
0.0
  0
LINE
 8
Layer0
10
799.133999400118
20
14.2075052850488
30
0.0
11
816.633999400119
21
14.2075052850488
31
0.0
  0
LINE
 8
Layer0
10
806.723975053437
20
93.0847584127177
30
0.0
11
807.490057036004
21
92.8565228003882
31
0.0
  0
LINE
 8
Layer0
10
799.133999400118
20
119.207505285049
30
0.0
11
816.633999400119
21
119.207505285049
31
0.0
  0
LINE
 8
Layer0
10
883.133999400119
20
46.2075052850488
30
0.0
11
883.133999400119
21
87.2075052850488
31
0.0
  0
LINE
 8
Layer0
10
884.633999400119
20
91.7075052850487
30
0.0
11
884.101440467171
21
91.0855540356009
31
0.0
  0
LINE
 8
Layer0
10
862.133999464643
20
15.011352899595
30
0.0
11
860.686913749898
21
14.4119503485262
31
0.0
  0
LINE
 8
Layer0
10
807.561050383243
20
40.4263523356742
30
0.0
11
808.315530628173
21
40.7444748494377
31
0.0
  0
LINE
 8
Layer0
10
805.133999400119
20
93.2075052850488
30
0.0
11
805.933341903067
21
93.2025392273062
31
0.0
  0
LINE
 8
Layer0
10
811.11334248544
20
44.5749120061255
30
0.0
11
811.186875796808
21
45.3904089257219
31
0.0
  0
LINE
 8
Layer0
10
800.633999400118
20
94.7075052850488
30
0.0
11
801.255950649566
21
94.1749463521012
31
0.0
  0
LINE
 8
Layer0
10
884.891358712999
20
41.9648645979295
30
0.0
11
884.373879358372
21
42.5549367109965
31
0.0
  0
LINE
 8
Layer0
10
810.166558333066
20
42.3294565344966
30
0.0
11
810.59702983573
21
43.0259740569945
31
0.0
  0
LINE
 8
Layer0
10
894.330151822825
20
37.2075052850488
30
0.0
11
893.894119441866
21
37.8600738591011
31
0.0
  0
LINE
 8
Layer0
10
877.633999400119
20
119.207505285049
30
0.0
11
895.133999400119
21
119.207505285049
31
0.0
  0
LINE
 8
Layer0
10
810.915152349493
20
43.7804543019239
30
0.0
11
811.11334248544
21
44.5749120061255
31
0.0
  0
LINE
 8
Layer0
10
865.133999400119
20
113.207505240345
30
0.0
11
864.929554371352
21
114.760419505287
31
0.0
  0
LINE
 8
Layer0
10
885.255950649567
20
92.2400642179963
30
0.0
11
884.633999400119
21
91.7075052850487
31
0.0
  0
LINE
 8
Layer0
10
803.502158671819
20
40.1849608462831
30
0.0
11
804.317207559789
21
40.2593133817749
31
0.0
  0
LINE
 8
Layer0
10
808.315530628173
20
40.7444748494377
30
0.0
11
809.01204815067
21
41.1749463521012
31
0.0
  0
LINE
 8
Layer0
10
799.670968964507
20
96.0259740569944
30
0.0
11
800.101440467171
21
95.3294565344966
31
0.0
  0
LINE
 8
Layer0
10
862.133999387214
20
108.011352854891
30
0.0
11
863.376640071433
21
108.964864582124
31
0.0
  0
LINE
 8
Layer0
10
885.481430826067
20
41.4473852433013
30
0.0
11
884.891358712999
21
41.9648645979295
31
0.0
  0
LINE
 8
Layer0
10
799.133999400118
20
99.2075052850487
30
0.0
11
799.133999400118
21
119.207505285049
31
0.0
  0
LINE
 8
Layer0
10
799.138872937326
20
35.6456384475044
30
0.0
11
799.355289911803
21
36.6332811415633
31
0.0
  0
LINE
 8
Layer0
10
801.954271183714
20
39.6677986488808
30
0.0
11
802.708223543604
21
39.9862147733645
31
0.0
  0
LINE
 8
Layer0
10
884.373879358372
20
42.5549367109965
30
0.0
11
883.937846977412
21
43.2075052850488
31
0.0
  0
LINE
 8
Layer0
10
863.376640134653
20
15.9648646453447
30
0.0
11
862.133999464643
21
15.011352899595
31
0.0
  0
LINE
 8
Layer0
10
885.952468172064
20
92.6705357206599
30
0.0
11
885.255950649567
21
92.2400642179963
31
0.0
  0
LINE
 8
Layer0
10
883.185330231876
20
45.4243481317285
30
0.0
11
883.133999400119
21
46.2075052850488
31
0.0
  0
LINE
 8
Layer0
10
829.338444428886
20
18.6545910648106
30
0.0
11
829.93784694761
21
17.2075053366679
31
0.0
  0
LINE
 8
Layer0
10
809.633999400118
20
41.7075052850487
30
0.0
11
810.166558333066
21
42.3294565344966
31
0.0
  0
LINE
 8
Layer0
10
807.490057036004
20
92.8565228003882
30
0.0
11
808.216237964149
21
92.5224055180654
31
0.0
  0
LINE
 8
Layer0
10
886.133999400119
20
41.0113528623421
30
0.0
11
885.481430826067
21
41.4473852433013
31
0.0
  0
LINE
 8
Layer0
10
800.104224595828
20
38.0832843323595
30
0.0
11
800.636613698549
21
38.7048909866179
31
0.0
  0
LINE
 8
Layer0
10
893.376640087238
20
38.450145972168
30
0.0
11
892.786567974171
21
38.9676253267962
31
0.0
  0
LINE
 8
Layer0
10
883.937846977412
20
43.2075052850488
30
0.0
11
883.590722205051
21
43.9114046908582
31
0.0
  0
LINE
 8
Layer0
10
803.501406121195
20
93.2281621997273
30
0.0
11
804.316903040792
21
93.1546288883594
31
0.0
  0
LINE
 8
Layer0
10
893.894119441866
20
37.8600738591011
30
0.0
11
893.376640087238
21
38.450145972168
31
0.0
  0
LINE
 8
Layer0
10
889.917156553439
20
40.1561744532916
30
0.0
11
889.133999400119
21
40.2075052850488
31
0.0
  0
LINE
 8
Layer0
10
890.686913670734
20
40.0030602427831
30
0.0
11
889.917156553439
21
40.1561744532916
31
0.0
  0
LINE
 8
Layer0
10
893.894119441866
20
95.5549367109964
30
0.0
11
893.376640087238
21
94.9648645979295
31
0.0
  0
LINE
 8
Layer0
10
816.633999400119
20
6.70750528504876
30
0.0
11
877.633999400119
21
6.70750528504876
31
0.0
  0
LINE
 8
Layer0
10
864.330151852628
20
17.2075053366679
30
0.0
11
863.376640134653
21
15.9648646453447
31
0.0
  0
LINE
 8
Layer0
10
864.929554348211
20
21.7604195916474
30
0.0
11
865.133999400119
21
20.2075053297522
31
0.0
  0
LINE
 8
Layer0
10
860.686913749898
20
119.003060221571
30
0.0
11
859.133999489526
21
119.207505285049
31
0.0
  0
LINE
 8
Layer0
10
890.686913670734
20
93.4119503273144
30
0.0
11
889.917156553439
21
93.2588361168059
31
0.0
  0
LINE
 8
Layer0
10
830.891358665584
20
15.9648646453447
30
0.0
11
832.133999335595
21
15.011352899595
31
0.0
  0
LINE
 8
Layer0
10
832.133999335595
20
15.011352899595
30
0.0
11
833.58108505034
21
14.4119503485262
31
0.0
  0
LINE
 8
Layer0
10
895.133999400119
20
99.2075052850487
30
0.0
11
895.133999400119
21
119.207505285049
31
0.0
  0
LINE
 8
Layer0
10
862.133999464643
20
118.403657670502
30
0.0
11
860.686913749898
21
119.003060221571
31
0.0
  0
LINE
 8
Layer0
10
829.133999400119
20
20.2075053297523
30
0.0
11
829.338444428886
21
18.6545910648106
31
0.0
  0
LINE
 8
Layer0
10
859.133999489526
20
119.207505285049
30
0.0
11
835.133999310712
21
119.207505285049
31
0.0
  0
LINE
 8
Layer0
10
811.011252527788
20
88.797480938367
30
0.0
11
811.129033342376
21
88.006847787997
31
0.0
  0
LINE
 8
Layer0
10
863.376640134653
20
117.450145924753
30
0.0
11
862.133999464643
21
118.403657670502
31
0.0
  0
LINE
 8
Layer0
10
877.633999400119
20
126.707505285049
30
0.0
11
816.633999400119
21
126.707505285049
31
0.0
  0
LINE
 8
Layer0
10
892.786567974171
20
38.9676253267962
30
0.0
11
892.133999400119
21
39.4036577077554
31
0.0
  0
LINE
 8
Layer0
10
829.93784694761
20
116.20750523343
30
0.0
11
830.891358665584
21
117.450145924753
31
0.0
  0
LINE
 8
Layer0
10
864.330151807924
20
23.2075053108583
30
0.0
11
864.929554348211
21
21.7604195916474
31
0.0
  0
LINE
 8
Layer0
10
811.133999400119
20
87.2075052850488
30
0.0
11
811.133999400119
21
46.2075052850488
31
0.0
  0
LINE
 8
Layer0
10
892.133999400119
20
39.4036577077554
30
0.0
11
891.430099994309
21
39.7507824801164
31
0.0
  0
LINE
 8
Layer0
10
816.633999400119
20
119.207505285049
30
0.0
11
816.633999400119
21
126.707505285049
31
0.0
  0
LINE
 8
Layer0
10
808.216237964149
20
92.5224055180654
30
0.0
11
808.887967443575
21
92.0891012309648
31
0.0
  0
LINE
 8
Layer0
10
829.937846992313
20
110.207505259239
30
0.0
11
829.338444452026
21
111.65459097845
31
0.0
  0
LINE
 8
Layer0
10
801.952468172064
20
93.7444748494376
30
0.0
11
802.706948416994
21
93.4263523356742
31
0.0
  0
LINE
 8
Layer0
10
811.129033342376
20
88.006847787997
30
0.0
11
811.133999400119
21
87.2075052850488
31
0.0
  0
LINE
 8
Layer0
10
810.448899633135
20
90.2897438490794
30
0.0
11
810.783016915458
21
89.5635629209339
31
0.0
  0
LINE
 8
Layer0
10
810.015595346034
20
90.961473328505
30
0.0
11
810.448899633135
21
90.2897438490794
31
0.0
  0
LINE
 8
Layer0
10
860.686913749898
20
14.4119503485262
30
0.0
11
859.133999489526
21
14.2075052850488
31
0.0
  0
LINE
 8
Layer0
10
889.917156553439
20
93.2588361168059
30
0.0
11
889.133999400119
21
93.2075052850488
31
0.0
  0
LINE
 8
Layer0
10
801.258220352808
20
39.2372800893394
30
0.0
11
801.954271183714
21
39.6677986488808
31
0.0
  0
LINE
 8
Layer0
10
799.673706036286
20
37.3872335014532
30
0.0
11
800.104224595828
21
38.0832843323595
31
0.0
  0
LINE
 8
Layer0
10
865.133999400119
20
20.2075053297522
30
0.0
11
864.929554371352
21
18.6545910648106
31
0.0
  0
LINE
 8
Layer0
10
811.186875796808
20
45.3904089257219
30
0.0
11
811.133999400119
21
46.2075052850488
31
0.0
  0
LINE
 8
Layer0
10
859.133999400119
20
107.207505285049
30
0.0
11
860.686913663537
21
107.411950325386
31
0.0
  0
LINE
 8
Layer0
10
833.58108505034
20
119.003060221571
30
0.0
11
835.133999310712
21
119.207505285049
31
0.0
  0
LINE
 8
Layer0
10
799.133999400118
20
34.2075052850487
30
0.0
11
799.138872937326
21
35.6456384475044
31
0.0
  0
LINE
 8
Layer0
10
829.338444452026
20
111.65459097845
30
0.0
11
829.133999400119
21
113.207505240345
31
0.0
  0
LINE
 8
Layer0
10
808.887967443575
20
92.0891012309648
30
0.0
11
809.491786116689
21
91.5652920016194
31
0.0
  0
LINE
 8
Layer0
10
800.636613698549
20
38.7048909866179
30
0.0
11
801.258220352808
21
39.2372800893394
31
0.0
  0
LINE
 8
Layer0
10
889.133999400119
20
93.2075052850488
30
0.0
11
888.316903040792
21
93.2603816817381
31
0.0
  0
LINE
 8
Layer0
10
895.082668568362
20
98.4243481317285
30
0.0
11
894.929554357853
21
97.6545910144336
31
0.0
  0
LINE
 8
Layer0
10
894.929554357853
20
97.6545910144336
30
0.0
11
894.677276595187
21
96.9114046908582
31
0.0
  0
LINE
 8
Layer0
10
862.133999387214
20
25.403657715206
30
0.0
11
863.376640071433
21
24.4501459879731
31
0.0
  0
LINE
 8
Layer0
10
804.317207559789
20
40.2593133817749
30
0.0
11
805.133999400119
21
40.2075052850488
31
0.0
  0
LINE
 8
Layer0
10
895.133999400119
20
34.2075052850487
30
0.0
11
895.082668568362
21
34.9906624383691
31
0.0
  0
LINE
 8
Layer0
10
830.891358728805
20
108.964864582124
30
0.0
11
829.937846992313
21
110.207505259239
31
0.0
  0
LINE
 8
Layer0
10
802.706948416994
20
93.4263523356742
30
0.0
11
803.501406121195
21
93.2281621997273
31
0.0
  0
LINE
 8
Layer0
10
888.316903040792
20
93.2603816817381
30
0.0
11
887.501406121196
21
93.1868483703702
31
0.0
  0
LINE
 8
Layer0
10
809.01204815067
20
41.1749463521012
30
0.0
11
809.633999400118
21
41.7075052850487
31
0.0
  0
LINE
 8
Layer0
10
835.133999400119
20
107.207505285049
30
0.0
11
859.133999400119
21
107.207505285049
31
0.0
  0
LINE
 8
Layer0
10
804.316903040792
20
93.1546288883594
30
0.0
11
805.133999400119
21
93.2075052850488
31
0.0
  0
LINE
 8
Layer0
10
801.255950649566
20
94.1749463521012
30
0.0
11
801.952468172064
21
93.7444748494376
31
0.0
  0
LINE
 8
Layer0
10
799.352846450744
20
96.7804543019239
30
0.0
11
799.670968964507
21
96.0259740569944
31
0.0
  0
LINE
 8
Layer0
10
805.133999400119
20
40.2075052850488
30
0.0
11
805.951095759445
21
40.1546288883594
31
0.0
  0
LINE
 8
Layer0
10
883.352846450744
20
89.6345562681736
30
0.0
11
883.154656314797
21
88.840098563972
31
0.0
  0
LINE
 8
Layer0
10
832.133999413023
20
108.011352854892
30
0.0
11
830.891358728805
21
108.964864582124
31
0.0
  0
LINE
 8
Layer0
10
891.430099994309
20
93.6642280899811
30
0.0
11
890.686913670734
21
93.4119503273144
31
0.0
  0
LINE
 8
Layer0
10
833.5810851367
20
107.411950325386
30
0.0
11
832.133999413023
21
108.011352854892
31
0.0
  0
LINE
 8
Layer0
10
835.133999400119
20
26.2075052850487
30
0.0
11
859.133999400119
21
26.2075052850487
31
0.0
  0
LINE
 8
Layer0
10
863.376640071433
20
24.4501459879731
30
0.0
11
864.330151807924
21
23.2075053108583
31
0.0
  0
LINE
 8
Layer0
10
894.677276595187
20
96.9114046908582
30
0.0
11
894.330151822825
21
96.2075052850488
31
0.0
  0
LINE
 8
Layer0
10
832.133999413023
20
25.403657715206
30
0.0
11
830.891358728805
21
24.4501459879731
31
0.0
  0
LINE
 8
Layer0
10
883.338444442385
20
44.6545910144336
30
0.0
11
883.185330231876
21
45.4243481317285
31
0.0
  0
LINE
 8
Layer0
10
893.376640087238
20
94.9648645979295
30
0.0
11
892.786567974171
21
94.4473852433014
31
0.0
 0
ENDSEC
 0
EOF
