999
DXF created by Inkscape
  0
SECTION
  2
HEADER
  9
$ACADVER
  1
AC1014
  9
$HANDSEED
  5
FFFF
  9
$MEASUREMENT
 70
     1
  0
ENDSEC
  0
SECTION
  2
TABLES
  0
TABLE
  2
VPORT
  5
8
330
0
100
AcDbSymbolTable
 70
     4
  0
VPORT
  5
2E
330
8
100
AcDbSymbolTableRecord
100
AcDbViewportTableRecord
  2
*ACTIVE
 70
     0
 10
0.0
 20
0.0
 11
1.0
 21
1.0
 12
210.0
 22
148.5
 13
0.0
 23
0.0
 14
10.0
 24
10.0
 15
10.0
 25
10.0
 16
0.0
 26
0.0
 36
1.0
 17
0.0
 27
0.0
 37
0.0
 40
341.0
 41
1.24
 42
50.0
 43
0.0
 44
0.0
 50
0.0
 51
0.0
 71
     0
 72
   100
 73
     1
 74
     3
 75
     0
 76
     0
 77
     0
 78
     0
  0
ENDTAB
  0
TABLE
  2
LTYPE
  5
5
330
0
100
AcDbSymbolTable
 70
     1
  0
LTYPE
  5
14
330
5
100
AcDbSymbolTableRecord
100
AcDbLinetypeTableRecord
  2
BYBLOCK
 70
     0
  3

 72
    65
 73
     0
 40
0.0
  0
LTYPE
  5
15
330
5
100
AcDbSymbolTableRecord
100
AcDbLinetypeTableRecord
  2
BYLAYER
 70
     0
  3

 72
    65
 73
     0
 40
0.0
  0
LTYPE
  5
16
330
5
100
AcDbSymbolTableRecord
100
AcDbLinetypeTableRecord
  2
CONTINUOUS
 70
     0
  3
Solid line
 72
    65
 73
     0
 40
0.0
  0
ENDTAB
  0
TABLE
  2
LAYER
  5
2
100
AcDbSymbolTable
 70
2
  0
LAYER
  5
50
100
AcDbSymbolTableRecord
100
AcDbLayerTableRecord
  2
0
 70
0
  6
CONTINUOUS
  0
LAYER
  5
51
100
AcDbSymbolTableRecord
100
AcDbLayerTableRecord
  2
Layer_1
 70
0
  6
CONTINUOUS
  0
ENDTAB
  0
TABLE
  2
STYLE
  5
3
330
0
100
AcDbSymbolTable
 70
     1
  0
STYLE
  5
11
330
3
100
AcDbSymbolTableRecord
100
AcDbTextStyleTableRecord
  2
STANDARD
 70
     0
 40
0.0
 41
1.0
 50
0.0
 71
     0
 42
2.5
  3
txt
  4

  0
ENDTAB
  0
TABLE
  2
VIEW
  5
6
330
0
100
AcDbSymbolTable
 70
     0
  0
ENDTAB
  0
TABLE
  2
UCS
  5
7
330
0
100
AcDbSymbolTable
 70
     0
  0
ENDTAB
  0
TABLE
  2
APPID
  5
9
330
0
100
AcDbSymbolTable
 70
     2
  0
APPID
  5
12
330
9
100
AcDbSymbolTableRecord
100
AcDbRegAppTableRecord
  2
ACAD
 70
     0
  0
ENDTAB
  0
TABLE
  2
DIMSTYLE
  5
A
330
0
100
AcDbSymbolTable
 70
     1
  0
DIMSTYLE
105
27
330
A
100
AcDbSymbolTableRecord
100
AcDbDimStyleTableRecord
  2
ISO-25
 70
     0
  3

  4

  5

  6

  7

 40
1.0
 41
2.5
 42
0.625
 43
3.75
 44
1.25
 45
0.0
 46
0.0
 47
0.0
 48
0.0
140
2.5
141
2.5
142
0.0
143
0.03937007874016
144
1.0
145
0.0
146
1.0
147
0.625
 71
     0
 72
     0
 73
     0
 74
     0
 75
     0
 76
     0
 77
     1
 78
     8
170
     0
171
     3
172
     1
173
     0
174
     0
175
     0
176
     0
177
     0
178
     0
270
     2
271
     2
272
     2
273
     2
274
     3
340
11
275
     0
280
     0
281
     0
282
     0
283
     0
284
     8
285
     0
286
     0
287
     3
288
     0
  0
ENDTAB
  0
TABLE
  2
BLOCK_RECORD
  5
1
330
0
100
AcDbSymbolTable
 70
     1
  0
BLOCK_RECORD
  5
1F
330
1
100
AcDbSymbolTableRecord
100
AcDbBlockTableRecord
  2
*MODEL_SPACE
  0
BLOCK_RECORD
  5
1B
330
1
100
AcDbSymbolTableRecord
100
AcDbBlockTableRecord
  2
*PAPER_SPACE
  0
ENDTAB
  0
ENDSEC
  0
SECTION
  2
BLOCKS
  0
BLOCK
  5
20
330
1F
100
AcDbEntity
  8
0
100
AcDbBlockBegin
  2
*MODEL_SPACE
 70
     0
 10
0.0
 20
0.0
 30
0.0
  3
*MODEL_SPACE
  1

  0
ENDBLK
  5
21
330
1F
100
AcDbEntity
  8
0
100
AcDbBlockEnd
  0
BLOCK
  5
1C
330
1B
100
AcDbEntity
 67
     1
  8
0
100
AcDbBlockBegin
  2
*PAPER_SPACE
  1

  0
ENDBLK
  5
1D
330
1B
100
AcDbEntity
 67
     1
  8
0
100
AcDbBlockEnd
  0
ENDSEC
  0
SECTION
  2
ENTITIES
  0
LWPOLYLINE
  5
100
100
AcDbEntity
  8
Layer_1
 62
7
100
AcDbPolyline
 90
105
 70
0
 10
-40.062503
 20
-5.935809
 30
0.0
 10
-39.753187
 20
-5.935809
 30
0.0
 10
-39.443872
 20
-5.935809
 30
0.0
 10
-39.134556
 20
-5.935809
 30
0.0
 10
-38.825241
 20
-5.935809
 30
0.0
 10
-38.515925
 20
-5.935809
 30
0.0
 10
-38.206609
 20
-5.935809
 30
0.0
 10
-37.897294
 20
-5.935809
 30
0.0
 10
-37.587978
 20
-5.935809
 30
0.0
 10
-37.587978
 20
-4.685000
 30
0.0
 10
-37.587978
 20
-3.434192
 30
0.0
 10
-37.587978
 20
-2.183383
 30
0.0
 10
-37.587978
 20
-0.932574
 30
0.0
 10
-37.587978
 20
0.318235
 30
0.0
 10
-37.587978
 20
1.569044
 30
0.0
 10
-37.587978
 20
2.819853
 30
0.0
 10
-37.587978
 20
4.070662
 30
0.0
 10
-37.152227
 20
2.819853
 30
0.0
 10
-36.716476
 20
1.569044
 30
0.0
 10
-36.280725
 20
0.318235
 30
0.0
 10
-35.844974
 20
-0.932574
 30
0.0
 10
-35.409223
 20
-2.183383
 30
0.0
 10
-34.973472
 20
-3.434192
 30
0.0
 10
-34.537721
 20
-4.685000
 30
0.0
 10
-34.101969
 20
-5.935809
 30
0.0
 10
-33.849098
 20
-5.935809
 30
0.0
 10
-33.596227
 20
-5.935809
 30
0.0
 10
-33.343356
 20
-5.935809
 30
0.0
 10
-33.090485
 20
-5.935809
 30
0.0
 10
-32.837614
 20
-5.935809
 30
0.0
 10
-32.584743
 20
-5.935809
 30
0.0
 10
-32.331872
 20
-5.935809
 30
0.0
 10
-32.079001
 20
-5.935809
 30
0.0
 10
-31.643249
 20
-4.685000
 30
0.0
 10
-31.207498
 20
-3.434192
 30
0.0
 10
-30.771747
 20
-2.183383
 30
0.0
 10
-30.335996
 20
-0.932574
 30
0.0
 10
-29.900245
 20
0.318235
 30
0.0
 10
-29.464491
 20
1.569044
 30
0.0
 10
-29.028740
 20
2.819853
 30
0.0
 10
-28.592989
 20
4.070662
 30
0.0
 10
-28.592989
 20
2.819853
 30
0.0
 10
-28.592989
 20
1.569044
 30
0.0
 10
-28.592989
 20
0.318235
 30
0.0
 10
-28.592989
 20
-0.932574
 30
0.0
 10
-28.592989
 20
-2.183383
 30
0.0
 10
-28.592989
 20
-3.434192
 30
0.0
 10
-28.592989
 20
-4.685000
 30
0.0
 10
-28.592989
 20
-5.935809
 30
0.0
 10
-28.283673
 20
-5.935809
 30
0.0
 10
-27.974359
 20
-5.935809
 30
0.0
 10
-27.665043
 20
-5.935809
 30
0.0
 10
-27.355727
 20
-5.935809
 30
0.0
 10
-27.046412
 20
-5.935809
 30
0.0
 10
-26.737096
 20
-5.935809
 30
0.0
 10
-26.427781
 20
-5.935809
 30
0.0
 10
-26.118465
 20
-5.935809
 30
0.0
 10
-26.118465
 20
-4.267312
 30
0.0
 10
-26.118465
 20
-2.598814
 30
0.0
 10
-26.118465
 20
-0.930316
 30
0.0
 10
-26.118465
 20
0.738182
 30
0.0
 10
-26.118465
 20
2.406680
 30
0.0
 10
-26.118465
 20
4.075177
 30
0.0
 10
-26.118465
 20
5.743675
 30
0.0
 10
-26.118465
 20
7.412173
 30
0.0
 10
-26.542927
 20
7.412173
 30
0.0
 10
-26.967390
 20
7.412173
 30
0.0
 10
-27.391852
 20
7.412173
 30
0.0
 10
-27.816314
 20
7.412173
 30
0.0
 10
-28.240776
 20
7.412173
 30
0.0
 10
-28.665238
 20
7.412173
 30
0.0
 10
-29.089700
 20
7.412173
 30
0.0
 10
-29.514162
 20
7.412173
 30
0.0
 10
-29.958947
 20
6.147817
 30
0.0
 10
-30.403729
 20
4.883462
 30
0.0
 10
-30.848512
 20
3.619106
 30
0.0
 10
-31.293294
 20
2.354751
 30
0.0
 10
-31.738076
 20
1.090395
 30
0.0
 10
-32.182858
 20
-0.173960
 30
0.0
 10
-32.627641
 20
-1.438316
 30
0.0
 10
-33.072423
 20
-2.702672
 30
0.0
 10
-33.521721
 20
-1.438316
 30
0.0
 10
-33.971018
 20
-0.173960
 30
0.0
 10
-34.420316
 20
1.090395
 30
0.0
 10
-34.869614
 20
2.354751
 30
0.0
 10
-35.318912
 20
3.619106
 30
0.0
 10
-35.768209
 20
4.883462
 30
0.0
 10
-36.217507
 20
6.147817
 30
0.0
 10
-36.666805
 20
7.412173
 30
0.0
 10
-37.091267
 20
7.412173
 30
0.0
 10
-37.515729
 20
7.412173
 30
0.0
 10
-37.940192
 20
7.412173
 30
0.0
 10
-38.364654
 20
7.412173
 30
0.0
 10
-38.789116
 20
7.412173
 30
0.0
 10
-39.213578
 20
7.412173
 30
0.0
 10
-39.638041
 20
7.412173
 30
0.0
 10
-40.062503
 20
7.412173
 30
0.0
 10
-40.062503
 20
5.743675
 30
0.0
 10
-40.062503
 20
4.075177
 30
0.0
 10
-40.062503
 20
2.406680
 30
0.0
 10
-40.062503
 20
0.738182
 30
0.0
 10
-40.062503
 20
-0.930316
 30
0.0
 10
-40.062503
 20
-2.598814
 30
0.0
 10
-40.062503
 20
-4.267312
 30
0.0
 10
-40.062503
 20
-5.935809
 30
0.0
  0
LWPOLYLINE
  5
101
100
AcDbEntity
  8
Layer_1
 62
7
100
AcDbPolyline
 90
33
 70
0
 10
-22.923427
 20
-5.935809
 30
0.0
 10
-22.623143
 20
-5.935809
 30
0.0
 10
-22.322859
 20
-5.935809
 30
0.0
 10
-22.022574
 20
-5.935809
 30
0.0
 10
-21.722290
 20
-5.935809
 30
0.0
 10
-21.422005
 20
-5.935809
 30
0.0
 10
-21.121721
 20
-5.935809
 30
0.0
 10
-20.821436
 20
-5.935809
 30
0.0
 10
-20.521152
 20
-5.935809
 30
0.0
 10
-20.521152
 20
-4.685000
 30
0.0
 10
-20.521152
 20
-3.434192
 30
0.0
 10
-20.521152
 20
-2.183383
 30
0.0
 10
-20.521152
 20
-0.932574
 30
0.0
 10
-20.521152
 20
0.318235
 30
0.0
 10
-20.521152
 20
1.569044
 30
0.0
 10
-20.521152
 20
2.819853
 30
0.0
 10
-20.521152
 20
4.070662
 30
0.0
 10
-20.821436
 20
4.070662
 30
0.0
 10
-21.121721
 20
4.070662
 30
0.0
 10
-21.422005
 20
4.070662
 30
0.0
 10
-21.722290
 20
4.070662
 30
0.0
 10
-22.022574
 20
4.070662
 30
0.0
 10
-22.322859
 20
4.070662
 30
0.0
 10
-22.623143
 20
4.070662
 30
0.0
 10
-22.923427
 20
4.070662
 30
0.0
 10
-22.923427
 20
2.819853
 30
0.0
 10
-22.923427
 20
1.569044
 30
0.0
 10
-22.923427
 20
0.318235
 30
0.0
 10
-22.923427
 20
-0.932574
 30
0.0
 10
-22.923427
 20
-2.183383
 30
0.0
 10
-22.923427
 20
-3.434192
 30
0.0
 10
-22.923427
 20
-4.685000
 30
0.0
 10
-22.923427
 20
-5.935809
 30
0.0
  0
LWPOLYLINE
  5
102
100
AcDbEntity
  8
Layer_1
 62
7
100
AcDbPolyline
 90
33
 70
0
 10
-22.923427
 20
5.154395
 30
0.0
 10
-22.623143
 20
5.154395
 30
0.0
 10
-22.322859
 20
5.154395
 30
0.0
 10
-22.022574
 20
5.154395
 30
0.0
 10
-21.722290
 20
5.154395
 30
0.0
 10
-21.422005
 20
5.154395
 30
0.0
 10
-21.121721
 20
5.154395
 30
0.0
 10
-20.821436
 20
5.154395
 30
0.0
 10
-20.521152
 20
5.154395
 30
0.0
 10
-20.521152
 20
5.436617
 30
0.0
 10
-20.521152
 20
5.718840
 30
0.0
 10
-20.521152
 20
6.001062
 30
0.0
 10
-20.521152
 20
6.283284
 30
0.0
 10
-20.521152
 20
6.565506
 30
0.0
 10
-20.521152
 20
6.847728
 30
0.0
 10
-20.521152
 20
7.129951
 30
0.0
 10
-20.521152
 20
7.412173
 30
0.0
 10
-20.821436
 20
7.412173
 30
0.0
 10
-21.121721
 20
7.412173
 30
0.0
 10
-21.422005
 20
7.412173
 30
0.0
 10
-21.722290
 20
7.412173
 30
0.0
 10
-22.022574
 20
7.412173
 30
0.0
 10
-22.322859
 20
7.412173
 30
0.0
 10
-22.623143
 20
7.412173
 30
0.0
 10
-22.923427
 20
7.412173
 30
0.0
 10
-22.923427
 20
7.129951
 30
0.0
 10
-22.923427
 20
6.847728
 30
0.0
 10
-22.923427
 20
6.565506
 30
0.0
 10
-22.923427
 20
6.283284
 30
0.0
 10
-22.923427
 20
6.001062
 30
0.0
 10
-22.923427
 20
5.718840
 30
0.0
 10
-22.923427
 20
5.436617
 30
0.0
 10
-22.923427
 20
5.154395
 30
0.0
  0
LWPOLYLINE
  5
103
100
AcDbEntity
  8
Layer_1
 62
7
100
AcDbPolyline
 90
121
 70
0
 10
-17.455372
 20
-5.935809
 30
0.0
 10
-17.155087
 20
-5.935809
 30
0.0
 10
-16.854803
 20
-5.935809
 30
0.0
 10
-16.554519
 20
-5.935809
 30
0.0
 10
-16.254234
 20
-5.935809
 30
0.0
 10
-15.953950
 20
-5.935809
 30
0.0
 10
-15.653665
 20
-5.935809
 30
0.0
 10
-15.353381
 20
-5.935809
 30
0.0
 10
-15.053096
 20
-5.935809
 30
0.0
 10
-15.053096
 20
-5.346529
 30
0.0
 10
-15.053096
 20
-4.757249
 30
0.0
 10
-15.053096
 20
-4.167969
 30
0.0
 10
-15.053096
 20
-3.578689
 30
0.0
 10
-15.053096
 20
-2.989409
 30
0.0
 10
-15.053096
 20
-2.400129
 30
0.0
 10
-15.053096
 20
-1.810849
 30
0.0
 10
-15.053096
 20
-1.221569
 30
0.0
 10
-15.048609
 20
-0.754604
 30
0.0
 10
-15.034187
 20
-0.350914
 30
0.0
 10
-15.008336
 20
-0.002680
 30
0.0
 10
-14.969564
 20
0.297915
 30
0.0
 10
-14.916402
 20
0.558717
 30
0.0
 10
-14.847362
 20
0.787571
 30
0.0
 10
-14.760968
 20
0.992295
 30
0.0
 10
-14.655733
 20
1.180706
 30
0.0
 10
-14.501888
 20
1.391413
 30
0.0
 10
-14.325815
 20
1.576100
 30
0.0
 10
-14.129002
 20
1.734116
 30
0.0
 10
-13.912924
 20
1.864813
 30
0.0
 10
-13.679066
 20
1.967570
 30
0.0
 10
-13.428913
 20
2.041766
 30
0.0
 10
-13.163943
 20
2.086752
 30
0.0
 10
-12.885635
 20
2.101992
 30
0.0
 10
-12.660563
 20
2.091832
 30
0.0
 10
-12.446498
 20
2.061606
 30
0.0
 10
-12.244285
 20
2.011456
 30
0.0
 10
-12.054773
 20
1.941662
 30
0.0
 10
-11.878808
 20
1.852367
 30
0.0
 10
-11.717235
 20
1.743824
 30
0.0
 10
-11.570903
 20
1.616203
 30
0.0
 10
-11.440658
 20
1.469786
 30
0.0
 10
-11.327134
 20
1.292269
 30
0.0
 10
-11.230120
 20
1.082578
 30
0.0
 10
-11.149193
 20
0.837326
 30
0.0
 10
-11.083929
 20
0.553129
 30
0.0
 10
-11.033905
 20
0.226598
 30
0.0
 10
-10.998698
 20
-0.145654
 30
0.0
 10
-10.977870
 20
-0.567011
 30
0.0
 10
-10.971040
 20
-1.040862
 30
0.0
 10
-10.971040
 20
-1.652720
 30
0.0
 10
-10.971040
 20
-2.264578
 30
0.0
 10
-10.971040
 20
-2.876436
 30
0.0
 10
-10.971040
 20
-3.488294
 30
0.0
 10
-10.971040
 20
-4.100151
 30
0.0
 10
-10.971040
 20
-4.712009
 30
0.0
 10
-10.971040
 20
-5.323867
 30
0.0
 10
-10.971040
 20
-5.935725
 30
0.0
 10
-10.670755
 20
-5.935725
 30
0.0
 10
-10.370471
 20
-5.935725
 30
0.0
 10
-10.070186
 20
-5.935725
 30
0.0
 10
-9.769902
 20
-5.935725
 30
0.0
 10
-9.469618
 20
-5.935725
 30
0.0
 10
-9.169333
 20
-5.935725
 30
0.0
 10
-8.869049
 20
-5.935725
 30
0.0
 10
-8.568764
 20
-5.935725
 30
0.0
 10
-8.568764
 20
-5.265165
 30
0.0
 10
-8.568764
 20
-4.594605
 30
0.0
 10
-8.568764
 20
-3.924045
 30
0.0
 10
-8.568764
 20
-3.253485
 30
0.0
 10
-8.568764
 20
-2.582925
 30
0.0
 10
-8.568764
 20
-1.912365
 30
0.0
 10
-8.568764
 20
-1.241805
 30
0.0
 10
-8.568764
 20
-0.571245
 30
0.0
 10
-8.577570
 20
0.057744
 30
0.0
 10
-8.605425
 20
0.610138
 30
0.0
 10
-8.654461
 20
1.095616
 30
0.0
 10
-8.726780
 20
1.523973
 30
0.0
 10
-8.824500
 20
1.904888
 30
0.0
 10
-8.949736
 20
2.248155
 30
0.0
 10
-9.104605
 20
2.563454
 30
0.0
 10
-9.291225
 20
2.860578
 30
0.0
 10
-9.555139
 20
3.192330
 30
0.0
 10
-9.858209
 20
3.482595
 30
0.0
 10
-10.198956
 20
3.730528
 30
0.0
 10
-10.575900
 20
3.935280
 30
0.0
 10
-10.987558
 20
4.096005
 30
0.0
 10
-11.432445
 20
4.211858
 30
0.0
 10
-11.909084
 20
4.281990
 30
0.0
 10
-12.415989
 20
4.305696
 30
0.0
 10
-12.827469
 20
4.289328
 30
0.0
 10
-13.211856
 20
4.238838
 30
0.0
 10
-13.574229
 20
4.152365
 30
0.0
 10
-13.919669
 20
4.028018
 30
0.0
 10
-14.253256
 20
3.863878
 30
0.0
 10
-14.580069
 20
3.658025
 30
0.0
 10
-14.905189
 20
3.408568
 30
0.0
 10
-15.233696
 20
3.113618
 30
0.0
 10
-15.233696
 20
3.233280
 30
0.0
 10
-15.233696
 20
3.352942
 30
0.0
 10
-15.233696
 20
3.472605
 30
0.0
 10
-15.233696
 20
3.592267
 30
0.0
 10
-15.233696
 20
3.711929
 30
0.0
 10
-15.233696
 20
3.831591
 30
0.0
 10
-15.233696
 20
3.951254
 30
0.0
 10
-15.233696
 20
4.070916
 30
0.0
 10
-15.511403
 20
4.070916
 30
0.0
 10
-15.789109
 20
4.070916
 30
0.0
 10
-16.066816
 20
4.070916
 30
0.0
 10
-16.344523
 20
4.070916
 30
0.0
 10
-16.622229
 20
4.070916
 30
0.0
 10
-16.899936
 20
4.070916
 30
0.0
 10
-17.177643
 20
4.070916
 30
0.0
 10
-17.455349
 20
4.070916
 30
0.0
 10
-17.455349
 20
2.820107
 30
0.0
 10
-17.455349
 20
1.569298
 30
0.0
 10
-17.455349
 20
0.318489
 30
0.0
 10
-17.455349
 20
-0.932320
 30
0.0
 10
-17.455349
 20
-2.183129
 30
0.0
 10
-17.455349
 20
-3.433938
 30
0.0
 10
-17.455349
 20
-4.684746
 30
0.0
 10
-17.455349
 20
-5.935555
 30
0.0
  0
LWPOLYLINE
  5
104
100
AcDbEntity
  8
Layer_1
 62
7
100
AcDbPolyline
 90
33
 70
0
 10
-5.496205
 20
-5.935809
 30
0.0
 10
-5.195921
 20
-5.935809
 30
0.0
 10
-4.895636
 20
-5.935809
 30
0.0
 10
-4.595352
 20
-5.935809
 30
0.0
 10
-4.295067
 20
-5.935809
 30
0.0
 10
-3.994783
 20
-5.935809
 30
0.0
 10
-3.694499
 20
-5.935809
 30
0.0
 10
-3.394214
 20
-5.935809
 30
0.0
 10
-3.093930
 20
-5.935809
 30
0.0
 10
-3.093930
 20
-4.685000
 30
0.0
 10
-3.093930
 20
-3.434192
 30
0.0
 10
-3.093930
 20
-2.183383
 30
0.0
 10
-3.093930
 20
-0.932574
 30
0.0
 10
-3.093930
 20
0.318235
 30
0.0
 10
-3.093930
 20
1.569044
 30
0.0
 10
-3.093930
 20
2.819853
 30
0.0
 10
-3.093930
 20
4.070662
 30
0.0
 10
-3.394214
 20
4.070662
 30
0.0
 10
-3.694499
 20
4.070662
 30
0.0
 10
-3.994783
 20
4.070662
 30
0.0
 10
-4.295067
 20
4.070662
 30
0.0
 10
-4.595352
 20
4.070662
 30
0.0
 10
-4.895636
 20
4.070662
 30
0.0
 10
-5.195921
 20
4.070662
 30
0.0
 10
-5.496205
 20
4.070662
 30
0.0
 10
-5.496205
 20
2.819853
 30
0.0
 10
-5.496205
 20
1.569044
 30
0.0
 10
-5.496205
 20
0.318235
 30
0.0
 10
-5.496205
 20
-0.932574
 30
0.0
 10
-5.496205
 20
-2.183383
 30
0.0
 10
-5.496205
 20
-3.434192
 30
0.0
 10
-5.496205
 20
-4.685000
 30
0.0
 10
-5.496205
 20
-5.935809
 30
0.0
  0
LWPOLYLINE
  5
105
100
AcDbEntity
  8
Layer_1
 62
7
100
AcDbPolyline
 90
33
 70
0
 10
-5.496205
 20
5.154395
 30
0.0
 10
-5.195921
 20
5.154395
 30
0.0
 10
-4.895636
 20
5.154395
 30
0.0
 10
-4.595352
 20
5.154395
 30
0.0
 10
-4.295067
 20
5.154395
 30
0.0
 10
-3.994783
 20
5.154395
 30
0.0
 10
-3.694499
 20
5.154395
 30
0.0
 10
-3.394214
 20
5.154395
 30
0.0
 10
-3.093930
 20
5.154395
 30
0.0
 10
-3.093930
 20
5.436617
 30
0.0
 10
-3.093930
 20
5.718840
 30
0.0
 10
-3.093930
 20
6.001062
 30
0.0
 10
-3.093930
 20
6.283284
 30
0.0
 10
-3.093930
 20
6.565506
 30
0.0
 10
-3.093930
 20
6.847728
 30
0.0
 10
-3.093930
 20
7.129951
 30
0.0
 10
-3.093930
 20
7.412173
 30
0.0
 10
-3.394214
 20
7.412173
 30
0.0
 10
-3.694499
 20
7.412173
 30
0.0
 10
-3.994783
 20
7.412173
 30
0.0
 10
-4.295067
 20
7.412173
 30
0.0
 10
-4.595352
 20
7.412173
 30
0.0
 10
-4.895636
 20
7.412173
 30
0.0
 10
-5.195921
 20
7.412173
 30
0.0
 10
-5.496205
 20
7.412173
 30
0.0
 10
-5.496205
 20
7.129951
 30
0.0
 10
-5.496205
 20
6.847728
 30
0.0
 10
-5.496205
 20
6.565506
 30
0.0
 10
-5.496205
 20
6.283284
 30
0.0
 10
-5.496205
 20
6.001062
 30
0.0
 10
-5.496205
 20
5.718840
 30
0.0
 10
-5.496205
 20
5.436617
 30
0.0
 10
-5.496205
 20
5.154395
 30
0.0
  0
LWPOLYLINE
  5
106
100
AcDbEntity
  8
Layer_1
 62
7
100
AcDbPolyline
 90
121
 70
0
 10
-0.299083
 20
-5.935809
 30
0.0
 10
0.780135
 20
-5.935809
 30
0.0
 10
1.859352
 20
-5.935809
 30
0.0
 10
2.938570
 20
-5.935809
 30
0.0
 10
4.017788
 20
-5.935809
 30
0.0
 10
5.097006
 20
-5.935809
 30
0.0
 10
6.176224
 20
-5.935809
 30
0.0
 10
7.255441
 20
-5.935809
 30
0.0
 10
8.334659
 20
-5.935809
 30
0.0
 10
8.334659
 20
-5.653587
 30
0.0
 10
8.334659
 20
-5.371365
 30
0.0
 10
8.334659
 20
-5.089143
 30
0.0
 10
8.334659
 20
-4.806920
 30
0.0
 10
8.334659
 20
-4.524698
 30
0.0
 10
8.334659
 20
-4.242476
 30
0.0
 10
8.334659
 20
-3.960254
 30
0.0
 10
8.334659
 20
-3.678032
 30
0.0
 10
7.677646
 20
-3.678032
 30
0.0
 10
7.020633
 20
-3.678032
 30
0.0
 10
6.363619
 20
-3.678032
 30
0.0
 10
5.706606
 20
-3.678032
 30
0.0
 10
5.049593
 20
-3.678032
 30
0.0
 10
4.392579
 20
-3.678032
 30
0.0
 10
3.735566
 20
-3.678032
 30
0.0
 10
3.078553
 20
-3.678032
 30
0.0
 10
3.419477
 20
-3.368716
 30
0.0
 10
3.760401
 20
-3.059400
 30
0.0
 10
4.101326
 20
-2.750085
 30
0.0
 10
4.442250
 20
-2.440769
 30
0.0
 10
4.783175
 20
-2.131454
 30
0.0
 10
5.124099
 20
-1.822138
 30
0.0
 10
5.465024
 20
-1.512823
 30
0.0
 10
5.805948
 20
-1.203507
 30
0.0
 10
6.146520
 20
-0.890777
 30
0.0
 10
6.440948
 20
-0.611687
 30
0.0
 10
6.695583
 20
-0.359268
 30
0.0
 10
6.916775
 20
-0.126547
 30
0.0
 10
7.110873
 20
0.093473
 30
0.0
 10
7.284228
 20
0.307793
 30
0.0
 10
7.443190
 20
0.523382
 30
0.0
 10
7.594108
 20
0.747213
 30
0.0
 10
7.778645
 20
1.038184
 30
0.0
 10
7.939266
 20
1.341008
 30
0.0
 10
8.075754
 20
1.653993
 30
0.0
 10
8.187904
 20
1.975444
 30
0.0
 10
8.275497
 20
2.303668
 30
0.0
 10
8.338328
 20
2.636973
 30
0.0
 10
8.376180
 20
2.973664
 30
0.0
 10
8.388852
 20
3.312048
 30
0.0
 10
8.303301
 20
4.203588
 30
0.0
 10
8.056676
 20
5.025702
 30
0.0
 10
7.663998
 20
5.763148
 30
0.0
 10
7.140300
 20
6.400688
 30
0.0
 10
6.500607
 20
6.923082
 30
0.0
 10
5.759952
 20
7.315088
 30
0.0
 10
4.933356
 20
7.561468
 30
0.0
 10
4.035856
 20
7.646982
 30
0.0
 10
3.461110
 20
7.612776
 30
0.0
 10
2.905838
 20
7.512080
 30
0.0
 10
2.375966
 20
7.347911
 30
0.0
 10
1.877420
 20
7.123177
 30
0.0
 10
1.416128
 20
6.840899
 30
0.0
 10
0.998016
 20
6.503982
 30
0.0
 10
0.629010
 20
6.115446
 30
0.0
 10
0.315038
 20
5.678200
 30
0.0
 10
0.139566
 20
5.379213
 30
0.0
 10
-0.008389
 20
5.074526
 30
0.0
 10
-0.130097
 20
4.758409
 30
0.0
 10
-0.226829
 20
4.425133
 30
0.0
 10
-0.299854
 20
4.068997
 30
0.0
 10
-0.350442
 20
3.684300
 30
0.0
 10
-0.379864
 20
3.265312
 30
0.0
 10
-0.389374
 20
2.806306
 30
0.0
 10
-0.093606
 20
2.806306
 30
0.0
 10
0.202163
 20
2.806306
 30
0.0
 10
0.497932
 20
2.806306
 30
0.0
 10
0.793701
 20
2.806306
 30
0.0
 10
1.089470
 20
2.806306
 30
0.0
 10
1.385239
 20
2.806306
 30
0.0
 10
1.681008
 20
2.806306
 30
0.0
 10
1.976777
 20
2.806306
 30
0.0
 10
2.014910
 20
3.375972
 30
0.0
 10
2.126072
 20
3.888911
 30
0.0
 10
2.305388
 20
4.339196
 30
0.0
 10
2.547994
 20
4.720902
 30
0.0
 10
2.849018
 20
5.028101
 30
0.0
 10
3.203597
 20
5.254866
 30
0.0
 10
3.606856
 20
5.395272
 30
0.0
 10
4.053932
 20
5.443391
 30
0.0
 10
4.453311
 20
5.402271
 30
0.0
 10
4.820730
 20
5.283653
 30
0.0
 10
5.149623
 20
5.094790
 30
0.0
 10
5.433435
 20
4.842822
 30
0.0
 10
5.665596
 20
4.535002
 30
0.0
 10
5.839552
 20
4.178471
 30
0.0
 10
5.948736
 20
3.780481
 30
0.0
 10
5.986590
 20
3.348173
 30
0.0
 10
5.965085
 20
3.026609
 30
0.0
 10
5.899115
 20
2.709504
 30
0.0
 10
5.786579
 20
2.392822
 30
0.0
 10
5.625360
 20
2.072528
 30
0.0
 10
5.413340
 20
1.744614
 30
0.0
 10
5.148404
 20
1.405073
 30
0.0
 10
4.828435
 20
1.049868
 30
0.0
 10
4.451315
 20
0.674964
 30
0.0
 10
3.857520
 20
0.112777
 30
0.0
 10
3.263724
 20
-0.449409
 30
0.0
 10
2.669929
 20
-1.011596
 30
0.0
 10
2.076133
 20
-1.573783
 30
0.0
 10
1.482337
 20
-2.135969
 30
0.0
 10
0.888542
 20
-2.698156
 30
0.0
 10
0.294746
 20
-3.260343
 30
0.0
 10
-0.299049
 20
-3.822529
 30
0.0
 10
-0.299049
 20
-4.086689
 30
0.0
 10
-0.299049
 20
-4.350849
 30
0.0
 10
-0.299049
 20
-4.615009
 30
0.0
 10
-0.299049
 20
-4.879169
 30
0.0
 10
-0.299049
 20
-5.143329
 30
0.0
 10
-0.299049
 20
-5.407489
 30
0.0
 10
-0.299049
 20
-5.671649
 30
0.0
 10
-0.299049
 20
-5.935809
 30
0.0
  0
LWPOLYLINE
  5
107
100
AcDbEntity
  8
Layer_1
 62
7
100
AcDbPolyline
 90
89
 70
0
 10
10.250101
 20
-1.980183
 30
0.0
 10
10.250101
 20
-2.224023
 30
0.0
 10
10.250101
 20
-2.467863
 30
0.0
 10
10.250101
 20
-2.711703
 30
0.0
 10
10.250101
 20
-2.955543
 30
0.0
 10
10.250101
 20
-3.199383
 30
0.0
 10
10.250101
 20
-3.443223
 30
0.0
 10
10.250101
 20
-3.687063
 30
0.0
 10
10.250101
 20
-3.930903
 30
0.0
 10
10.970333
 20
-3.930903
 30
0.0
 10
11.690564
 20
-3.930903
 30
0.0
 10
12.410795
 20
-3.930903
 30
0.0
 10
13.131026
 20
-3.930903
 30
0.0
 10
13.851257
 20
-3.930903
 30
0.0
 10
14.571488
 20
-3.930903
 30
0.0
 10
15.291719
 20
-3.930903
 30
0.0
 10
16.011950
 20
-3.930903
 30
0.0
 10
16.011950
 20
-4.181516
 30
0.0
 10
16.011950
 20
-4.432129
 30
0.0
 10
16.011950
 20
-4.682743
 30
0.0
 10
16.011950
 20
-4.933356
 30
0.0
 10
16.011950
 20
-5.183969
 30
0.0
 10
16.011950
 20
-5.434583
 30
0.0
 10
16.011950
 20
-5.685196
 30
0.0
 10
16.011950
 20
-5.935809
 30
0.0
 10
16.312235
 20
-5.935809
 30
0.0
 10
16.612519
 20
-5.935809
 30
0.0
 10
16.912804
 20
-5.935809
 30
0.0
 10
17.213088
 20
-5.935809
 30
0.0
 10
17.513373
 20
-5.935809
 30
0.0
 10
17.813657
 20
-5.935809
 30
0.0
 10
18.113941
 20
-5.935809
 30
0.0
 10
18.414226
 20
-5.935809
 30
0.0
 10
18.414226
 20
-5.685196
 30
0.0
 10
18.414226
 20
-5.434583
 30
0.0
 10
18.414226
 20
-5.183969
 30
0.0
 10
18.414226
 20
-4.933356
 30
0.0
 10
18.414226
 20
-4.682743
 30
0.0
 10
18.414226
 20
-4.432129
 30
0.0
 10
18.414226
 20
-4.181516
 30
0.0
 10
18.414226
 20
-3.930903
 30
0.0
 10
18.590333
 20
-3.930903
 30
0.0
 10
18.766439
 20
-3.930903
 30
0.0
 10
18.942546
 20
-3.930903
 30
0.0
 10
19.118653
 20
-3.930903
 30
0.0
 10
19.294759
 20
-3.930903
 30
0.0
 10
19.470866
 20
-3.930903
 30
0.0
 10
19.646973
 20
-3.930903
 30
0.0
 10
19.823079
 20
-3.930903
 30
0.0
 10
19.823079
 20
-3.662227
 30
0.0
 10
19.823079
 20
-3.393552
 30
0.0
 10
19.823079
 20
-3.124876
 30
0.0
 10
19.823079
 20
-2.856200
 30
0.0
 10
19.823079
 20
-2.587525
 30
0.0
 10
19.823079
 20
-2.318849
 30
0.0
 10
19.823079
 20
-2.050174
 30
0.0
 10
19.823079
 20
-1.781498
 30
0.0
 10
19.646973
 20
-1.781498
 30
0.0
 10
19.470866
 20
-1.781498
 30
0.0
 10
19.294759
 20
-1.781498
 30
0.0
 10
19.118653
 20
-1.781498
 30
0.0
 10
18.942546
 20
-1.781498
 30
0.0
 10
18.766439
 20
-1.781498
 30
0.0
 10
18.590333
 20
-1.781498
 30
0.0
 10
18.414226
 20
-1.781498
 30
0.0
 10
18.414226
 20
-0.632289
 30
0.0
 10
18.414226
 20
0.516920
 30
0.0
 10
18.414226
 20
1.666128
 30
0.0
 10
18.414226
 20
2.815337
 30
0.0
 10
18.414226
 20
3.964546
 30
0.0
 10
18.414226
 20
5.113755
 30
0.0
 10
18.414226
 20
6.262964
 30
0.0
 10
18.414226
 20
7.412173
 30
0.0
 10
18.161355
 20
7.412173
 30
0.0
 10
17.908484
 20
7.412173
 30
0.0
 10
17.655613
 20
7.412173
 30
0.0
 10
17.402741
 20
7.412173
 30
0.0
 10
17.149870
 20
7.412173
 30
0.0
 10
16.896999
 20
7.412173
 30
0.0
 10
16.644128
 20
7.412173
 30
0.0
 10
16.391257
 20
7.412173
 30
0.0
 10
15.623613
 20
6.238128
 30
0.0
 10
14.855968
 20
5.064084
 30
0.0
 10
14.088324
 20
3.890040
 30
0.0
 10
13.320679
 20
2.715995
 30
0.0
 10
12.553035
 20
1.541951
 30
0.0
 10
11.785390
 20
0.367906
 30
0.0
 10
11.017746
 20
-0.806138
 30
0.0
 10
10.250101
 20
-1.980183
 30
0.0
  0
LWPOLYLINE
  5
108
100
AcDbEntity
  8
Layer_1
 62
7
100
AcDbPolyline
 90
25
 70
0
 10
16.011950
 20
-1.781498
 30
0.0
 10
15.596519
 20
-1.781498
 30
0.0
 10
15.181088
 20
-1.781498
 30
0.0
 10
14.765657
 20
-1.781498
 30
0.0
 10
14.350226
 20
-1.781498
 30
0.0
 10
13.934795
 20
-1.781498
 30
0.0
 10
13.519364
 20
-1.781498
 30
0.0
 10
13.103933
 20
-1.781498
 30
0.0
 10
12.688501
 20
-1.781498
 30
0.0
 10
13.103933
 20
-1.138032
 30
0.0
 10
13.519364
 20
-0.494565
 30
0.0
 10
13.934795
 20
0.148902
 30
0.0
 10
14.350226
 20
0.792368
 30
0.0
 10
14.765657
 20
1.435835
 30
0.0
 10
15.181088
 20
2.079302
 30
0.0
 10
15.596519
 20
2.722768
 30
0.0
 10
16.011950
 20
3.366235
 30
0.0
 10
16.011950
 20
2.722768
 30
0.0
 10
16.011950
 20
2.079302
 30
0.0
 10
16.011950
 20
1.435835
 30
0.0
 10
16.011950
 20
0.792368
 30
0.0
 10
16.011950
 20
0.148902
 30
0.0
 10
16.011950
 20
-0.494565
 30
0.0
 10
16.011950
 20
-1.138032
 30
0.0
 10
16.011950
 20
-1.781498
 30
0.0
  0
LWPOLYLINE
  5
109
100
AcDbEntity
  8
Layer_1
 62
7
100
AcDbPolyline
 90
89
 70
0
 10
21.503713
 20
-1.980183
 30
0.0
 10
21.503713
 20
-2.224023
 30
0.0
 10
21.503713
 20
-2.467863
 30
0.0
 10
21.503713
 20
-2.711703
 30
0.0
 10
21.503713
 20
-2.955543
 30
0.0
 10
21.503713
 20
-3.199383
 30
0.0
 10
21.503713
 20
-3.443223
 30
0.0
 10
21.503713
 20
-3.687063
 30
0.0
 10
21.503713
 20
-3.930903
 30
0.0
 10
22.223944
 20
-3.930903
 30
0.0
 10
22.944175
 20
-3.930903
 30
0.0
 10
23.664406
 20
-3.930903
 30
0.0
 10
24.384637
 20
-3.930903
 30
0.0
 10
25.104868
 20
-3.930903
 30
0.0
 10
25.825099
 20
-3.930903
 30
0.0
 10
26.545330
 20
-3.930903
 30
0.0
 10
27.265561
 20
-3.930903
 30
0.0
 10
27.265561
 20
-4.181516
 30
0.0
 10
27.265561
 20
-4.432129
 30
0.0
 10
27.265561
 20
-4.682743
 30
0.0
 10
27.265561
 20
-4.933356
 30
0.0
 10
27.265561
 20
-5.183969
 30
0.0
 10
27.265561
 20
-5.434583
 30
0.0
 10
27.265561
 20
-5.685196
 30
0.0
 10
27.265561
 20
-5.935809
 30
0.0
 10
27.565845
 20
-5.935809
 30
0.0
 10
27.866130
 20
-5.935809
 30
0.0
 10
28.166414
 20
-5.935809
 30
0.0
 10
28.466697
 20
-5.935809
 30
0.0
 10
28.766982
 20
-5.935809
 30
0.0
 10
29.067266
 20
-5.935809
 30
0.0
 10
29.367551
 20
-5.935809
 30
0.0
 10
29.667835
 20
-5.935809
 30
0.0
 10
29.667835
 20
-5.685196
 30
0.0
 10
29.667835
 20
-5.434583
 30
0.0
 10
29.667835
 20
-5.183969
 30
0.0
 10
29.667835
 20
-4.933356
 30
0.0
 10
29.667835
 20
-4.682743
 30
0.0
 10
29.667835
 20
-4.432129
 30
0.0
 10
29.667835
 20
-4.181516
 30
0.0
 10
29.667835
 20
-3.930903
 30
0.0
 10
29.843942
 20
-3.930903
 30
0.0
 10
30.020048
 20
-3.930903
 30
0.0
 10
30.196155
 20
-3.930903
 30
0.0
 10
30.372262
 20
-3.930903
 30
0.0
 10
30.548368
 20
-3.930903
 30
0.0
 10
30.724475
 20
-3.930903
 30
0.0
 10
30.900582
 20
-3.930903
 30
0.0
 10
31.076688
 20
-3.930903
 30
0.0
 10
31.076688
 20
-3.662227
 30
0.0
 10
31.076688
 20
-3.393552
 30
0.0
 10
31.076688
 20
-3.124876
 30
0.0
 10
31.076688
 20
-2.856200
 30
0.0
 10
31.076688
 20
-2.587525
 30
0.0
 10
31.076688
 20
-2.318849
 30
0.0
 10
31.076688
 20
-2.050174
 30
0.0
 10
31.076688
 20
-1.781498
 30
0.0
 10
30.900582
 20
-1.781498
 30
0.0
 10
30.724475
 20
-1.781498
 30
0.0
 10
30.548368
 20
-1.781498
 30
0.0
 10
30.372262
 20
-1.781498
 30
0.0
 10
30.196155
 20
-1.781498
 30
0.0
 10
30.020048
 20
-1.781498
 30
0.0
 10
29.843942
 20
-1.781498
 30
0.0
 10
29.667835
 20
-1.781498
 30
0.0
 10
29.667835
 20
-0.632289
 30
0.0
 10
29.667835
 20
0.516920
 30
0.0
 10
29.667835
 20
1.666128
 30
0.0
 10
29.667835
 20
2.815337
 30
0.0
 10
29.667835
 20
3.964546
 30
0.0
 10
29.667835
 20
5.113755
 30
0.0
 10
29.667835
 20
6.262964
 30
0.0
 10
29.667835
 20
7.412173
 30
0.0
 10
29.414964
 20
7.412173
 30
0.0
 10
29.162093
 20
7.412173
 30
0.0
 10
28.909222
 20
7.412173
 30
0.0
 10
28.656351
 20
7.412173
 30
0.0
 10
28.403479
 20
7.412173
 30
0.0
 10
28.150610
 20
7.412173
 30
0.0
 10
27.897739
 20
7.412173
 30
0.0
 10
27.644868
 20
7.412173
 30
0.0
 10
26.877223
 20
6.238128
 30
0.0
 10
26.109579
 20
5.064084
 30
0.0
 10
25.341935
 20
3.890040
 30
0.0
 10
24.574290
 20
2.715995
 30
0.0
 10
23.806646
 20
1.541951
 30
0.0
 10
23.039001
 20
0.367906
 30
0.0
 10
22.271357
 20
-0.806138
 30
0.0
 10
21.503713
 20
-1.980183
 30
0.0
  0
LWPOLYLINE
  5
10a
100
AcDbEntity
  8
Layer_1
 62
7
100
AcDbPolyline
 90
25
 70
0
 10
27.265561
 20
-1.781498
 30
0.0
 10
26.850130
 20
-1.781498
 30
0.0
 10
26.434699
 20
-1.781498
 30
0.0
 10
26.019268
 20
-1.781498
 30
0.0
 10
25.603837
 20
-1.781498
 30
0.0
 10
25.188406
 20
-1.781498
 30
0.0
 10
24.772975
 20
-1.781498
 30
0.0
 10
24.357544
 20
-1.781498
 30
0.0
 10
23.942113
 20
-1.781498
 30
0.0
 10
24.357544
 20
-1.138032
 30
0.0
 10
24.772975
 20
-0.494565
 30
0.0
 10
25.188406
 20
0.148902
 30
0.0
 10
25.603837
 20
0.792368
 30
0.0
 10
26.019268
 20
1.435835
 30
0.0
 10
26.434699
 20
2.079302
 30
0.0
 10
26.850130
 20
2.722768
 30
0.0
 10
27.265561
 20
3.366235
 30
0.0
 10
27.265561
 20
2.722768
 30
0.0
 10
27.265561
 20
2.079302
 30
0.0
 10
27.265561
 20
1.435835
 30
0.0
 10
27.265561
 20
0.792368
 30
0.0
 10
27.265561
 20
0.148902
 30
0.0
 10
27.265561
 20
-0.494565
 30
0.0
 10
27.265561
 20
-1.138032
 30
0.0
 10
27.265561
 20
-1.781498
 30
0.0
  0
LWPOLYLINE
  5
10b
100
AcDbEntity
  8
Layer_1
 62
7
100
AcDbPolyline
 90
65
 70
0
 10
42.239988
 20
3.185613
 30
0.0
 10
42.159414
 20
4.155187
 30
0.0
 10
41.923899
 20
5.025702
 30
0.0
 10
41.542758
 20
5.787843
 30
0.0
 10
41.025304
 20
6.432297
 30
0.0
 10
40.380849
 20
6.949752
 30
0.0
 10
39.618708
 20
7.330893
 30
0.0
 10
38.748194
 20
7.566407
 30
0.0
 10
37.778619
 20
7.646982
 30
0.0
 10
36.797897
 20
7.565420
 30
0.0
 10
35.920468
 20
7.326377
 30
0.0
 10
35.154799
 20
6.938322
 30
0.0
 10
34.509357
 20
6.409720
 30
0.0
 10
33.992608
 20
5.749037
 30
0.0
 10
33.613019
 20
4.964742
 30
0.0
 10
33.379057
 20
4.065300
 30
0.0
 10
33.299188
 20
3.059177
 30
0.0
 10
33.299188
 20
2.492475
 30
0.0
 10
33.299188
 20
1.925773
 30
0.0
 10
33.299188
 20
1.359071
 30
0.0
 10
33.299188
 20
0.792368
 30
0.0
 10
33.299188
 20
0.225666
 30
0.0
 10
33.299188
 20
-0.341036
 30
0.0
 10
33.299188
 20
-0.907738
 30
0.0
 10
33.299188
 20
-1.474440
 30
0.0
 10
33.311211
 20
-1.938132
 30
0.0
 10
33.348007
 20
-2.369649
 30
0.0
 10
33.410627
 20
-2.772380
 30
0.0
 10
33.500125
 20
-3.149712
 30
0.0
 10
33.617566
 20
-3.505029
 30
0.0
 10
33.764003
 20
-3.841720
 30
0.0
 10
33.940499
 20
-4.163172
 30
0.0
 10
34.148107
 20
-4.472769
 30
0.0
 10
34.480635
 20
-4.862038
 30
0.0
 10
34.854227
 20
-5.202878
 30
0.0
 10
35.267612
 20
-5.494160
 30
0.0
 10
35.719520
 20
-5.734867
 30
0.0
 10
36.208682
 20
-5.923900
 30
0.0
 10
36.733827
 20
-6.060269
 30
0.0
 10
37.293685
 20
-6.142848
 30
0.0
 10
37.886987
 20
-6.170505
 30
0.0
 10
38.446493
 20
-6.144259
 30
0.0
 10
38.972978
 20
-6.065998
 30
0.0
 10
39.465597
 20
-5.936120
 30
0.0
 10
39.923503
 20
-5.754990
 30
0.0
 10
40.345848
 20
-5.523088
 30
0.0
 10
40.731787
 20
-5.240781
 30
0.0
 10
41.080473
 20
-4.908549
 30
0.0
 10
41.391058
 20
-4.526758
 30
0.0
 10
41.598669
 20
-4.211883
 30
0.0
 10
41.775163
 20
-3.887243
 30
0.0
 10
41.921602
 20
-3.548238
 30
0.0
 10
42.039040
 20
-3.190154
 30
0.0
 10
42.128542
 20
-2.808392
 30
0.0
 10
42.191158
 20
-2.398238
 30
0.0
 10
42.227954
 20
-1.955093
 30
0.0
 10
42.239977
 20
-1.474243
 30
0.0
 10
42.239977
 20
-0.891736
 30
0.0
 10
42.239977
 20
-0.309230
 30
0.0
 10
42.239977
 20
0.273277
 30
0.0
 10
42.239977
 20
0.855756
 30
0.0
 10
42.239977
 20
1.438262
 30
0.0
 10
42.239977
 20
2.020769
 30
0.0
 10
42.239977
 20
2.603276
 30
0.0
 10
42.239977
 20
3.185782
 30
0.0
  0
LWPOLYLINE
  5
10c
100
AcDbEntity
  8
Layer_1
 62
7
100
AcDbPolyline
 90
57
 70
0
 10
35.701453
 20
3.059347
 30
0.0
 10
35.738141
 20
3.587046
 30
0.0
 10
35.845950
 20
4.056720
 30
0.0
 10
36.021493
 20
4.464616
 30
0.0
 10
36.261381
 20
4.806867
 30
0.0
 10
36.562230
 20
5.079719
 30
0.0
 10
36.920653
 20
5.279307
 30
0.0
 10
37.333261
 20
5.401876
 30
0.0
 10
37.796670
 20
5.443560
 30
0.0
 10
38.257751
 20
5.404105
 30
0.0
 10
38.664221
 20
5.286927
 30
0.0
 10
39.013965
 20
5.094000
 30
0.0
 10
39.304866
 20
4.827187
 30
0.0
 10
39.534806
 20
4.488435
 30
0.0
 10
39.701670
 20
4.079580
 30
0.0
 10
39.803341
 20
3.602596
 30
0.0
 10
39.837701
 20
3.059347
 30
0.0
 10
39.837701
 20
2.494902
 30
0.0
 10
39.837701
 20
1.930458
 30
0.0
 10
39.837701
 20
1.366013
 30
0.0
 10
39.837701
 20
0.801569
 30
0.0
 10
39.837701
 20
0.237153
 30
0.0
 10
39.837701
 20
-0.327292
 30
0.0
 10
39.837701
 20
-0.891736
 30
0.0
 10
39.837701
 20
-1.456181
 30
0.0
 10
39.831662
 20
-1.753756
 30
0.0
 10
39.813148
 20
-2.024858
 30
0.0
 10
39.781505
 20
-2.271859
 30
0.0
 10
39.736101
 20
-2.497016
 30
0.0
 10
39.676307
 20
-2.702728
 30
0.0
 10
39.601481
 20
-2.891281
 30
0.0
 10
39.510995
 20
-3.065045
 30
0.0
 10
39.404208
 20
-3.226278
 30
0.0
 10
39.269978
 20
-3.392931
 30
0.0
 10
39.112673
 20
-3.540110
 30
0.0
 10
38.934627
 20
-3.666968
 30
0.0
 10
38.738164
 20
-3.772661
 30
0.0
 10
38.525617
 20
-3.856340
 30
0.0
 10
38.299308
 20
-3.917158
 30
0.0
 10
38.061573
 20
-3.954271
 30
0.0
 10
37.814733
 20
-3.966688
 30
0.0
 10
37.329804
 20
-3.924637
 30
0.0
 10
36.905413
 20
-3.799613
 30
0.0
 10
36.542828
 20
-3.593308
 30
0.0
 10
36.243319
 20
-3.307417
 30
0.0
 10
36.008158
 20
-2.943633
 30
0.0
 10
35.838613
 20
-2.503648
 30
0.0
 10
35.735954
 20
-1.989157
 30
0.0
 10
35.701453
 20
-1.401853
 30
0.0
 10
35.701453
 20
-0.844182
 30
0.0
 10
35.701453
 20
-0.286511
 30
0.0
 10
35.701453
 20
0.271160
 30
0.0
 10
35.701453
 20
0.828803
 30
0.0
 10
35.701453
 20
1.386474
 30
0.0
 10
35.701453
 20
1.944146
 30
0.0
 10
35.701453
 20
2.501817
 30
0.0
 10
35.701453
 20
3.059488
 30
0.0
  0
ENDSEC
  0
SECTION
  2
OBJECTS
  0
DICTIONARY
  5
C
330
0
100
AcDbDictionary
  3
ACAD_GROUP
350
D
  3
ACAD_MLINESTYLE
350
17
  0
DICTIONARY
  5
D
330
C
100
AcDbDictionary
  0
DICTIONARY
  5
1A
330
C
100
AcDbDictionary
  0
DICTIONARY
  5
17
330
C
100
AcDbDictionary
  3
STANDARD
350
18
  0
DICTIONARY
  5
19
330
C
100
AcDbDictionary
  0
ENDSEC
  0
EOF
