solid OpenSCAD_Model
  facet normal -1 0 0
    outer loop
      vertex -6.4 7.25 11.15
      vertex -6.4 -4.75 12.3
      vertex -6.4 11.25 12.3
    endloop
  endfacet
  facet normal -1 0 0
    outer loop
      vertex -6.4 -4.75 4
      vertex -6.4 -4.75 12.3
      vertex -6.4 4.47836 7.00195
    endloop
  endfacet
  facet normal -1 0 0
    outer loop
      vertex -6.4 -4.75 4
      vertex -6.4 4.47836 7.00195
      vertex -6.4 5.12868 6.02868
    endloop
  endfacet
  facet normal -1 0 0
    outer loop
      vertex -6.4 -4.75 4
      vertex -6.4 5.12868 6.02868
      vertex -6.4 6.10195 5.37836
    endloop
  endfacet
  facet normal -1 0 0
    outer loop
      vertex -6.4 -4.75 4
      vertex -6.4 6.10195 5.37836
      vertex -6.4 11.25 4
    endloop
  endfacet
  facet normal -1 0 0
    outer loop
      vertex -6.4 6.10195 5.37836
      vertex -6.4 7.25 5.15
      vertex -6.4 11.25 4
    endloop
  endfacet
  facet normal -1 0 0
    outer loop
      vertex -6.4 8.39805 5.37836
      vertex -6.4 11.25 4
      vertex -6.4 7.25 5.15
    endloop
  endfacet
  facet normal -1 0 0
    outer loop
      vertex -6.4 9.37132 6.02868
      vertex -6.4 11.25 4
      vertex -6.4 8.39805 5.37836
    endloop
  endfacet
  facet normal -1 0 0
    outer loop
      vertex -6.4 10.0216 9.29805
      vertex -6.4 11.25 12.3
      vertex -6.4 10.25 8.15
    endloop
  endfacet
  facet normal -1 0 0
    outer loop
      vertex -6.4 11.25 4
      vertex -6.4 9.37132 6.02868
      vertex -6.4 10.0216 7.00195
    endloop
  endfacet
  facet normal -1 0 0
    outer loop
      vertex -6.4 11.25 4
      vertex -6.4 10.0216 7.00195
      vertex -6.4 11.25 12.3
    endloop
  endfacet
  facet normal -1 0 0
    outer loop
      vertex -6.4 10.0216 7.00195
      vertex -6.4 10.25 8.15
      vertex -6.4 11.25 12.3
    endloop
  endfacet
  facet normal -1 0 0
    outer loop
      vertex -6.4 8.39805 10.9216
      vertex -6.4 11.25 12.3
      vertex -6.4 9.37132 10.2713
    endloop
  endfacet
  facet normal -1 0 0
    outer loop
      vertex -6.4 10.0216 9.29805
      vertex -6.4 9.37132 10.2713
      vertex -6.4 11.25 12.3
    endloop
  endfacet
  facet normal -1 0 0
    outer loop
      vertex -6.4 6.10195 10.9216
      vertex -6.4 -4.75 12.3
      vertex -6.4 7.25 11.15
    endloop
  endfacet
  facet normal -1 0 0
    outer loop
      vertex -6.4 8.39805 10.9216
      vertex -6.4 7.25 11.15
      vertex -6.4 11.25 12.3
    endloop
  endfacet
  facet normal -1 0 0
    outer loop
      vertex -6.4 5.12868 10.2713
      vertex -6.4 -4.75 12.3
      vertex -6.4 6.10195 10.9216
    endloop
  endfacet
  facet normal -1 0 0
    outer loop
      vertex -6.4 4.47836 9.29805
      vertex -6.4 -4.75 12.3
      vertex -6.4 5.12868 10.2713
    endloop
  endfacet
  facet normal -1 0 0
    outer loop
      vertex -6.4 4.25 8.15
      vertex -6.4 -4.75 12.3
      vertex -6.4 4.47836 9.29805
    endloop
  endfacet
  facet normal -1 0 0
    outer loop
      vertex -6.4 4.47836 7.00195
      vertex -6.4 -4.75 12.3
      vertex -6.4 4.25 8.15
    endloop
  endfacet
  facet normal 0 -1 0
    outer loop
      vertex -6.4 -4.75 12.3
      vertex -6.4 -4.75 4
      vertex 0 -4.75 4
    endloop
  endfacet
  facet normal 0 -1 0
    outer loop
      vertex 0 -4.75 12.3
      vertex -6.4 -4.75 12.3
      vertex 6.4 -4.75 4
    endloop
  endfacet
  facet normal 0 -1 0
    outer loop
      vertex 6.4 -4.75 4
      vertex -6.4 -4.75 12.3
      vertex 0 -4.75 4
    endloop
  endfacet
  facet normal 0 -1 0
    outer loop
      vertex 6.4 -4.75 12.3
      vertex 0 -4.75 12.3
      vertex 6.4 -4.75 4
    endloop
  endfacet
  facet normal 0 0 -1
    outer loop
      vertex -4.38843 -1.81775 4
      vertex -6.4 -4.75 4
      vertex -4.75 0 4
    endloop
  endfacet
  facet normal 0 0 -1
    outer loop
      vertex 1.81775 4.38843 4
      vertex -6.4 11.25 4
      vertex 6.4 11.25 4
    endloop
  endfacet
  facet normal 0 0 -1
    outer loop
      vertex 4.75 0 4
      vertex 6.4 11.25 4
      vertex 6.4 -4.75 4
    endloop
  endfacet
  facet normal 0 0 -1
    outer loop
      vertex 1.81775 4.38843 4
      vertex 6.4 11.25 4
      vertex 3.35876 3.35876 4
    endloop
  endfacet
  facet normal 0 0 -1
    outer loop
      vertex 0 -4.75 4
      vertex 1.81775 -4.38843 4
      vertex 6.4 -4.75 4
    endloop
  endfacet
  facet normal 0 0 -1
    outer loop
      vertex 3.35876 3.35876 4
      vertex 6.4 11.25 4
      vertex 4.38843 1.81775 4
    endloop
  endfacet
  facet normal 0 0 -1
    outer loop
      vertex 1.81775 -4.38843 4
      vertex 3.35876 -3.35876 4
      vertex 6.4 -4.75 4
    endloop
  endfacet
  facet normal 0 0 -1
    outer loop
      vertex 3.35876 -3.35876 4
      vertex 4.38843 -1.81775 4
      vertex 6.4 -4.75 4
    endloop
  endfacet
  facet normal 0 0 -1
    outer loop
      vertex 4.38843 -1.81775 4
      vertex 4.75 0 4
      vertex 6.4 -4.75 4
    endloop
  endfacet
  facet normal 0 0 -1
    outer loop
      vertex 0 4.75 4
      vertex -6.4 11.25 4
      vertex 1.81775 4.38843 4
    endloop
  endfacet
  facet normal 0 0 -1
    outer loop
      vertex -3.35876 3.35876 4
      vertex -6.4 11.25 4
      vertex -1.81775 4.38843 4
    endloop
  endfacet
  facet normal 0 0 -1
    outer loop
      vertex -1.81775 4.38843 4
      vertex -6.4 11.25 4
      vertex 0 4.75 4
    endloop
  endfacet
  facet normal 0 0 -1
    outer loop
      vertex -4.38843 1.81775 4
      vertex -6.4 11.25 4
      vertex -3.35876 3.35876 4
    endloop
  endfacet
  facet normal 0 0 -1
    outer loop
      vertex -6.4 -4.75 4
      vertex -6.4 11.25 4
      vertex -4.38843 1.81775 4
    endloop
  endfacet
  facet normal 0 0 -1
    outer loop
      vertex -6.4 -4.75 4
      vertex -4.38843 1.81775 4
      vertex -4.75 0 4
    endloop
  endfacet
  facet normal 0 0 -1
    outer loop
      vertex -6.4 -4.75 4
      vertex -4.38843 -1.81775 4
      vertex -3.35876 -3.35876 4
    endloop
  endfacet
  facet normal 0 0 -1
    outer loop
      vertex -6.4 -4.75 4
      vertex -3.35876 -3.35876 4
      vertex -1.81775 -4.38843 4
    endloop
  endfacet
  facet normal 0 0 -1
    outer loop
      vertex -6.4 -4.75 4
      vertex -1.81775 -4.38843 4
      vertex 0 -4.75 4
    endloop
  endfacet
  facet normal 0 0 -1
    outer loop
      vertex 4.38843 1.81775 4
      vertex 6.4 11.25 4
      vertex 4.75 0 4
    endloop
  endfacet
  facet normal 0 1 0
    outer loop
      vertex -6.4 11.25 4
      vertex -6.4 11.25 12.3
      vertex 6.4 11.25 4
    endloop
  endfacet
  facet normal 0 1 0
    outer loop
      vertex 6.4 11.25 4
      vertex -6.4 11.25 12.3
      vertex 6.4 11.25 12.3
    endloop
  endfacet
  facet normal 0 0 1
    outer loop
      vertex -1.81775 -4.38843 12.3
      vertex -6.4 -4.75 12.3
      vertex 0 -4.75 12.3
    endloop
  endfacet
  facet normal 0 0 1
    outer loop
      vertex -3.35876 -3.35876 12.3
      vertex -6.4 -4.75 12.3
      vertex -1.81775 -4.38843 12.3
    endloop
  endfacet
  facet normal 0 0 1
    outer loop
      vertex -4.38843 -1.81775 12.3
      vertex -6.4 -4.75 12.3
      vertex -3.35876 -3.35876 12.3
    endloop
  endfacet
  facet normal 0 0 1
    outer loop
      vertex -4.38843 1.81775 12.3
      vertex -3.35876 3.35876 12.3
      vertex -6.4 11.25 12.3
    endloop
  endfacet
  facet normal 0 0 1
    outer loop
      vertex -4.75 0 12.3
      vertex -6.4 -4.75 12.3
      vertex -4.38843 -1.81775 12.3
    endloop
  endfacet
  facet normal 0 0 1
    outer loop
      vertex -6.4 11.25 12.3
      vertex -6.4 -4.75 12.3
      vertex -4.75 0 12.3
    endloop
  endfacet
  facet normal 0 0 1
    outer loop
      vertex -3.35876 3.35876 12.3
      vertex -1.81775 4.38843 12.3
      vertex -6.4 11.25 12.3
    endloop
  endfacet
  facet normal 0 0 1
    outer loop
      vertex 0 4.75 12.3
      vertex -6.4 11.25 12.3
      vertex -1.81775 4.38843 12.3
    endloop
  endfacet
  facet normal 0 0 1
    outer loop
      vertex 1.81775 4.38843 12.3
      vertex -6.4 11.25 12.3
      vertex 0 4.75 12.3
    endloop
  endfacet
  facet normal 0 0 1
    outer loop
      vertex 3.35876 3.35876 12.3
      vertex -6.4 11.25 12.3
      vertex 1.81775 4.38843 12.3
    endloop
  endfacet
  facet normal 0 0 1
    outer loop
      vertex 6.4 11.25 12.3
      vertex -6.4 11.25 12.3
      vertex 3.35876 3.35876 12.3
    endloop
  endfacet
  facet normal 0 0 1
    outer loop
      vertex 6.4 11.25 12.3
      vertex 3.35876 3.35876 12.3
      vertex 4.38843 1.81775 12.3
    endloop
  endfacet
  facet normal 0 0 1
    outer loop
      vertex 6.4 -4.75 12.3
      vertex 4.38843 1.81775 12.3
      vertex 4.75 0 12.3
    endloop
  endfacet
  facet normal 0 0 1
    outer loop
      vertex 6.4 -4.75 12.3
      vertex 4.75 0 12.3
      vertex 4.38843 -1.81775 12.3
    endloop
  endfacet
  facet normal 0 0 1
    outer loop
      vertex 6.4 -4.75 12.3
      vertex 4.38843 -1.81775 12.3
      vertex 3.35876 -3.35876 12.3
    endloop
  endfacet
  facet normal 0 0 1
    outer loop
      vertex 6.4 -4.75 12.3
      vertex 3.35876 -3.35876 12.3
      vertex 1.81775 -4.38843 12.3
    endloop
  endfacet
  facet normal 0 0 1
    outer loop
      vertex 0 -4.75 12.3
      vertex 6.4 -4.75 12.3
      vertex 1.81775 -4.38843 12.3
    endloop
  endfacet
  facet normal 0 0 1
    outer loop
      vertex 6.4 -4.75 12.3
      vertex 6.4 11.25 12.3
      vertex 4.38843 1.81775 12.3
    endloop
  endfacet
  facet normal 0 0 1
    outer loop
      vertex -4.75 0 12.3
      vertex -4.38843 1.81775 12.3
      vertex -6.4 11.25 12.3
    endloop
  endfacet
  facet normal 4.33187e-17 0.980785 -0.19509
    outer loop
      vertex 6.4 4.47836 9.29805
      vertex 6.4 4.25 8.15
      vertex -6.4 4.47836 9.29805
    endloop
  endfacet
  facet normal 4.33187e-17 0.980785 -0.19509
    outer loop
      vertex -6.4 4.47836 9.29805
      vertex 6.4 4.25 8.15
      vertex -6.4 4.25 8.15
    endloop
  endfacet
  facet normal -4.33187e-17 0.980785 0.19509
    outer loop
      vertex 6.4 4.47836 7.00195
      vertex -6.4 4.47836 7.00195
      vertex 6.4 4.25 8.15
    endloop
  endfacet
  facet normal -4.33187e-17 0.980785 0.19509
    outer loop
      vertex 6.4 4.25 8.15
      vertex -6.4 4.47836 7.00195
      vertex -6.4 4.25 8.15
    endloop
  endfacet
  facet normal 1.23361e-16 0.831469 -0.555571
    outer loop
      vertex 6.4 5.12868 10.2713
      vertex 6.4 4.47836 9.29805
      vertex -6.4 5.12868 10.2713
    endloop
  endfacet
  facet normal 1.23361e-16 0.831469 -0.555571
    outer loop
      vertex -6.4 5.12868 10.2713
      vertex 6.4 4.47836 9.29805
      vertex -6.4 4.47836 9.29805
    endloop
  endfacet
  facet normal 1.84623e-16 0.555571 -0.831469
    outer loop
      vertex 6.4 6.10195 10.9216
      vertex 6.4 5.12868 10.2713
      vertex -6.4 6.10195 10.9216
    endloop
  endfacet
  facet normal 1.84623e-16 0.555571 -0.831469
    outer loop
      vertex -6.4 6.10195 10.9216
      vertex 6.4 5.12868 10.2713
      vertex -6.4 5.12868 10.2713
    endloop
  endfacet
  facet normal 2.17778e-16 0.19509 -0.980785
    outer loop
      vertex 6.4 7.25 11.15
      vertex 6.4 6.10195 10.9216
      vertex -6.4 7.25 11.15
    endloop
  endfacet
  facet normal 2.17778e-16 0.19509 -0.980785
    outer loop
      vertex -6.4 7.25 11.15
      vertex 6.4 6.10195 10.9216
      vertex -6.4 6.10195 10.9216
    endloop
  endfacet
  facet normal 2.17778e-16 -0.19509 -0.980785
    outer loop
      vertex 6.4 8.39805 10.9216
      vertex 6.4 7.25 11.15
      vertex -6.4 8.39805 10.9216
    endloop
  endfacet
  facet normal 2.17778e-16 -0.19509 -0.980785
    outer loop
      vertex -6.4 8.39805 10.9216
      vertex 6.4 7.25 11.15
      vertex -6.4 7.25 11.15
    endloop
  endfacet
  facet normal 1.84623e-16 -0.555571 -0.831469
    outer loop
      vertex 6.4 9.37132 10.2713
      vertex 6.4 8.39805 10.9216
      vertex -6.4 9.37132 10.2713
    endloop
  endfacet
  facet normal 1.84623e-16 -0.555571 -0.831469
    outer loop
      vertex -6.4 9.37132 10.2713
      vertex 6.4 8.39805 10.9216
      vertex -6.4 8.39805 10.9216
    endloop
  endfacet
  facet normal 1.23361e-16 -0.831469 -0.555571
    outer loop
      vertex -6.4 10.0216 9.29805
      vertex 6.4 10.0216 9.29805
      vertex 6.4 9.37132 10.2713
    endloop
  endfacet
  facet normal 1.23361e-16 -0.831469 -0.555571
    outer loop
      vertex -6.4 9.37132 10.2713
      vertex -6.4 10.0216 9.29805
      vertex 6.4 9.37132 10.2713
    endloop
  endfacet
  facet normal 4.33187e-17 -0.980785 -0.19509
    outer loop
      vertex -6.4 10.25 8.15
      vertex 6.4 10.25 8.15
      vertex 6.4 10.0216 9.29805
    endloop
  endfacet
  facet normal 4.33187e-17 -0.980785 -0.19509
    outer loop
      vertex -6.4 10.0216 9.29805
      vertex -6.4 10.25 8.15
      vertex 6.4 10.0216 9.29805
    endloop
  endfacet
  facet normal -4.33187e-17 -0.980785 0.19509
    outer loop
      vertex 6.4 10.0216 7.00195
      vertex 6.4 10.25 8.15
      vertex -6.4 10.25 8.15
    endloop
  endfacet
  facet normal -4.33187e-17 -0.980785 0.19509
    outer loop
      vertex -6.4 10.0216 7.00195
      vertex 6.4 10.0216 7.00195
      vertex -6.4 10.25 8.15
    endloop
  endfacet
  facet normal -1.23361e-16 -0.831469 0.555571
    outer loop
      vertex 6.4 9.37132 6.02868
      vertex 6.4 10.0216 7.00195
      vertex -6.4 10.0216 7.00195
    endloop
  endfacet
  facet normal -1.23361e-16 -0.831469 0.555571
    outer loop
      vertex -6.4 9.37132 6.02868
      vertex 6.4 9.37132 6.02868
      vertex -6.4 10.0216 7.00195
    endloop
  endfacet
  facet normal -1.84623e-16 -0.555571 0.831469
    outer loop
      vertex 6.4 8.39805 5.37836
      vertex 6.4 9.37132 6.02868
      vertex -6.4 9.37132 6.02868
    endloop
  endfacet
  facet normal -1.84623e-16 -0.555571 0.831469
    outer loop
      vertex -6.4 8.39805 5.37836
      vertex 6.4 8.39805 5.37836
      vertex -6.4 9.37132 6.02868
    endloop
  endfacet
  facet normal -2.17778e-16 -0.19509 0.980785
    outer loop
      vertex 6.4 7.25 5.15
      vertex 6.4 8.39805 5.37836
      vertex -6.4 8.39805 5.37836
    endloop
  endfacet
  facet normal -2.17778e-16 -0.19509 0.980785
    outer loop
      vertex -6.4 7.25 5.15
      vertex 6.4 7.25 5.15
      vertex -6.4 8.39805 5.37836
    endloop
  endfacet
  facet normal -2.17778e-16 0.19509 0.980785
    outer loop
      vertex 6.4 6.10195 5.37836
      vertex 6.4 7.25 5.15
      vertex -6.4 7.25 5.15
    endloop
  endfacet
  facet normal -2.17778e-16 0.19509 0.980785
    outer loop
      vertex -6.4 6.10195 5.37836
      vertex 6.4 6.10195 5.37836
      vertex -6.4 7.25 5.15
    endloop
  endfacet
  facet normal -1.84623e-16 0.555571 0.831469
    outer loop
      vertex 6.4 5.12868 6.02868
      vertex 6.4 6.10195 5.37836
      vertex -6.4 6.10195 5.37836
    endloop
  endfacet
  facet normal -1.84623e-16 0.555571 0.831469
    outer loop
      vertex -6.4 5.12868 6.02868
      vertex 6.4 5.12868 6.02868
      vertex -6.4 6.10195 5.37836
    endloop
  endfacet
  facet normal -1.23361e-16 0.831469 0.555571
    outer loop
      vertex 6.4 5.12868 6.02868
      vertex -6.4 5.12868 6.02868
      vertex 6.4 4.47836 7.00195
    endloop
  endfacet
  facet normal -1.23361e-16 0.831469 0.555571
    outer loop
      vertex 6.4 4.47836 7.00195
      vertex -6.4 5.12868 6.02868
      vertex -6.4 4.47836 7.00195
    endloop
  endfacet
  facet normal -0.19509 -0.980785 0
    outer loop
      vertex -1.81775 -4.38843 18
      vertex -1.81775 -4.38843 12.3
      vertex 0 -4.75 12.3
    endloop
  endfacet
  facet normal -0.19509 -0.980785 0
    outer loop
      vertex 0 -4.75 18
      vertex -1.81775 -4.38843 18
      vertex 0 -4.75 12.3
    endloop
  endfacet
  facet normal 0.19509 -0.980785 0
    outer loop
      vertex 0 -4.75 18
      vertex 0 -4.75 12.3
      vertex 1.81775 -4.38843 12.3
    endloop
  endfacet
  facet normal 0.19509 -0.980785 0
    outer loop
      vertex 1.81775 -4.38843 18
      vertex 0 -4.75 18
      vertex 1.81775 -4.38843 12.3
    endloop
  endfacet
  facet normal 1 0 0
    outer loop
      vertex 6.4 7.25 5.15
      vertex 6.4 -4.75 4
      vertex 6.4 11.25 4
    endloop
  endfacet
  facet normal 1 0 0
    outer loop
      vertex 6.4 -4.75 12.3
      vertex 6.4 -4.75 4
      vertex 6.4 4.47836 7.00195
    endloop
  endfacet
  facet normal 1 0 0
    outer loop
      vertex 6.4 8.39805 5.37836
      vertex 6.4 7.25 5.15
      vertex 6.4 11.25 4
    endloop
  endfacet
  facet normal 1 0 0
    outer loop
      vertex 6.4 4.47836 9.29805
      vertex 6.4 -4.75 12.3
      vertex 6.4 4.25 8.15
    endloop
  endfacet
  facet normal 1 0 0
    outer loop
      vertex 6.4 5.12868 10.2713
      vertex 6.4 -4.75 12.3
      vertex 6.4 4.47836 9.29805
    endloop
  endfacet
  facet normal 1 0 0
    outer loop
      vertex 6.4 8.39805 10.9216
      vertex 6.4 9.37132 10.2713
      vertex 6.4 11.25 12.3
    endloop
  endfacet
  facet normal 1 0 0
    outer loop
      vertex 6.4 6.10195 10.9216
      vertex 6.4 -4.75 12.3
      vertex 6.4 5.12868 10.2713
    endloop
  endfacet
  facet normal 1 0 0
    outer loop
      vertex 6.4 11.25 12.3
      vertex 6.4 -4.75 12.3
      vertex 6.4 6.10195 10.9216
    endloop
  endfacet
  facet normal 1 0 0
    outer loop
      vertex 6.4 11.25 12.3
      vertex 6.4 6.10195 10.9216
      vertex 6.4 7.25 11.15
    endloop
  endfacet
  facet normal 1 0 0
    outer loop
      vertex 6.4 10.25 8.15
      vertex 6.4 10.0216 7.00195
      vertex 6.4 11.25 4
    endloop
  endfacet
  facet normal 1 0 0
    outer loop
      vertex 6.4 9.37132 6.02868
      vertex 6.4 8.39805 5.37836
      vertex 6.4 11.25 4
    endloop
  endfacet
  facet normal 1 0 0
    outer loop
      vertex 6.4 11.25 12.3
      vertex 6.4 10.0216 9.29805
      vertex 6.4 11.25 4
    endloop
  endfacet
  facet normal 1 0 0
    outer loop
      vertex 6.4 11.25 12.3
      vertex 6.4 9.37132 10.2713
      vertex 6.4 10.0216 9.29805
    endloop
  endfacet
  facet normal 1 0 0
    outer loop
      vertex 6.4 10.0216 9.29805
      vertex 6.4 10.25 8.15
      vertex 6.4 11.25 4
    endloop
  endfacet
  facet normal 1 0 0
    outer loop
      vertex 6.4 10.0216 7.00195
      vertex 6.4 9.37132 6.02868
      vertex 6.4 11.25 4
    endloop
  endfacet
  facet normal 1 0 0
    outer loop
      vertex 6.4 7.25 11.15
      vertex 6.4 8.39805 10.9216
      vertex 6.4 11.25 12.3
    endloop
  endfacet
  facet normal 1 0 0
    outer loop
      vertex 6.4 6.10195 5.37836
      vertex 6.4 -4.75 4
      vertex 6.4 7.25 5.15
    endloop
  endfacet
  facet normal 1 0 0
    outer loop
      vertex 6.4 5.12868 6.02868
      vertex 6.4 -4.75 4
      vertex 6.4 6.10195 5.37836
    endloop
  endfacet
  facet normal 1 0 0
    outer loop
      vertex 6.4 4.47836 7.00195
      vertex 6.4 -4.75 4
      vertex 6.4 5.12868 6.02868
    endloop
  endfacet
  facet normal 1 0 0
    outer loop
      vertex 6.4 4.47836 7.00195
      vertex 6.4 4.25 8.15
      vertex 6.4 -4.75 12.3
    endloop
  endfacet
  facet normal 0.19509 -0.980785 0
    outer loop
      vertex 0 -4.75 4
      vertex 0 -4.75 3
      vertex 1.81775 -4.38843 3
    endloop
  endfacet
  facet normal 0.19509 -0.980785 0
    outer loop
      vertex 1.81775 -4.38843 4
      vertex 0 -4.75 4
      vertex 1.81775 -4.38843 3
    endloop
  endfacet
  facet normal -0.19509 -0.980785 0
    outer loop
      vertex -1.81775 -4.38843 4
      vertex -1.81775 -4.38843 3
      vertex 0 -4.75 3
    endloop
  endfacet
  facet normal -0.19509 -0.980785 0
    outer loop
      vertex 0 -4.75 4
      vertex -1.81775 -4.38843 4
      vertex 0 -4.75 3
    endloop
  endfacet
  facet normal -0.55557 -0.83147 0
    outer loop
      vertex -3.35876 -3.35876 4
      vertex -3.35876 -3.35876 3
      vertex -1.81775 -4.38843 3
    endloop
  endfacet
  facet normal -0.55557 -0.83147 0
    outer loop
      vertex -1.81775 -4.38843 4
      vertex -3.35876 -3.35876 4
      vertex -1.81775 -4.38843 3
    endloop
  endfacet
  facet normal -0.83147 -0.55557 0
    outer loop
      vertex -4.38843 -1.81775 3
      vertex -3.35876 -3.35876 3
      vertex -4.38843 -1.81775 4
    endloop
  endfacet
  facet normal -0.83147 -0.55557 0
    outer loop
      vertex -4.38843 -1.81775 4
      vertex -3.35876 -3.35876 3
      vertex -3.35876 -3.35876 4
    endloop
  endfacet
  facet normal -0.980785 -0.19509 0
    outer loop
      vertex -4.75 0 3
      vertex -4.38843 -1.81775 3
      vertex -4.75 0 4
    endloop
  endfacet
  facet normal -0.980785 -0.19509 0
    outer loop
      vertex -4.75 0 4
      vertex -4.38843 -1.81775 3
      vertex -4.38843 -1.81775 4
    endloop
  endfacet
  facet normal -0.980785 0.19509 0
    outer loop
      vertex -4.75 0 3
      vertex -4.75 0 4
      vertex -4.38843 1.81775 3
    endloop
  endfacet
  facet normal -0.980785 0.19509 0
    outer loop
      vertex -4.38843 1.81775 3
      vertex -4.75 0 4
      vertex -4.38843 1.81775 4
    endloop
  endfacet
  facet normal -0.83147 0.55557 0
    outer loop
      vertex -4.38843 1.81775 3
      vertex -4.38843 1.81775 4
      vertex -3.35876 3.35876 3
    endloop
  endfacet
  facet normal -0.83147 0.55557 0
    outer loop
      vertex -3.35876 3.35876 3
      vertex -4.38843 1.81775 4
      vertex -3.35876 3.35876 4
    endloop
  endfacet
  facet normal -0.55557 0.83147 0
    outer loop
      vertex -3.35876 3.35876 3
      vertex -3.35876 3.35876 4
      vertex -1.81775 4.38843 3
    endloop
  endfacet
  facet normal -0.55557 0.83147 0
    outer loop
      vertex -1.81775 4.38843 3
      vertex -3.35876 3.35876 4
      vertex -1.81775 4.38843 4
    endloop
  endfacet
  facet normal -0.19509 0.980785 0
    outer loop
      vertex -1.81775 4.38843 3
      vertex -1.81775 4.38843 4
      vertex 0 4.75 3
    endloop
  endfacet
  facet normal -0.19509 0.980785 0
    outer loop
      vertex 0 4.75 3
      vertex -1.81775 4.38843 4
      vertex 0 4.75 4
    endloop
  endfacet
  facet normal 0.19509 0.980785 0
    outer loop
      vertex 0 4.75 3
      vertex 0 4.75 4
      vertex 1.81775 4.38843 3
    endloop
  endfacet
  facet normal 0.19509 0.980785 0
    outer loop
      vertex 1.81775 4.38843 3
      vertex 0 4.75 4
      vertex 1.81775 4.38843 4
    endloop
  endfacet
  facet normal 0.55557 0.83147 0
    outer loop
      vertex 1.81775 4.38843 3
      vertex 1.81775 4.38843 4
      vertex 3.35876 3.35876 3
    endloop
  endfacet
  facet normal 0.55557 0.83147 0
    outer loop
      vertex 3.35876 3.35876 3
      vertex 1.81775 4.38843 4
      vertex 3.35876 3.35876 4
    endloop
  endfacet
  facet normal 0.83147 0.55557 0
    outer loop
      vertex 4.38843 1.81775 3
      vertex 3.35876 3.35876 3
      vertex 3.35876 3.35876 4
    endloop
  endfacet
  facet normal 0.83147 0.55557 0
    outer loop
      vertex 4.38843 1.81775 4
      vertex 4.38843 1.81775 3
      vertex 3.35876 3.35876 4
    endloop
  endfacet
  facet normal 0.980785 0.19509 0
    outer loop
      vertex 4.75 0 3
      vertex 4.38843 1.81775 3
      vertex 4.38843 1.81775 4
    endloop
  endfacet
  facet normal 0.980785 0.19509 0
    outer loop
      vertex 4.75 0 4
      vertex 4.75 0 3
      vertex 4.38843 1.81775 4
    endloop
  endfacet
  facet normal 0.980785 -0.19509 0
    outer loop
      vertex 4.38843 -1.81775 4
      vertex 4.38843 -1.81775 3
      vertex 4.75 0 3
    endloop
  endfacet
  facet normal 0.980785 -0.19509 0
    outer loop
      vertex 4.75 0 4
      vertex 4.38843 -1.81775 4
      vertex 4.75 0 3
    endloop
  endfacet
  facet normal 0.83147 -0.55557 0
    outer loop
      vertex 3.35876 -3.35876 4
      vertex 3.35876 -3.35876 3
      vertex 4.38843 -1.81775 3
    endloop
  endfacet
  facet normal 0.83147 -0.55557 0
    outer loop
      vertex 4.38843 -1.81775 4
      vertex 3.35876 -3.35876 4
      vertex 4.38843 -1.81775 3
    endloop
  endfacet
  facet normal 0.55557 -0.83147 0
    outer loop
      vertex 1.81775 -4.38843 4
      vertex 1.81775 -4.38843 3
      vertex 3.35876 -3.35876 3
    endloop
  endfacet
  facet normal 0.55557 -0.83147 0
    outer loop
      vertex 3.35876 -3.35876 4
      vertex 1.81775 -4.38843 4
      vertex 3.35876 -3.35876 3
    endloop
  endfacet
  facet normal 0.55557 -0.83147 0
    outer loop
      vertex 1.81775 -4.38843 18
      vertex 1.81775 -4.38843 12.3
      vertex 3.35876 -3.35876 12.3
    endloop
  endfacet
  facet normal 0.55557 -0.83147 0
    outer loop
      vertex 3.35876 -3.35876 18
      vertex 1.81775 -4.38843 18
      vertex 3.35876 -3.35876 12.3
    endloop
  endfacet
  facet normal 0.83147 -0.55557 0
    outer loop
      vertex 3.35876 -3.35876 18
      vertex 3.35876 -3.35876 12.3
      vertex 4.38843 -1.81775 12.3
    endloop
  endfacet
  facet normal 0.83147 -0.55557 0
    outer loop
      vertex 4.38843 -1.81775 18
      vertex 3.35876 -3.35876 18
      vertex 4.38843 -1.81775 12.3
    endloop
  endfacet
  facet normal 0.980785 -0.19509 0
    outer loop
      vertex 4.38843 -1.81775 18
      vertex 4.38843 -1.81775 12.3
      vertex 4.75 0 12.3
    endloop
  endfacet
  facet normal 0.980785 -0.19509 0
    outer loop
      vertex 4.75 0 18
      vertex 4.38843 -1.81775 18
      vertex 4.75 0 12.3
    endloop
  endfacet
  facet normal 0.980785 0.19509 0
    outer loop
      vertex 4.75 0 12.3
      vertex 4.38843 1.81775 12.3
      vertex 4.38843 1.81775 18
    endloop
  endfacet
  facet normal 0.980785 0.19509 0
    outer loop
      vertex 4.75 0 18
      vertex 4.75 0 12.3
      vertex 4.38843 1.81775 18
    endloop
  endfacet
  facet normal 0.83147 0.55557 0
    outer loop
      vertex 4.38843 1.81775 12.3
      vertex 3.35876 3.35876 12.3
      vertex 3.35876 3.35876 18
    endloop
  endfacet
  facet normal 0.83147 0.55557 0
    outer loop
      vertex 4.38843 1.81775 18
      vertex 4.38843 1.81775 12.3
      vertex 3.35876 3.35876 18
    endloop
  endfacet
  facet normal 0.55557 0.83147 0
    outer loop
      vertex 1.81775 4.38843 12.3
      vertex 1.81775 4.38843 18
      vertex 3.35876 3.35876 12.3
    endloop
  endfacet
  facet normal 0.55557 0.83147 0
    outer loop
      vertex 3.35876 3.35876 12.3
      vertex 1.81775 4.38843 18
      vertex 3.35876 3.35876 18
    endloop
  endfacet
  facet normal 0.19509 0.980785 0
    outer loop
      vertex 0 4.75 12.3
      vertex 0 4.75 18
      vertex 1.81775 4.38843 12.3
    endloop
  endfacet
  facet normal 0.19509 0.980785 0
    outer loop
      vertex 1.81775 4.38843 12.3
      vertex 0 4.75 18
      vertex 1.81775 4.38843 18
    endloop
  endfacet
  facet normal -0.19509 0.980785 0
    outer loop
      vertex -1.81775 4.38843 12.3
      vertex -1.81775 4.38843 18
      vertex 0 4.75 12.3
    endloop
  endfacet
  facet normal -0.19509 0.980785 0
    outer loop
      vertex 0 4.75 12.3
      vertex -1.81775 4.38843 18
      vertex 0 4.75 18
    endloop
  endfacet
  facet normal -0.55557 0.83147 0
    outer loop
      vertex -3.35876 3.35876 12.3
      vertex -3.35876 3.35876 18
      vertex -1.81775 4.38843 12.3
    endloop
  endfacet
  facet normal -0.55557 0.83147 0
    outer loop
      vertex -1.81775 4.38843 12.3
      vertex -3.35876 3.35876 18
      vertex -1.81775 4.38843 18
    endloop
  endfacet
  facet normal -0.83147 0.55557 0
    outer loop
      vertex -4.38843 1.81775 12.3
      vertex -4.38843 1.81775 18
      vertex -3.35876 3.35876 12.3
    endloop
  endfacet
  facet normal -0.83147 0.55557 0
    outer loop
      vertex -3.35876 3.35876 12.3
      vertex -4.38843 1.81775 18
      vertex -3.35876 3.35876 18
    endloop
  endfacet
  facet normal -0.980785 0.19509 0
    outer loop
      vertex -4.75 0 12.3
      vertex -4.75 0 18
      vertex -4.38843 1.81775 12.3
    endloop
  endfacet
  facet normal -0.980785 0.19509 0
    outer loop
      vertex -4.38843 1.81775 12.3
      vertex -4.75 0 18
      vertex -4.38843 1.81775 18
    endloop
  endfacet
  facet normal -0.980785 -0.19509 0
    outer loop
      vertex -4.75 0 12.3
      vertex -4.38843 -1.81775 12.3
      vertex -4.75 0 18
    endloop
  endfacet
  facet normal -0.980785 -0.19509 0
    outer loop
      vertex -4.75 0 18
      vertex -4.38843 -1.81775 12.3
      vertex -4.38843 -1.81775 18
    endloop
  endfacet
  facet normal -0.83147 -0.55557 0
    outer loop
      vertex -4.38843 -1.81775 12.3
      vertex -3.35876 -3.35876 12.3
      vertex -4.38843 -1.81775 18
    endloop
  endfacet
  facet normal -0.83147 -0.55557 0
    outer loop
      vertex -4.38843 -1.81775 18
      vertex -3.35876 -3.35876 12.3
      vertex -3.35876 -3.35876 18
    endloop
  endfacet
  facet normal -0.55557 -0.83147 0
    outer loop
      vertex -3.35876 -3.35876 18
      vertex -3.35876 -3.35876 12.3
      vertex -1.81775 -4.38843 12.3
    endloop
  endfacet
  facet normal -0.55557 -0.83147 0
    outer loop
      vertex -1.81775 -4.38843 18
      vertex -3.35876 -3.35876 18
      vertex -1.81775 -4.38843 12.3
    endloop
  endfacet
  facet normal 0 0 1
    outer loop
      vertex -4.38843 1.81775 18
      vertex -4.75 0 18
      vertex -4.38843 -1.81775 18
    endloop
  endfacet
  facet normal 0 0 1
    outer loop
      vertex -3.69552 -1.53073 18
      vertex -4.38843 1.81775 18
      vertex -3.35876 -3.35876 18
    endloop
  endfacet
  facet normal 0 0 1
    outer loop
      vertex -3.35876 -3.35876 18
      vertex -4.38843 1.81775 18
      vertex -4.38843 -1.81775 18
    endloop
  endfacet
  facet normal 0 0 1
    outer loop
      vertex -3.69552 1.53073 18
      vertex -2.82843 2.82843 18
      vertex -4.38843 1.81775 18
    endloop
  endfacet
  facet normal 0 0 1
    outer loop
      vertex -1.53073 -3.69552 18
      vertex -2.82843 -2.82843 18
      vertex -1.81775 -4.38843 18
    endloop
  endfacet
  facet normal 0 0 1
    outer loop
      vertex 3.69552 1.53073 18
      vertex 4 0 18
      vertex 4.75 0 18
    endloop
  endfacet
  facet normal 0 0 1
    outer loop
      vertex -1.81775 4.38843 18
      vertex -4.38843 1.81775 18
      vertex 0 4.75 18
    endloop
  endfacet
  facet normal 0 0 1
    outer loop
      vertex -3.35876 3.35876 18
      vertex -4.38843 1.81775 18
      vertex -1.81775 4.38843 18
    endloop
  endfacet
  facet normal 0 0 1
    outer loop
      vertex -1.81775 -4.38843 18
      vertex -3.69552 -1.53073 18
      vertex -3.35876 -3.35876 18
    endloop
  endfacet
  facet normal 0 0 1
    outer loop
      vertex -4 0 18
      vertex -4.38843 1.81775 18
      vertex -3.69552 -1.53073 18
    endloop
  endfacet
  facet normal 0 0 1
    outer loop
      vertex 2.82843 -2.82843 18
      vertex 1.53073 -3.69552 18
      vertex 3.35876 -3.35876 18
    endloop
  endfacet
  facet normal 0 0 1
    outer loop
      vertex 1.53073 3.69552 18
      vertex 2.82843 2.82843 18
      vertex 3.35876 3.35876 18
    endloop
  endfacet
  facet normal 0 0 1
    outer loop
      vertex 0 4.75 18
      vertex -4.38843 1.81775 18
      vertex -2.82843 2.82843 18
    endloop
  endfacet
  facet normal 0 0 1
    outer loop
      vertex 0 4.75 18
      vertex -1.53073 3.69552 18
      vertex 1.81775 4.38843 18
    endloop
  endfacet
  facet normal 0 0 1
    outer loop
      vertex 0 4.75 18
      vertex -2.82843 2.82843 18
      vertex -1.53073 3.69552 18
    endloop
  endfacet
  facet normal 0 0 1
    outer loop
      vertex -1.53073 3.69552 18
      vertex 0 4 18
      vertex 1.81775 4.38843 18
    endloop
  endfacet
  facet normal 0 0 1
    outer loop
      vertex 1.81775 4.38843 18
      vertex 1.53073 3.69552 18
      vertex 3.35876 3.35876 18
    endloop
  endfacet
  facet normal 0 0 1
    outer loop
      vertex 0 4 18
      vertex 1.53073 3.69552 18
      vertex 1.81775 4.38843 18
    endloop
  endfacet
  facet normal 0 0 1
    outer loop
      vertex 3.35876 3.35876 18
      vertex 2.82843 2.82843 18
      vertex 4.38843 1.81775 18
    endloop
  endfacet
  facet normal 0 0 1
    outer loop
      vertex 4.38843 1.81775 18
      vertex 3.69552 1.53073 18
      vertex 4.75 0 18
    endloop
  endfacet
  facet normal 0 0 1
    outer loop
      vertex 4.75 0 18
      vertex 4 0 18
      vertex 4.38843 -1.81775 18
    endloop
  endfacet
  facet normal 0 0 1
    outer loop
      vertex 4.38843 -1.81775 18
      vertex 3.69552 -1.53073 18
      vertex 3.35876 -3.35876 18
    endloop
  endfacet
  facet normal 0 0 1
    outer loop
      vertex 2.82843 2.82843 18
      vertex 3.69552 1.53073 18
      vertex 4.38843 1.81775 18
    endloop
  endfacet
  facet normal 0 0 1
    outer loop
      vertex 3.69552 -1.53073 18
      vertex 2.82843 -2.82843 18
      vertex 3.35876 -3.35876 18
    endloop
  endfacet
  facet normal 0 0 1
    outer loop
      vertex 3.35876 -3.35876 18
      vertex 1.53073 -3.69552 18
      vertex 1.81775 -4.38843 18
    endloop
  endfacet
  facet normal 0 0 1
    outer loop
      vertex 1.81775 -4.38843 18
      vertex 0 -4 18
      vertex 0 -4.75 18
    endloop
  endfacet
  facet normal 0 0 1
    outer loop
      vertex 4 0 18
      vertex 3.69552 -1.53073 18
      vertex 4.38843 -1.81775 18
    endloop
  endfacet
  facet normal 0 0 1
    outer loop
      vertex 0 -4.75 18
      vertex -1.53073 -3.69552 18
      vertex -1.81775 -4.38843 18
    endloop
  endfacet
  facet normal 0 0 1
    outer loop
      vertex -1.81775 -4.38843 18
      vertex -2.82843 -2.82843 18
      vertex -3.69552 -1.53073 18
    endloop
  endfacet
  facet normal 0 0 1
    outer loop
      vertex 1.53073 -3.69552 18
      vertex 0 -4 18
      vertex 1.81775 -4.38843 18
    endloop
  endfacet
  facet normal 0 0 1
    outer loop
      vertex 0 -4 18
      vertex -1.53073 -3.69552 18
      vertex 0 -4.75 18
    endloop
  endfacet
  facet normal 0 0 1
    outer loop
      vertex -4 0 18
      vertex -3.69552 1.53073 18
      vertex -4.38843 1.81775 18
    endloop
  endfacet
  facet normal 0.280879 -0.420365 -0.862786
    outer loop
      vertex 1.81775 -4.38843 3
      vertex 0.282843 -0.282843 0.5
      vertex 3.35876 -3.35876 3
    endloop
  endfacet
  facet normal 0.280878 -0.420366 -0.862787
    outer loop
      vertex 1.81775 -4.38843 3
      vertex 0.153073 -0.369552 0.5
      vertex 0.282843 -0.282843 0.5
    endloop
  endfacet
  facet normal 0.0986315 -0.495854 -0.862786
    outer loop
      vertex 1.81775 -4.38843 3
      vertex 0 -4.75 3
      vertex 0.153073 -0.369552 0.5
    endloop
  endfacet
  facet normal 0.0986312 -0.495854 -0.862786
    outer loop
      vertex 0.153073 -0.369552 0.5
      vertex 0 -4.75 3
      vertex 0 -0.4 0.5
    endloop
  endfacet
  facet normal -0.0986315 -0.495854 -0.862786
    outer loop
      vertex 0 -4.75 3
      vertex -1.81775 -4.38843 3
      vertex 0 -0.4 0.5
    endloop
  endfacet
  facet normal -0.0986312 -0.495854 -0.862786
    outer loop
      vertex 0 -0.4 0.5
      vertex -1.81775 -4.38843 3
      vertex -0.153073 -0.369552 0.5
    endloop
  endfacet
  facet normal -0.280879 -0.420365 -0.862786
    outer loop
      vertex -1.81775 -4.38843 3
      vertex -3.35876 -3.35876 3
      vertex -0.153073 -0.369552 0.5
    endloop
  endfacet
  facet normal -0.280878 -0.420366 -0.862786
    outer loop
      vertex -0.153073 -0.369552 0.5
      vertex -3.35876 -3.35876 3
      vertex -0.282843 -0.282843 0.5
    endloop
  endfacet
  facet normal -0.420365 -0.280879 -0.862786
    outer loop
      vertex -3.35876 -3.35876 3
      vertex -4.38843 -1.81775 3
      vertex -0.282843 -0.282843 0.5
    endloop
  endfacet
  facet normal -0.420366 -0.280878 -0.862787
    outer loop
      vertex -0.282843 -0.282843 0.5
      vertex -4.38843 -1.81775 3
      vertex -0.369552 -0.153073 0.5
    endloop
  endfacet
  facet normal -0.495854 -0.0986315 -0.862786
    outer loop
      vertex -4.38843 -1.81775 3
      vertex -4.75 0 3
      vertex -0.369552 -0.153073 0.5
    endloop
  endfacet
  facet normal -0.495854 -0.0986312 -0.862786
    outer loop
      vertex -0.369552 -0.153073 0.5
      vertex -4.75 0 3
      vertex -0.4 0 0.5
    endloop
  endfacet
  facet normal -0.495854 0.0986315 -0.862786
    outer loop
      vertex -0.4 0 0.5
      vertex -4.75 0 3
      vertex -4.38843 1.81775 3
    endloop
  endfacet
  facet normal -0.495854 0.0986312 -0.862786
    outer loop
      vertex -0.4 0 0.5
      vertex -4.38843 1.81775 3
      vertex -0.369552 0.153073 0.5
    endloop
  endfacet
  facet normal -0.420365 0.280879 -0.862786
    outer loop
      vertex -0.369552 0.153073 0.5
      vertex -4.38843 1.81775 3
      vertex -3.35876 3.35876 3
    endloop
  endfacet
  facet normal -0.420366 0.280878 -0.862786
    outer loop
      vertex -0.369552 0.153073 0.5
      vertex -3.35876 3.35876 3
      vertex -0.282843 0.282843 0.5
    endloop
  endfacet
  facet normal -0.280879 0.420365 -0.862786
    outer loop
      vertex -0.282843 0.282843 0.5
      vertex -3.35876 3.35876 3
      vertex -1.81775 4.38843 3
    endloop
  endfacet
  facet normal -0.280878 0.420366 -0.862787
    outer loop
      vertex -0.282843 0.282843 0.5
      vertex -1.81775 4.38843 3
      vertex -0.153073 0.369552 0.5
    endloop
  endfacet
  facet normal -0.0986315 0.495854 -0.862786
    outer loop
      vertex -0.153073 0.369552 0.5
      vertex -1.81775 4.38843 3
      vertex 0 4.75 3
    endloop
  endfacet
  facet normal -0.0986312 0.495854 -0.862786
    outer loop
      vertex 0 0.4 0.5
      vertex -0.153073 0.369552 0.5
      vertex 0 4.75 3
    endloop
  endfacet
  facet normal 0.0986315 0.495854 -0.862786
    outer loop
      vertex 1.81775 4.38843 3
      vertex 0 0.4 0.5
      vertex 0 4.75 3
    endloop
  endfacet
  facet normal 0.0986312 0.495854 -0.862786
    outer loop
      vertex 0.153073 0.369552 0.5
      vertex 0 0.4 0.5
      vertex 1.81775 4.38843 3
    endloop
  endfacet
  facet normal 0.280879 0.420365 -0.862786
    outer loop
      vertex 3.35876 3.35876 3
      vertex 0.153073 0.369552 0.5
      vertex 1.81775 4.38843 3
    endloop
  endfacet
  facet normal 0.280878 0.420366 -0.862786
    outer loop
      vertex 0.282843 0.282843 0.5
      vertex 0.153073 0.369552 0.5
      vertex 3.35876 3.35876 3
    endloop
  endfacet
  facet normal 0.420365 0.280879 -0.862786
    outer loop
      vertex 4.38843 1.81775 3
      vertex 0.282843 0.282843 0.5
      vertex 3.35876 3.35876 3
    endloop
  endfacet
  facet normal 0.420366 0.280878 -0.862787
    outer loop
      vertex 0.369552 0.153073 0.5
      vertex 0.282843 0.282843 0.5
      vertex 4.38843 1.81775 3
    endloop
  endfacet
  facet normal 0.495854 0.0986315 -0.862786
    outer loop
      vertex 4.75 0 3
      vertex 0.369552 0.153073 0.5
      vertex 4.38843 1.81775 3
    endloop
  endfacet
  facet normal 0.495854 0.0986312 -0.862786
    outer loop
      vertex 0.4 0 0.5
      vertex 0.369552 0.153073 0.5
      vertex 4.75 0 3
    endloop
  endfacet
  facet normal 0.495854 -0.0986315 -0.862786
    outer loop
      vertex 4.38843 -1.81775 3
      vertex 0.4 0 0.5
      vertex 4.75 0 3
    endloop
  endfacet
  facet normal 0.495854 -0.0986312 -0.862786
    outer loop
      vertex 4.38843 -1.81775 3
      vertex 0.369552 -0.153073 0.5
      vertex 0.4 0 0.5
    endloop
  endfacet
  facet normal 0.420365 -0.280879 -0.862786
    outer loop
      vertex 3.35876 -3.35876 3
      vertex 0.369552 -0.153073 0.5
      vertex 4.38843 -1.81775 3
    endloop
  endfacet
  facet normal 0.420366 -0.280878 -0.862786
    outer loop
      vertex 3.35876 -3.35876 3
      vertex 0.282843 -0.282843 0.5
      vertex 0.369552 -0.153073 0.5
    endloop
  endfacet
  facet normal 0.83147 0.55557 0
    outer loop
      vertex -3.69552 -1.53073 18
      vertex -2.82843 -2.82843 18
      vertex -2.82843 -2.82843 4
    endloop
  endfacet
  facet normal 0.83147 0.55557 0
    outer loop
      vertex -3.69552 -1.53073 4
      vertex -3.69552 -1.53073 18
      vertex -2.82843 -2.82843 4
    endloop
  endfacet
  facet normal 0.980785 0.19509 0
    outer loop
      vertex -4 0 18
      vertex -3.69552 -1.53073 18
      vertex -3.69552 -1.53073 4
    endloop
  endfacet
  facet normal 0.980785 0.19509 0
    outer loop
      vertex -4 0 4
      vertex -4 0 18
      vertex -3.69552 -1.53073 4
    endloop
  endfacet
  facet normal 0.55557 0.83147 0
    outer loop
      vertex -1.53073 -3.69552 18
      vertex -1.53073 -3.69552 4
      vertex -2.82843 -2.82843 18
    endloop
  endfacet
  facet normal 0.55557 0.83147 0
    outer loop
      vertex -2.82843 -2.82843 18
      vertex -1.53073 -3.69552 4
      vertex -2.82843 -2.82843 4
    endloop
  endfacet
  facet normal 0.19509 0.980785 0
    outer loop
      vertex 0 -4 18
      vertex 0 -4 4
      vertex -1.53073 -3.69552 18
    endloop
  endfacet
  facet normal 0.19509 0.980785 0
    outer loop
      vertex -1.53073 -3.69552 18
      vertex 0 -4 4
      vertex -1.53073 -3.69552 4
    endloop
  endfacet
  facet normal -0.19509 0.980785 0
    outer loop
      vertex 1.53073 -3.69552 18
      vertex 1.53073 -3.69552 4
      vertex 0 -4 18
    endloop
  endfacet
  facet normal -0.19509 0.980785 0
    outer loop
      vertex 0 -4 18
      vertex 1.53073 -3.69552 4
      vertex 0 -4 4
    endloop
  endfacet
  facet normal -0.55557 0.83147 0
    outer loop
      vertex 2.82843 -2.82843 18
      vertex 2.82843 -2.82843 4
      vertex 1.53073 -3.69552 18
    endloop
  endfacet
  facet normal -0.55557 0.83147 0
    outer loop
      vertex 1.53073 -3.69552 18
      vertex 2.82843 -2.82843 4
      vertex 1.53073 -3.69552 4
    endloop
  endfacet
  facet normal -0.83147 0.55557 0
    outer loop
      vertex 3.69552 -1.53073 18
      vertex 3.69552 -1.53073 4
      vertex 2.82843 -2.82843 18
    endloop
  endfacet
  facet normal -0.83147 0.55557 0
    outer loop
      vertex 2.82843 -2.82843 18
      vertex 3.69552 -1.53073 4
      vertex 2.82843 -2.82843 4
    endloop
  endfacet
  facet normal -0.980785 0.19509 0
    outer loop
      vertex 4 0 18
      vertex 4 0 4
      vertex 3.69552 -1.53073 18
    endloop
  endfacet
  facet normal -0.980785 0.19509 0
    outer loop
      vertex 3.69552 -1.53073 18
      vertex 4 0 4
      vertex 3.69552 -1.53073 4
    endloop
  endfacet
  facet normal -0.980785 -0.19509 0
    outer loop
      vertex 4 0 18
      vertex 3.69552 1.53073 18
      vertex 4 0 4
    endloop
  endfacet
  facet normal -0.980785 -0.19509 0
    outer loop
      vertex 4 0 4
      vertex 3.69552 1.53073 18
      vertex 3.69552 1.53073 4
    endloop
  endfacet
  facet normal -0.83147 -0.55557 0
    outer loop
      vertex 3.69552 1.53073 18
      vertex 2.82843 2.82843 18
      vertex 3.69552 1.53073 4
    endloop
  endfacet
  facet normal -0.83147 -0.55557 0
    outer loop
      vertex 3.69552 1.53073 4
      vertex 2.82843 2.82843 18
      vertex 2.82843 2.82843 4
    endloop
  endfacet
  facet normal -0.55557 -0.83147 0
    outer loop
      vertex 2.82843 2.82843 4
      vertex 2.82843 2.82843 18
      vertex 1.53073 3.69552 18
    endloop
  endfacet
  facet normal -0.55557 -0.83147 0
    outer loop
      vertex 1.53073 3.69552 4
      vertex 2.82843 2.82843 4
      vertex 1.53073 3.69552 18
    endloop
  endfacet
  facet normal -0.19509 -0.980785 0
    outer loop
      vertex 1.53073 3.69552 4
      vertex 1.53073 3.69552 18
      vertex 0 4 18
    endloop
  endfacet
  facet normal -0.19509 -0.980785 0
    outer loop
      vertex 0 4 4
      vertex 1.53073 3.69552 4
      vertex 0 4 18
    endloop
  endfacet
  facet normal 0.19509 -0.980785 0
    outer loop
      vertex 0 4 4
      vertex 0 4 18
      vertex -1.53073 3.69552 18
    endloop
  endfacet
  facet normal 0.19509 -0.980785 0
    outer loop
      vertex -1.53073 3.69552 4
      vertex 0 4 4
      vertex -1.53073 3.69552 18
    endloop
  endfacet
  facet normal 0.55557 -0.83147 0
    outer loop
      vertex -1.53073 3.69552 4
      vertex -1.53073 3.69552 18
      vertex -2.82843 2.82843 18
    endloop
  endfacet
  facet normal 0.55557 -0.83147 0
    outer loop
      vertex -2.82843 2.82843 4
      vertex -1.53073 3.69552 4
      vertex -2.82843 2.82843 18
    endloop
  endfacet
  facet normal 0.83147 -0.55557 0
    outer loop
      vertex -2.82843 2.82843 4
      vertex -2.82843 2.82843 18
      vertex -3.69552 1.53073 18
    endloop
  endfacet
  facet normal 0.83147 -0.55557 0
    outer loop
      vertex -3.69552 1.53073 4
      vertex -2.82843 2.82843 4
      vertex -3.69552 1.53073 18
    endloop
  endfacet
  facet normal 0.980785 -0.19509 0
    outer loop
      vertex -3.69552 1.53073 4
      vertex -3.69552 1.53073 18
      vertex -4 0 18
    endloop
  endfacet
  facet normal 0.980785 -0.19509 0
    outer loop
      vertex -4 0 4
      vertex -3.69552 1.53073 4
      vertex -4 0 18
    endloop
  endfacet
  facet normal 0 0 -1
    outer loop
      vertex 0.282843 -0.282843 0.5
      vertex 0.153073 -0.369552 0.5
      vertex 0 -0.4 0.5
    endloop
  endfacet
  facet normal 0 0 -1
    outer loop
      vertex 0.4 0 0.5
      vertex 0.369552 -0.153073 0.5
      vertex 0.282843 -0.282843 0.5
    endloop
  endfacet
  facet normal 0.92388 -0.382682 0
    outer loop
      vertex 0.282843 -0.282843 0.5
      vertex 0.282843 -0.282843 0
      vertex 0.4 0 0
    endloop
  endfacet
  facet normal 0.92388 -0.382682 0
    outer loop
      vertex 0.4 0 0.5
      vertex 0.282843 -0.282843 0.5
      vertex 0.4 0 0
    endloop
  endfacet
  facet normal 0.382682 -0.92388 0
    outer loop
      vertex 0 -0.4 0.5
      vertex 0 -0.4 0
      vertex 0.282843 -0.282843 0
    endloop
  endfacet
  facet normal 0.382682 -0.92388 0
    outer loop
      vertex 0.282843 -0.282843 0.5
      vertex 0 -0.4 0.5
      vertex 0.282843 -0.282843 0
    endloop
  endfacet
  facet normal 0 0 -1
    outer loop
      vertex 0 -0.4 0.5
      vertex -0.153073 -0.369552 0.5
      vertex -0.282843 -0.282843 0.5
    endloop
  endfacet
  facet normal -0.382682 -0.92388 0
    outer loop
      vertex -0.282843 -0.282843 0.5
      vertex -0.282843 -0.282843 0
      vertex 0 -0.4 0
    endloop
  endfacet
  facet normal -0.382682 -0.92388 0
    outer loop
      vertex 0 -0.4 0.5
      vertex -0.282843 -0.282843 0.5
      vertex 0 -0.4 0
    endloop
  endfacet
  facet normal 0 0 -1
    outer loop
      vertex -0.282843 -0.282843 0.5
      vertex -0.369552 -0.153073 0.5
      vertex -0.4 0 0.5
    endloop
  endfacet
  facet normal -0.92388 -0.382682 0
    outer loop
      vertex -0.4 0 0
      vertex -0.282843 -0.282843 0
      vertex -0.4 0 0.5
    endloop
  endfacet
  facet normal -0.92388 -0.382682 0
    outer loop
      vertex -0.4 0 0.5
      vertex -0.282843 -0.282843 0
      vertex -0.282843 -0.282843 0.5
    endloop
  endfacet
  facet normal -0.92388 0.382682 0
    outer loop
      vertex -0.4 0 0
      vertex -0.4 0 0.5
      vertex -0.282843 0.282843 0
    endloop
  endfacet
  facet normal -0.92388 0.382682 0
    outer loop
      vertex -0.282843 0.282843 0
      vertex -0.4 0 0.5
      vertex -0.282843 0.282843 0.5
    endloop
  endfacet
  facet normal 0 0 -1
    outer loop
      vertex -0.369552 0.153073 0.5
      vertex -0.282843 0.282843 0.5
      vertex -0.4 0 0.5
    endloop
  endfacet
  facet normal -0.382682 0.92388 0
    outer loop
      vertex -0.282843 0.282843 0
      vertex -0.282843 0.282843 0.5
      vertex 0 0.4 0
    endloop
  endfacet
  facet normal -0.382682 0.92388 0
    outer loop
      vertex 0 0.4 0
      vertex -0.282843 0.282843 0.5
      vertex 0 0.4 0.5
    endloop
  endfacet
  facet normal 0 0 -1
    outer loop
      vertex -0.153073 0.369552 0.5
      vertex 0 0.4 0.5
      vertex -0.282843 0.282843 0.5
    endloop
  endfacet
  facet normal 0.382682 0.92388 0
    outer loop
      vertex 0 0.4 0
      vertex 0 0.4 0.5
      vertex 0.282843 0.282843 0
    endloop
  endfacet
  facet normal 0.382682 0.92388 0
    outer loop
      vertex 0.282843 0.282843 0
      vertex 0 0.4 0.5
      vertex 0.282843 0.282843 0.5
    endloop
  endfacet
  facet normal 0 0 -1
    outer loop
      vertex 0.153073 0.369552 0.5
      vertex 0.282843 0.282843 0.5
      vertex 0 0.4 0.5
    endloop
  endfacet
  facet normal 0.92388 0.382682 0
    outer loop
      vertex 0.4 0 0
      vertex 0.282843 0.282843 0
      vertex 0.282843 0.282843 0.5
    endloop
  endfacet
  facet normal 0.92388 0.382682 0
    outer loop
      vertex 0.4 0 0.5
      vertex 0.4 0 0
      vertex 0.282843 0.282843 0.5
    endloop
  endfacet
  facet normal 0 0 -1
    outer loop
      vertex 0.369552 0.153073 0.5
      vertex 0.4 0 0.5
      vertex 0.282843 0.282843 0.5
    endloop
  endfacet
  facet normal 0.635056 0.126321 0.762067
    outer loop
      vertex -3.69552 -1.53073 4
      vertex -0.369552 -0.153073 1
      vertex -4 0 4
    endloop
  endfacet
  facet normal 0.538375 0.359729 0.762068
    outer loop
      vertex -0.282843 -0.282843 1
      vertex -0.369552 -0.153073 1
      vertex -3.69552 -1.53073 4
    endloop
  endfacet
  facet normal 0.538375 0.359731 0.762067
    outer loop
      vertex -2.82843 -2.82843 4
      vertex -0.282843 -0.282843 1
      vertex -3.69552 -1.53073 4
    endloop
  endfacet
  facet normal 0.359729 0.538376 0.762067
    outer loop
      vertex -0.153073 -0.369552 1
      vertex -0.282843 -0.282843 1
      vertex -2.82843 -2.82843 4
    endloop
  endfacet
  facet normal 0.359731 0.538375 0.762067
    outer loop
      vertex -1.53073 -3.69552 4
      vertex -0.153073 -0.369552 1
      vertex -2.82843 -2.82843 4
    endloop
  endfacet
  facet normal 0.635056 -0.126321 0.762067
    outer loop
      vertex -0.4 0 1
      vertex -3.69552 1.53073 4
      vertex -4 0 4
    endloop
  endfacet
  facet normal 0.635056 0.12632 0.762067
    outer loop
      vertex -0.369552 -0.153073 1
      vertex -0.4 0 1
      vertex -4 0 4
    endloop
  endfacet
  facet normal 0.12632 0.635056 0.762067
    outer loop
      vertex 0 -0.4 1
      vertex -0.153073 -0.369552 1
      vertex -1.53073 -3.69552 4
    endloop
  endfacet
  facet normal 0.126321 0.635056 0.762067
    outer loop
      vertex 0 -4 4
      vertex 0 -0.4 1
      vertex -1.53073 -3.69552 4
    endloop
  endfacet
  facet normal -0.12632 0.635056 0.762067
    outer loop
      vertex 0.153073 -0.369552 1
      vertex 0 -0.4 1
      vertex 0 -4 4
    endloop
  endfacet
  facet normal -0.126321 0.635056 0.762067
    outer loop
      vertex 1.53073 -3.69552 4
      vertex 0.153073 -0.369552 1
      vertex 0 -4 4
    endloop
  endfacet
  facet normal -0.359729 0.538375 0.762068
    outer loop
      vertex 1.53073 -3.69552 4
      vertex 0.282843 -0.282843 1
      vertex 0.153073 -0.369552 1
    endloop
  endfacet
  facet normal -0.359731 0.538375 0.762067
    outer loop
      vertex 1.53073 -3.69552 4
      vertex 2.82843 -2.82843 4
      vertex 0.282843 -0.282843 1
    endloop
  endfacet
  facet normal -0.538376 0.359729 0.762067
    outer loop
      vertex 2.82843 -2.82843 4
      vertex 0.369552 -0.153073 1
      vertex 0.282843 -0.282843 1
    endloop
  endfacet
  facet normal -0.538375 0.359731 0.762067
    outer loop
      vertex 2.82843 -2.82843 4
      vertex 3.69552 -1.53073 4
      vertex 0.369552 -0.153073 1
    endloop
  endfacet
  facet normal -0.635056 0.12632 0.762067
    outer loop
      vertex 3.69552 -1.53073 4
      vertex 0.4 0 1
      vertex 0.369552 -0.153073 1
    endloop
  endfacet
  facet normal -0.635056 0.126321 0.762067
    outer loop
      vertex 3.69552 -1.53073 4
      vertex 4 0 4
      vertex 0.4 0 1
    endloop
  endfacet
  facet normal -0.635056 -0.12632 0.762067
    outer loop
      vertex 0.4 0 1
      vertex 4 0 4
      vertex 0.369552 0.153073 1
    endloop
  endfacet
  facet normal -0.635056 -0.126321 0.762067
    outer loop
      vertex 4 0 4
      vertex 3.69552 1.53073 4
      vertex 0.369552 0.153073 1
    endloop
  endfacet
  facet normal -0.538375 -0.359729 0.762068
    outer loop
      vertex 0.369552 0.153073 1
      vertex 3.69552 1.53073 4
      vertex 0.282843 0.282843 1
    endloop
  endfacet
  facet normal -0.538375 -0.359731 0.762067
    outer loop
      vertex 3.69552 1.53073 4
      vertex 2.82843 2.82843 4
      vertex 0.282843 0.282843 1
    endloop
  endfacet
  facet normal -0.359729 -0.538376 0.762067
    outer loop
      vertex 0.282843 0.282843 1
      vertex 2.82843 2.82843 4
      vertex 0.153073 0.369552 1
    endloop
  endfacet
  facet normal -0.359731 -0.538375 0.762067
    outer loop
      vertex 2.82843 2.82843 4
      vertex 1.53073 3.69552 4
      vertex 0.153073 0.369552 1
    endloop
  endfacet
  facet normal -0.12632 -0.635056 0.762067
    outer loop
      vertex 0.153073 0.369552 1
      vertex 1.53073 3.69552 4
      vertex 0 0.4 1
    endloop
  endfacet
  facet normal -0.126321 -0.635056 0.762067
    outer loop
      vertex 1.53073 3.69552 4
      vertex 0 4 4
      vertex 0 0.4 1
    endloop
  endfacet
  facet normal 0.12632 -0.635056 0.762067
    outer loop
      vertex 0 0.4 1
      vertex 0 4 4
      vertex -0.153073 0.369552 1
    endloop
  endfacet
  facet normal 0.126321 -0.635056 0.762067
    outer loop
      vertex -0.153073 0.369552 1
      vertex 0 4 4
      vertex -1.53073 3.69552 4
    endloop
  endfacet
  facet normal 0.359729 -0.538375 0.762068
    outer loop
      vertex -0.282843 0.282843 1
      vertex -0.153073 0.369552 1
      vertex -1.53073 3.69552 4
    endloop
  endfacet
  facet normal 0.359731 -0.538375 0.762067
    outer loop
      vertex -0.282843 0.282843 1
      vertex -1.53073 3.69552 4
      vertex -2.82843 2.82843 4
    endloop
  endfacet
  facet normal 0.538376 -0.359729 0.762067
    outer loop
      vertex -0.369552 0.153073 1
      vertex -0.282843 0.282843 1
      vertex -2.82843 2.82843 4
    endloop
  endfacet
  facet normal 0.538375 -0.359731 0.762067
    outer loop
      vertex -0.369552 0.153073 1
      vertex -2.82843 2.82843 4
      vertex -3.69552 1.53073 4
    endloop
  endfacet
  facet normal 0.635056 -0.12632 0.762067
    outer loop
      vertex -0.4 0 1
      vertex -0.369552 0.153073 1
      vertex -3.69552 1.53073 4
    endloop
  endfacet
  facet normal 0 0 -1
    outer loop
      vertex -0.4 0 0
      vertex -0.282843 0.282843 0
      vertex -0.282843 -0.282843 0
    endloop
  endfacet
  facet normal 0 0 -1
    outer loop
      vertex -0.282843 -0.282843 0
      vertex -0.282843 0.282843 0
      vertex 0 0.4 0
    endloop
  endfacet
  facet normal 0 0 -1
    outer loop
      vertex -0.282843 -0.282843 0
      vertex 0 0.4 0
      vertex 0.282843 0.282843 0
    endloop
  endfacet
  facet normal 0 0 -1
    outer loop
      vertex -0.282843 -0.282843 0
      vertex 0.282843 0.282843 0
      vertex 0.4 0 0
    endloop
  endfacet
  facet normal 0 0 -1
    outer loop
      vertex -0.282843 -0.282843 0
      vertex 0.4 0 0
      vertex 0.282843 -0.282843 0
    endloop
  endfacet
  facet normal 0 0 -1
    outer loop
      vertex -0.282843 -0.282843 0
      vertex 0.282843 -0.282843 0
      vertex 0 -0.4 0
    endloop
  endfacet
  facet normal 0 0 1
    outer loop
      vertex -0.369552 -0.153073 1
      vertex -0.282843 -0.282843 1
      vertex -0.153073 -0.369552 1
    endloop
  endfacet
  facet normal 0 0 1
    outer loop
      vertex 0.153073 -0.369552 1
      vertex -0.369552 -0.153073 1
      vertex 0 -0.4 1
    endloop
  endfacet
  facet normal 0 0 1
    outer loop
      vertex 0 -0.4 1
      vertex -0.369552 -0.153073 1
      vertex -0.153073 -0.369552 1
    endloop
  endfacet
  facet normal 0 0 1
    outer loop
      vertex 0.282843 -0.282843 1
      vertex -0.369552 -0.153073 1
      vertex 0.153073 -0.369552 1
    endloop
  endfacet
  facet normal 0 0 1
    outer loop
      vertex 0.369552 -0.153073 1
      vertex -0.369552 -0.153073 1
      vertex 0.282843 -0.282843 1
    endloop
  endfacet
  facet normal 0 0 1
    outer loop
      vertex 0.4 0 1
      vertex -0.369552 -0.153073 1
      vertex 0.369552 -0.153073 1
    endloop
  endfacet
  facet normal 0 0 1
    outer loop
      vertex 0.369552 0.153073 1
      vertex -0.369552 -0.153073 1
      vertex 0.4 0 1
    endloop
  endfacet
  facet normal 0 0 1
    outer loop
      vertex 0.282843 0.282843 1
      vertex -0.369552 -0.153073 1
      vertex 0.369552 0.153073 1
    endloop
  endfacet
  facet normal 0 0 1
    outer loop
      vertex 0.153073 0.369552 1
      vertex -0.369552 -0.153073 1
      vertex 0.282843 0.282843 1
    endloop
  endfacet
  facet normal 0 0 1
    outer loop
      vertex 0 0.4 1
      vertex -0.369552 -0.153073 1
      vertex 0.153073 0.369552 1
    endloop
  endfacet
  facet normal 0 0 1
    outer loop
      vertex -0.153073 0.369552 1
      vertex -0.369552 -0.153073 1
      vertex 0 0.4 1
    endloop
  endfacet
  facet normal 0 0 1
    outer loop
      vertex -0.282843 0.282843 1
      vertex -0.369552 -0.153073 1
      vertex -0.153073 0.369552 1
    endloop
  endfacet
  facet normal 0 0 1
    outer loop
      vertex -0.369552 0.153073 1
      vertex -0.369552 -0.153073 1
      vertex -0.282843 0.282843 1
    endloop
  endfacet
  facet normal 0 0 1
    outer loop
      vertex -0.4 0 1
      vertex -0.369552 -0.153073 1
      vertex -0.369552 0.153073 1
    endloop
  endfacet
endsolid OpenSCAD_Model
